<mxfile host="65bd71144e">
    <diagram id="ffAIMfUarK7S-c_nZ5X6" name="Page-1">
        <mxGraphModel dx="1146" dy="682" grid="1" gridSize="10" guides="1" tooltips="1" connect="1" arrows="1" fold="1" page="1" pageScale="1" pageWidth="1169" pageHeight="827" background="#ffffff" math="0" shadow="0">
            <root>
                <object label="" id="0">
                    <mxCell/>
                </object>
                <mxCell id="1" parent="0"/>
                <mxCell id="2" value="AWS Cloud" style="sketch=0;outlineConnect=0;gradientColor=none;html=1;whiteSpace=wrap;fontSize=12;fontStyle=0;shape=mxgraph.aws4.group;grIcon=mxgraph.aws4.group_aws_cloud;strokeColor=#AAB7B8;fillColor=none;verticalAlign=top;align=left;spacingLeft=30;fontColor=#AAB7B8;dashed=0;" parent="1" vertex="1">
                    <mxGeometry x="170" y="80" width="790" height="640" as="geometry"/>
                </mxCell>
                <mxCell id="3" value="" style="sketch=0;points=[[0,0,0],[0.25,0,0],[0.5,0,0],[0.75,0,0],[1,0,0],[0,1,0],[0.25,1,0],[0.5,1,0],[0.75,1,0],[1,1,0],[0,0.25,0],[0,0.5,0],[0,0.75,0],[1,0.25,0],[1,0.5,0],[1,0.75,0]];outlineConnect=0;fontColor=#232F3E;gradientColor=#F78E04;gradientDirection=north;fillColor=#D05C17;strokeColor=#ffffff;dashed=0;verticalLabelPosition=bottom;verticalAlign=top;align=center;html=1;fontSize=12;fontStyle=0;aspect=fixed;shape=mxgraph.aws4.resourceIcon;resIcon=mxgraph.aws4.ecr;" parent="1" vertex="1">
                    <mxGeometry x="730" y="120" width="60" height="60" as="geometry"/>
                </mxCell>
                <mxCell id="4" value="" style="fontColor=#0066CC;verticalAlign=top;verticalLabelPosition=bottom;labelPosition=center;align=center;html=1;outlineConnect=0;fillColor=#CCCCCC;strokeColor=#6881B3;gradientColor=none;gradientDirection=north;strokeWidth=2;shape=mxgraph.networks.pc;" parent="1" vertex="1">
                    <mxGeometry x="1000" y="560" width="100" height="70" as="geometry"/>
                </mxCell>
                <mxCell id="6" value="" style="verticalLabelPosition=bottom;html=1;verticalAlign=top;align=center;strokeColor=none;fillColor=#00BEF2;shape=mxgraph.azure.git_repository;" parent="1" vertex="1">
                    <mxGeometry x="1025" y="400" width="50" height="50" as="geometry"/>
                </mxCell>
                <mxCell id="7" value="" style="verticalLabelPosition=bottom;html=1;verticalAlign=top;align=center;strokeColor=none;fillColor=#00BEF2;shape=mxgraph.azure.github_code;pointerEvents=1;" parent="1" vertex="1">
                    <mxGeometry x="1025" y="280" width="50" height="50" as="geometry"/>
                </mxCell>
                <mxCell id="8" value="&lt;font color=&quot;#000000&quot;&gt;git secret&lt;/font&gt;" style="text;html=1;align=center;verticalAlign=middle;resizable=0;points=[];autosize=1;strokeColor=none;fillColor=none;" parent="1" vertex="1">
                    <mxGeometry x="1075" y="465" width="70" height="30" as="geometry"/>
                </mxCell>
                <mxCell id="9" value="&lt;font color=&quot;#000000&quot;&gt;github&lt;/font&gt;" style="text;html=1;align=center;verticalAlign=middle;resizable=0;points=[];autosize=1;strokeColor=none;fillColor=none;" parent="1" vertex="1">
                    <mxGeometry x="1080" y="340" width="60" height="30" as="geometry"/>
                </mxCell>
                <mxCell id="10" value="" style="shape=image;verticalLabelPosition=bottom;labelBackgroundColor=default;verticalAlign=top;aspect=fixed;imageAspect=0;image=data:image/png,iVBORw0KGgoAAAANSUhEUgAAAdwAAAHMCAYAAAB/dRluAAAKqWlDQ1BJQ0MgUHJvZmlsZQAASImVlwdQk9kWgO//pzdaQgSkhN4E6QSQEkILICAdbIQkQCghBoKAHVlcgbUgIgKKoKsCCq4FkLUiim1RUIp1QRYRZRULNizvB4awu2/ee/POzJnz5eTcc8+9c8/M+QGgKHDF4mRYAYAUUbok2NudERkVzcANAxgoAxKgAwMuL03MCgryB4jM2L/L+x4ATdo7ZpO5/v3//yqKfEEaDwAoCOFYfhovBeGTiD7niSXpAKD2IX7dleniSW5DmCZBCkS4b5Ljp3l0kmOnGA2mYkKD2QjTAMCTuVxJPABkBuJnZPDikTxkN4QtRHyhCGExwi4pKal8hI8hbITEID7yZH5m7F/yxP8tZ6wsJ5cbL+Pps0wJ3kOYJk7mZv2f1/G/JSVZOrOHAaLkBIlPMGKVkDvrS0r1k7EoNiBwhoX8qfgpTpD6hM0wL40dPcN8roefbG1ygP8Mxwm9OLI86ZzQGRakeYbMsCQ1WLZXnITNmmGuZHZfaVKYzJ8g4MjyZyeERsxwhjA8YIbTkkL8ZmPYMr9EGiyrXyDydp/d10t29pS0v5xXyJGtTU8I9ZGdnTtbv0DEms2ZFimrjS/w8JyNCZPFi9PdZXuJk4Nk8YJkb5k/LSNEtjYdeZCza4Nkd5jI9Q2aYcAGqSAZUQlgAH/klwcA6YLM9MmDsFPFWRJhfEI6g4V0mIDBEfHM5zGsLKysAZjs1+nn8JY+1YcQ/fqsT/Qn8oyrkB7ZMevjNgPQxEVar3bWZ2AJgPw3AM6+4kklGdO+qV7CACKQBzSgCjSBLjACZsAK2AEn4AY8gS8IBKEgCiwDPJAAUpDKV4LVYAPIAwVgG9gJykAl2A8Og6PgOGgCZ8BFcAXcALdBN3gA+sEQeAHGwHswAUEQDqJAVEgV0oL0IVPICmJCLpAn5A8FQ1FQDBQPiSAptBraCBVARVAZVAXVQL9Ap6GL0DWoE7oHDUAj0BvoM4yCyTAN1oAN4PkwE2bBfnAovBSOh1fA2XAuvAUuhavhI3AjfBG+AXfD/fALeBwFUCQUHaWNMkMxUWxUICoaFYeSoNai8lElqGpUPaoF1Y66g+pHjaI+obFoKpqBNkM7oX3QYWgeegV6LboQXYY+jG5Et6HvoAfQY+hvGApGHWOKccRwMJGYeMxKTB6mBHMQcwpzGdONGcK8x2KxdKwh1h7rg43CJmJXYQuxe7AN2AvYTuwgdhyHw6niTHHOuEAcF5eOy8Ptxh3Bncd14YZwH/EkvBbeCu+Fj8aL8Dn4Enwt/hy+Cz+MnyAoEPQJjoRAAp+QRdhKOEBoIdwiDBEmiIpEQ6IzMZSYSNxALCXWEy8THxLfkkgkHZIDaRFJSFpPKiUdI10lDZA+kZXIJmQ2eQlZSt5CPkS+QL5HfkuhUAwobpRoSjplC6WGconymPJRjipnLseR48utkyuXa5TrknspT5DXl2fJL5PPli+RPyF/S35UgaBgoMBW4CqsVShXOK3QqzCuSFW0VAxUTFEsVKxVvKb4TAmnZKDkqcRXylXar3RJaZCKoupS2VQedSP1APUydYiGpRnSOLREWgHtKK2DNqaspGyjHK6cqVyufFa5n46iG9A59GT6Vvpxeg/98xyNOaw5gjmb59TP6ZrzQWWuipuKQCVfpUGlW+WzKkPVUzVJdbtqk+ojNbSaidoitZVqe9Uuq43Opc11msubmz/3+Nz76rC6iXqw+ir1/eo31cc1NDW8NcQauzUuaYxq0jXdNBM1izXPaY5oUbVctIRaxVrntZ4zlBksRjKjlNHGGNNW1/bRlmpXaXdoT+gY6oTp5Og06DzSJeoydeN0i3Vbdcf0tPQW6q3Wq9O7r0/QZ+on6O/Sb9f/YGBoEGGwyaDJ4JmhiiHHMNuwzvChEcXI1WiFUbXRXWOsMdM4yXiP8W0T2MTWJMGk3OSWKWxqZyo03WPaOQ8zz2GeaF71vF4zshnLLMOszmzAnG7ub55j3mT+cr7e/Oj52+e3z/9mYWuRbHHA4oGlkqWvZY5li+UbKxMrnlW51V1rirWX9TrrZuvXNqY2Apu9Nn22VNuFtptsW22/2tnbSezq7Ubs9exj7Cvse5k0ZhCzkHnVAePg7rDO4YzDJ0c7x3TH446vnMyckpxqnZ4tMFwgWHBgwaCzjjPXucq534XhEuOyz6XfVduV61rt+sRN143vdtBtmGXMSmQdYb10t3CXuJ9y/8B2ZK9hX/BAeXh75Ht0eCp5hnmWeT720vGK96rzGvO29V7lfcEH4+Pns92nl6PB4XFqOGO+9r5rfNv8yH4hfmV+T/xN/CX+LQvhhb4Ldyx8GKAfIApoCgSBnMAdgY+CDINWBP26CLsoaFH5oqfBlsGrg9tDqCHLQ2pD3oe6h24NfRBmFCYNaw2XD18SXhP+IcIjoiiiP3J+5JrIG1FqUcKo5mhcdHj0wejxxZ6Ldy4eWmK7JG9Jz1LDpZlLry1TW5a87Oxy+eXc5SdiMDERMbUxX7iB3GrueCwntiJ2jMfm7eK94Lvxi/kjAmdBkWA4zjmuKO5ZvHP8jviRBNeEkoRRIVtYJnyd6JNYmfghKTDpUNL35IjkhhR8SkzKaZGSKEnUlqqZmpnaKTYV54n7Vziu2LliTOInOZgGpS1Na06nIYPRTamR9AfpQIZLRnnGx5XhK09kKmaKMm9mmWRtzhrO9sr+eRV6FW9V62rt1RtWD6xhralaC62NXdu6Tndd7rqh9d7rD28gbkja8FuORU5RzruNERtbcjVy1+cO/uD9Q12eXJ4kr3eT06bKH9E/Cn/s2Gy9effmb/n8/OsFFgUlBV8KeYXXf7L8qfSn71vitnRstdu6dxt2m2hbz3bX7YeLFIuyiwZ3LNzRWMwozi9+t3P5zmslNiWVu4i7pLv6S/1Lm3fr7d62+0tZQll3uXt5Q4V6xeaKD3v4e7r2uu2tr9SoLKj8vE+4r6/Ku6qx2qC6ZD92f8b+pwfCD7T/zPy55qDawYKDXw+JDvUfDj7cVmNfU1OrXru1Dq6T1o0cWXLk9lGPo831ZvVVDfSGgmPgmPTY819ifuk57ne89QTzRP1J/ZMVp6in8huhxqzGsaaEpv7mqObO076nW1ucWk79av7roTPaZ8rPKp/deo54Lvfc9/PZ58cviC+MXoy/ONi6vPXBpchLd9sWtXVc9rt89YrXlUvtrPbzV52vnrnmeO30deb1pht2Nxpv2t489Zvtb6c67Doab9nfar7tcLulc0HnuS7Xrot3PO5cucu5e6M7oLuzJ6ynr3dJb38fv+/ZveR7r+9n3J94sP4h5mH+I4VHJY/VH1f/bvx7Q79d/9kBj4GbT0KePBjkDb74I+2PL0O5TylPS4a1hmueWT07M+I1cvv54udDL8QvJkbz/lT8s+Kl0cuTr9xe3RyLHBt6LXn9/U3hW9W3h97ZvGsdDxp//D7l/cSH/I+qHw9/Yn5q/xzxeXhi5Rfcl9Kvxl9bvvl9e/g95ft3MVfCnRoFUIjCcXEAvDkEACUKAOptAIiLp+fpKYGmvwGmCPwnnp65p8QOgP0XAAhdD0AAopVuyAyCWHnETo5EoW4AtraW6czsOzWnTwoW+WLZ5zBJ3TY08E+ZnuH/Uvc/LZjMagP+af8FgMEEHYvHevkAAACKZVhJZk1NACoAAAAIAAQBGgAFAAAAAQAAAD4BGwAFAAAAAQAAAEYBKAADAAAAAQACAACHaQAEAAAAAQAAAE4AAAAAAAAAkAAAAAEAAACQAAAAAQADkoYABwAAABIAAAB4oAIABAAAAAEAAAHcoAMABAAAAAEAAAHMAAAAAEFTQ0lJAAAAU2NyZWVuc2hvdDx8Kf8AAAAJcEhZcwAAFiUAABYlAUlSJPAAAAHWaVRYdFhNTDpjb20uYWRvYmUueG1wAAAAAAA8eDp4bXBtZXRhIHhtbG5zOng9ImFkb2JlOm5zOm1ldGEvIiB4OnhtcHRrPSJYTVAgQ29yZSA2LjAuMCI+CiAgIDxyZGY6UkRGIHhtbG5zOnJkZj0iaHR0cDovL3d3dy53My5vcmcvMTk5OS8wMi8yMi1yZGYtc3ludGF4LW5zIyI+CiAgICAgIDxyZGY6RGVzY3JpcHRpb24gcmRmOmFib3V0PSIiCiAgICAgICAgICAgIHhtbG5zOmV4aWY9Imh0dHA6Ly9ucy5hZG9iZS5jb20vZXhpZi8xLjAvIj4KICAgICAgICAgPGV4aWY6UGl4ZWxZRGltZW5zaW9uPjQ2MDwvZXhpZjpQaXhlbFlEaW1lbnNpb24+CiAgICAgICAgIDxleGlmOlBpeGVsWERpbWVuc2lvbj40NzY8L2V4aWY6UGl4ZWxYRGltZW5zaW9uPgogICAgICAgICA8ZXhpZjpVc2VyQ29tbWVudD5TY3JlZW5zaG90PC9leGlmOlVzZXJDb21tZW50PgogICAgICA8L3JkZjpEZXNjcmlwdGlvbj4KICAgPC9yZGY6UkRGPgo8L3g6eG1wbWV0YT4K0HeNbQAAABxpRE9UAAAAAgAAAAAAAADmAAAAKAAAAOYAAADmAACPLUIsjhQAAEAASURBVHgB7L33c1xXmqZ5AYmeIAB6C4AEvZdEmVK5ruquqq7p7ploMyZif5nd/eN2N2LWxO70xLStnnIqSZShEb2DIwmCBiToKTH3eU7mgVJsEkgACRBIfCeYyGSam/e+9+Z5z/vZphKjiBEIBAKBQCAQCAQC04pAUxDutOIbGw8EAoFAIBAIBBICQbhxIQQCgUAgEAgEAjOAQBDuDIAcXxEIBAKBQCAQCAThxjUQCAQCgUAgEAjMAAJBuDMAcnxFIBAIBAKBQCAQhBvXQCAQCAQCgUAgMAMIBOHOAMjxFYFAIBAIBAKBQBBuXAOBQCAQCAQCgcAMIBCEOwMgx1cEAoFAIBAIBAJBuHENBAKBQCAQCAQCM4BAEO4MgBxfEQgEAoFAIBAIBOHGNRAIBAKBQCAQCMwAAkG4MwByfEUgEAgEAoFAIBCEG9dAIBAIBAKBQCAwAwgE4c4AyPEVgUAgEAgEAoFAEG5cA4FAIBAIBAKBwAwgEIQ7AyDHVwQCgUAgEAgEAkG4cQ0EAoFAIBAIBAIzgEAQ7gyAHF8RCAQCgUAgEAgE4cY1EAgEAoFAIBAIzAACQbgzAHJ8RSAQCAQCgUAgEIQb10AgEAgEAoFAIDADCAThzgDI8RWBQCAQCAQCgUAQblwDgUAgEAgEAoHADCAQhDsDIL/Oryj55enPt3sx+l8ejD7+9uXRR6WXvNjUNPrydx6kp6teq3pYFPznO///zifjP4FAIBAIzA8EgnAb9DxnrpQ0q4kz/Z9jLvHAx899LAa+r3LvnaP6c+VnIM4KczZXnsj/9778uCndp7f5HO9Lr73w/ry9uA8EAoFAYL4gEIQ7x8/0vyJJjicRKS98DZt+U7l9zf+f89jnnn3jfan4mvtnPP9NujUVPFX+LA/yNqpJtxn2bIZpvZdE3+BPeq6pVLz5RlG8yXMLeOJN3uP/3/Ce2xu87vPps35ezN1Gxr76cX4u7gOBQCAQaDAEgnDn6AmFG9OQEBMpes8zKtdniVSbiidfF8WjZwX3peLxN03F4/T/UvHgaZFu97l/5Gs8/5QP5889g3CfQsaStQTteANSlEAXeINMFzZDojwpoS7mtmRBUSxd0FS0LPS+/NjnFr9RKhZzv4TXFr3pZyFn3t8MWSflK9lWEa6PYwQCgUAg0IgIBOHOkbMqmaZRIVbVqGT4NfL0KWSqapVgJddHXzclQh2BRSXXh9weQ7yS7yMk7f1nTcV9X6s895htPJakuUm0T71/DmFzL+k6JNyF3iqEuRDSlXwXSrg8XgaZLoNUl/Om5QtKiWAl3ETEkPAyb4t8DTJ+s1Qs4r2LEwGXSTiTt98zSro+Ln99/A0EAoFAYM4jEIQ7B06hZJuUrPvKfyTBZ5DkI4jzAcQ5AqEOP+b2qCiGHhTFrYel4sajpuLO4/JrD3nPU8j4GUSczMkVUpVgNTV/zcbdPpv51qzs85X/+7WajuHHUXOy/4dn001TsubihTDlIu41J6uCF0Csb/Ih1W3LoqJoW9xUrFlSKlYt4X5pU7Fyaalo57mWRSUIuQllXILQy6o5mZzZbrX6dT9iBAKBQCAwVxEIwp2lZw6+S+TqvQSr8lTBqlQl0JGnTcVdCPXOo1JxF3Id5vEt7ocg23Tj8c0nkDCMeo/PPeTzJdWqt7Rx7qsH5OZAwKaBaK5tvGpbfh7ybYJ4WyDdNZDualTumsWlRLYS7ioet3PfvkQyLopWyLe1Qr6LNEdD2BKwpmwJ/jt+39r2Lt4VCAQCgcCsQSAId9acivKOZP5ScZbNxqXiCUr2HuR5BwV7436puDZSFH0jpeL6/aK4+bAo7kG2DyDgZDaGXB+hfiVYzcRug/8W8HQamVAr/532O4lbMzHW5LKvVyXME0tVvt4WlooVEO3qpUWxfnlRbFreVGxYURTreLwKIm7hNZVvDrqSdx2jZufyf+NvIBAIBAKzHoEg3FlyiiTaTLKqWf2t+l71w2ouvo2p+AYEex3CvSrh3isVAw+bikHIdoj3qn7LUVPlA0JMFt4kO9UhLtk0EI4zMiT5PCR9zdXeqp9P4coo4HXs1EaIdSMm5kS4LTxuQQlDuquXlRVwCyZn/cCS9EJuo6o3f0ncBwKBQCAwyxEIwn3NJyjzkmSbooQxAd990lTcgGCvQapXhoui/14ByZYgXUzJj5uSz3aE96lik6mZzxI0nHyu+XDgpNEh6b7OUU2yrguqR/IFs39GOi+DfJfjEF4OsbZgbl4F2W5oQfVy62iFlFuakwpuww+sX1hfcTaPh+KtRjUeBwKBwGxEIAj3NZ0ViVaSzf5ZFe2IZmPU7BAqduBuUfRCtJeHS0UvZHsNAh7k9fswlr7YrGAlVtXr6ybVycKYybhaBTdBvksg0/UEWm3C1LwZwt3S2lR0rmgqNkO861DAq3jeQCwjnU03CsU72TMQnwsEAoGZQiAId6aQrvqeTLYWnniMUh1GtQ5iLu4bfl5cQNH2cbuKur35gMAoSFY1e5/3pkIWfFg1m4cm4mwuzs/NxftMvO57XkCYhqTqNa+3jf+sxuS8sUK629qaik3cNkLGK/H1LmUFYppS5BHNxbMf+xwIzA8EgnBn8DyraL2Z52qA013UrEFP11Gw/ZDslbul4sKdUtFzr6m4ZrQx7zGqGOtqOUqX/85VJTtRmDMBq3zTgEzbId71RDVvwr+7FbLtQPV2tGNqhoTXoHhXEOls3q85wpqqw8w8UdTj/YFAIDCdCAThTie6L2zb0ormz+qjHcRs3AO5nhkqiot38NdCujcJghp+YmEKKkH5Xm4OFe18IdryEX/7NxOvx4/bNpmaJdX2KsXbiZm5exUm53bImAhnfbw5nejbLcWjQCAQCAReLwJBuNOMv4o2+ScxCVv1aZi8WdN6eiDZC7dLxemhUnHpLgTM87cgWtN29MvOV4Id73RkAtbP2wbxrqWIxhYU746VTcVWbt2ripRWZEGN5eT0LiIIS/8uXB0jEAgEAoHXikAQ7jTCn03IBkRpPh6AaM/fxGx8G1V7i2AogqJuQbT3IOJHEDLiNg14JEYNCFiTeSm3Vvy3K00rwp/bhcrtXlkU21YTbIXaNbXIGs9RsaoGQOMtgUAgMK0IBOFOA7xZ1T5R1RL0ZKnFfqKOL0G0ZxPhomoh2+sUstBs/DpNxlkxTgWGHLT1OhYK7r/BUpaUXIsPdxME24V/dweEuw212wEBryG9aDkFNhajdsO3O5UzHZ8NBAKBqSAQhDsV9F7x2XKqD2UX8cn2QrQXINmTNyBZTMg37lN+kWIVI6heVe1MjxcJNgclWZSieuT/58pUudSj6UjVw/9nwtUU/uKYKdO4RGoq0Qp2YjVlrdYvLxUdEO92iLd7teZm1O4y04jKJuYX9zP+HwgEAoHAdCMQhFtHhCUvU31se3e7omrPEhR1BsL9Cl9tD6rWDj0WrMhjOgjpRVL1uzIp+tjv1Bxr2o0lF+GgUeWn6RXeSiZY3vKdYQwXrW3L5Zi551DK5Sd5nBoqcE9hrNFykn64OoXJ/7sf06mEJX27F7XyJRsh2G34dSXdPevKEc2riXK2sIaRzPp2YwQCgUAgMFMIBOHWCWl4hm481DXGhHwNYj0LwUq0RiFfQeXe1lcLQ0lML1ZbqtMupM1ItilIq7LRrFQNMpJoczu9FbCsTQVWYGq1rrEFJHxNEpKM061CxG7KbbrtTKzpnoWDKt1+urb88/jukzP8gOfKLf7YHp/hqTRUw5K7pDgdC43yt5SjmY1olnT17ZpGtH1VcyLeXRCvkczm7hrtHCMQCAQCgZlCIAh3ikjrr5V87CmrCdn0nks3i2RCTv5aSzPiq1UWSlj1JBq3Vz2yitWnuYzbIlTcIr5wKfc2gbf7jlWZNKv6f2sTq/bsY7vI1zLRVtSf+6qp1pH90vqcE9ly72PJNhEuzG7t54eQ7mhTe0jY1x76Hnb2MUT8kM+ogq2WpULOUdn1Vr4qa0nXNoFrqEhltaptpA7thXBVvFtIJbJalSUifU+MQCAQCASmG4Eg3CkgnEnInrS3KL14mVSfE9dLBEahavHXDvDcHUhoOny1km1WstUqdjmEugoSXYuysxWevWfturMScmmHeFqwIS/Flvwt+UJKELAk/SYspbLlX+pvm7i2QrjWLOZfYS4x/5Jq/QaWtPqVucU2T7DnruQq8ZoCVW4fSJtA1H26WbaS2x2sAEO8T/O7G5XvsPTWXfmqpDWRJ98uC4z1YGCxjG5NzGuNZKZUJGp3BZhEkQzAihEIBALTikAQ7iTglXgkWwlDcrFl3mUikM2p/fI6QVIQ73UaDdzVhOybGVNVtqpBVRs8lYZBTHBq0QJb2UFHldoC0Vr03xxU292p4DLh2nO2lSje5ZCu5RJVdW+yU96/gWPWBvJlRVuVQsP2vzP4fg+nvNAopWOT9CVhyVfFa2T2k2eYlVG3d8lzsqXgbW4S7m2qag1xMxf5HsRrAZAHvpeDUv0CWTpGtylZOqaKm9vIxGulqtVg09FaKnavK4rda5qLXRDvBmozi90C3vjiIfv5GIFAIBAI1AOBINxJoCgh6JccgTRuYEI+D9F+dq0pEa5RyUMQirWPzatljp/ykGzzd7LpsgSFKDdDEltIedm0rETxBzrrECS0ln6yEq1lDlWz9ptdDGtpSpZcF2DDlcT0pWov9rEPR/NUK//nqVcOdyErXh9LwN6y6v6GnX2m+hUDbtaL1rRscwaJVhK+ySLl2n3M7eA3wH0PRNzL61+ngy0TLRk+yaRdL9LVP+1iYzWLDrsQWZ3qwPomSJco5vayFWAUB48xRiAQCAQCdUQgCHcCYGZy0XxqJLI1kC/cKIpTN54Xn18jUGq4XJrxHiSTfZ9TIdysjlW1bk+fbBvE2YpJuJXyhUbcWuzB22YI16btpr60JqIt+2wXwFZ+NptMR+/zccu2jMpd+T8T+CsmaYw+SFyclPAoKfPa15Dw06+bko83KV8I1vKWth60IIi3ISTuvUdiiApG+Q6DY05LUqU6pkq+bscoZtXuFszJuyHbvdz2b6BiFX5dOxC5OAniTXDHn0AgEKgjAkG4EwBTlfmMP3chBdvnnUPZfn7VSGRSfiCMQdRb8mmyzakQrbuU1aKK1gjjN9lgN8p1OyRhYYcuyGEjJLsagm3DT2thB32zkoXE/Aa35I+VbKuPcYoEW72pVz0e5d7KA+/KZuhyoFXZ59tUPGLRch9iTYoXsh0Ew34aN/TQkvAr8D3LcxYO0WmMmC84zJTG5ALCRchkh8FUBoitZKOmDnWTOrRvA+RrQBWPxVQ1nBdNk/2e+FwgEAgEAtUIBOFWo/GKx5kwNI3aAN7WeadVtoP6bDEpQw7DkMcjiMFJerJkW+2ndTuaP1ewsZUo1vZKa7puTJ/lTjmYjyGGFfgklywoYSr+VskmdcbnHZW78n9e89+Mo7uRCfgbVhYPUb4jFAO5heodANtLLmbwiffRPWmYQiG3WMjchJg10+eoZrcxVbVrWUgLZRjBvJMAKgOpDmxsLjrbUMCVtKFQuiIdIxAIBOqBQBBuDShmZTtM2k8/6kuy/UxlS55tL6rsJiosvYdtTZZsVbSqNuplFAZEqVR3Qai7mfy3UZ4w9X9F1a7FbLwyBT9ViLYSYfwdYuDzs4loqyGWdNPggY+T75eFylMAeESglRHft1nUGIhmPrO9gS+A+TEI+DjPvcHCJileyNKgMUkXqCaleF3UuI12lO5azPP6cQ+sL1Lq0M41ZRN9KN10tuJPIBAI1AGBINwxQMyEoM/WgJ8BFNdpopBPoGw/Q9lehBCGkaWpHjIT92TIVqJ1SLam5hh13IofUfXaiel490pNntYEbk7PtdIBxxzaZthCwvgO0aYtzb0/GWcXLfp6nyTiZSGD4u0H84ukWJ24RdoVxHt7BB8vavgegBmUJtk6pqJ2NS9rTdhMAJo1mPehdN/e0sxCh3Oh0uVLxDlGIBAIBAJTQSAIdwz0JACLPAwTVXsVpaWv9uOBcpnGK5DtoP7Fypgs2cIdhaJNVdsJ0Xbhl+1uLxV7MXFug2g3kzdqis/ySiBU8s9CEGn+l3DzDszxe2BIktd7MX+aopuNBMfUDP7XMDVfId3KHGcJWDP+BUzNmpj172a162YmOly4eDOQyvzlnasg3E0QLxHMmpr16ebFzUS3He8PBAKBQCAjEISbkXjhXlNn7vZzncn+zGBZ2X5yjcIWkO8Qyta0l8lM9NlX61daYUk/rRP9ZkoQGsCzgwl/NxO9UbPtqfavebKNo2hfgPpf/VfSrfbxamq2iMZVzPfnIdzzqF3bHF5m0XONqLLcR9gNqXgno3Y9JxbfsEhGF6lVqlzNy29txqeL0k3Ry7wWSleUYwQCgcBkEAjCfQlqebK3h+0gJs1zTO5H+5uKE0PPi3Moq36etwiFt4lO7tW+2hwpux1Vu38NPluIdge5oRtRtVaHWk4RC8swvulE737yJ92/ZJ8b7SlJN6UV8cDIb328IxTKsCb1dYi2F5/uaXoKf0wXpi85J+b3vsECaDnqXzU60fOS8TOCeRULoPWYl3dhXn53M2lDKF27DVl/OZnw58tJyKDEfSAQCNQFgSDcl8CYKkgRFTvIxG5RixOo208xJZ++01Rcx3F4l4l9xSQm9Uy2WIeTklpF8JOF9Heiag9R+WiHqpb/t2NCXijRajrmvfNdVUm+LoJSIQ0ixe9VgqpUuh/jSzd47epdyJiIsxHOja6AyZKu52gxuK9gkbOVk3yAdKGDEO6hjZwbAtisPx21l1/yo4mnAoFAYFwEgnBfgMjJ/SGRskOYLy9gvjwK0R4nSOr0bXrbMqEbIOVwQp+I3zaTrVHIG5i0OzFbbsdXe4Dcz50oqa5KUNRygqIWQbaWWuQr5j3ZJrD543lJlgfwfwKYD1C7twCzj0CqcxDvCSLH9e9ewiLRh1PcnN3JmPvz9+FOJx2L4hgtRC1TGOODDhsfsEDCzG8qVoxAIBAIBCaKQBBuFWIqI4N1blFq8DLmypOop48HyLdlIpdsLbivn28ifsLsrzUK2YCnlbD0ZshW8/FuiHY/6sm8z9WYMFVPpqHMd0VbdUpe+rAczEYaEcR6l4CqPiwRJ7FCWMs6FSG5BxmzaFLtZm6cqIk5K902zslOzs+RzUVxiGpUnq/1uACin+5LT008GQgEAmMgEIRbBY71fvUF9hENe0xlC+F+wUR+jhKOFrVwop8o2SYS5zuMQt6OCXkXk/ducjwPM3Fvg3SdvNso02ibuGxCrtqlePgSBLLaNZr5ScXEPOgi6fZzymw2cSNvd4iFEpWqVLpw5qQrVGnJ2IiJfxeBU4ch3A+7DGrznEHmLJ54OUYgEAgEAjUhEIQLTJoqVTSqJSOSz2Ke/KS/YkomIOcK6T/w4qTJthWWtidrN+bIg+uaMVGScoIp2RrIy3g+avfWdK3+qzdl4n3GQsmuTYMQrG6Ar3ABHMUycY6F0w197ryu0oUfU1T4v9rQK57QOuGCyfrV62DuAwS2/QDCPQDxapVog4ix/if3wis2EU8HAoFAIDCKQBAuUBgF+7gSJHUOsj2Gsv19CpKitRwTuf1sJ+IPzBM1H2U2xiRJHud+olz34Qs8hLLdirK1q4+pJha7yP7a0bMSD2pGQNIttwcsN5S4Ben2QLRfcQ71636KhcIKVRgRJqV0PZeaow2k2k4Q1TsEUb0F4b6NibkD0l2EZcJzyFtiBAKBQCAwJgLzmnCzQnrErDpMVaPLFFT4AmV7jGpSn2KSPM7kTQxTmqhrDZJygnZ4vxJlZH6twVFvQbTmdu6yZCCRyEs1Ied0n/SJ+DMVBDyXRjE/YuF0E/OyRTJUuvrgTxNUdZ10ojuclMkqXQuUdLBA0p97cENz8cNOXQP43pcbuVzVQ3gqBxGfDQQCgYZGYF4TruZCXIDlwBvyOg2S+qiPYCnI9gpkew2JapDURMjWbeqvXYjq6SYQ6gBqdj9EexBVZC5nCo5i4o4avfX/XYm9atcoc5vd25v4FOf0OCr3DyyivsAXv4TX9el6TmsNpHLx5LYt/2ijeq0VPyRq+TCpQi6g1kC6cT7rfz5ji4FAoyEwrwlXU/JDFNFVolzPXMOUTBWpjzAlfzWMKRm/X4nXazUlOylbCIN5PpUI3GiAFIE270C0Fk4w9WcdPtvFleCoRruQZtPxGEyli+D2A0iXc3kSpfubPhQv/t3rRJtnn26thOux5bQuOjMW+3EHvLueyOWNRfF+RzMpXSzMIOKwWMymqyD2JRCYfQjMa8KVbG8yKV9kIj5qkBSEe5LHF2VNRi0Ryb4Hbk6F9P3MU5TtDoJpDqJsDxIY9TYqyGjkUWXLhD0TaT9w/3cGXztvRq4UptK1124v5uUvObdf6irg9hVKF1E6IZUreJKupuW1kOsmoujegXR/1l0OgFPlhml53lxicaCBwKQQmJeEmydkJ+O+O+bbFsmUbJBNDwE2g5iSl0GctSogJ2I52k4/q1G2e/DzHSG4xpzNPQRKrcdnm9N+JnWWXvEhSTWZxVF0X7MTKruvKc6sWdXnfd1jleA1oSYzKsf1JlL8TQ7ONCSPcSYWAK84hGl9OildfAb6dC/hMnBB9TuU7kl8uneIXn7ESmkipmXPs7gaCLeMkOe3WEj9bBuLqk346UkVisb103o6Y+OBwJxHYF4Sbp6Ircl7GnPjsWtNxW/6yeFECd1LDrvaJ2InYRUuXeOKXeRm7odsrR5lt5lu/HvrMT+ugISng9j8bmsMP6S4v111HrBQeOyNY3hGAJEm8xKM63dLsAuR44sJ8Fm2oFSsIM1l2cJKrWYIpBFHXljZY9fm9pcgWiuHHdN9gJ/+LObliRYyEXPHEzDdg8p9n4XVOxDu+x22Uyy7DFLxkvLb4m8gEAgEAqMIzEvCNSrZnNvLqNsvCJL6kgn4Y9RtjkrGIlyTunXy1cRoh5k2FM/2VpQtqtbau/uYiDeSRpJSf3i9XsP53gWDBR8ePoVozTOlWIfpMHdwMEq85qTa6UjCfQ7rqOIW8mcJptBlFHK20IYmbhvZZ+K1dnNKUeK9jaZ4c9rX9RF89Zxnz/fv+55TG5sFFqulifYz9ryTrl1sWVSOWn5nY3Px020QMAssc3OXcC2IIf9iBAKBQCAwisC8I1wJ6x5k208N3lNGr/aW8zXP4Nfre1IucGFzgfGGk25Sttxvg8jM0dxHmsgRusvsRuFuRu20o3jrGb3qvqvaVGz6nocwlQ4x80skVlqyYbum0vuqXAgXF/WoSdmo6eUQQSsHt5r9WgsxrEWhmaJkMNcqCLhlUYmShU1pn8c7/rn0uph5vu5zfq/jMtCq8dseiJf7i8NcC+DF6atpkeVxJyMI21sCpi6o3oJof4Fp+S389R0EUNl8QqtCoy1c5tI5j30NBGYjAvOKcPW/qWZuQK7nKP93YgClQ7DUSfx7+m1r7QKUJ9wUVIV63QFZHYZsU//ULU1ErTYlsl0EwdVjsNuJOK3zrNn4FqTRA1FYgrKf1JdBjmdIhfu4iVxTagizErAUpYTrosD9tBXgcva1lSjpVRCr7f9sQbcBwt3cxgIBolhL4E8LYdlL2W9rBTdaQQ7N7OIndp9i2fgMn+7nqN0L4CchT6Tdou/XrKzv/gPaKf64g1Z+mJYPadng/1YPc7EVIxAIBAKBjMC8IlzNrKoc1e1xiPYLJtuPualuJ9IFyMlWk+IqSGkTvtA95GWaImLJvx0ESUlc9Sxu70JBM/IwynwAgrWxgi3pLrJQ6GPfbzxsSgUfPL4nFaLNi4J8ojUrq7qsLbyY/V7KbSVqd92yEo3uSVviGDpYKGyAfNdQGatV0yik0Uim0Yyj/tzLYPfF1VLxqyu4FG5yPjHFi1/GKeM21j3GhAL4i+0sXvYRQPUehPtTlK5tFlPJTjAOlTsWgvFaIDC/EJhXhKspVjOsPW4/QeEYPHOcQJqz+EBrrZUs2aoaEUpFZyUi+eDa5uLIFqtI0XoPP64qEV6ry9AcKhGMsFCQbE9hBj3H/p+FcK/QFaeXCkpXE7vydbxXUnVg5f7OcH8d7n8avG8lhLAe0t0M6XZBuirzrSjdLdzWY2ZuI6JI0jXYqlFMpB6+PvxbmOTPguOvrhSo3OfFJawFPVwHrDNGMUw4jfEnL7zawWczWFn28c92kA6GD980oeW5AlW9LoYx9iVeCgQCgdmPwLwi3Fy+MaWH9KByiVTtZ+K9DoMarTqe79YJVpVE5k2xgEl2HyxtAQTbth1C3ei3Xb6I7UBk9RiSrbdhiKAPM6hdcGyqcAqiuMZ+34KEH6toueXBbo05XCxUD495GR/St7t5eYnSheQNQ7hdKN5Nbc2JOKq7GVV/dq4+LgdRFTStL5fx/Ayla2GMz7B8LAbvWk3L2YqgKvacH1ldFH/aDfHix+9eiekeS0GKWOb1GIFAIBAIzAvCzabEQezApyn198XVovg1Cve4UarMmk8hrFoqSkm4RiXb/WctZsT9mBE/hGj3EyyzEzOidXXrGSQlMTyBISWG49fLxRs+sakC5HuL/dZ8PNG0lnzJeyySL5kxBQI6hdR2sljQH925olR0QBidkK/Eu4HjUu0uqwqqmsumZhcxXhOa6K1EdQzC/btLmJZZyIywuHkIINlSkPF61X3GUdPyESKvftRZNi2/jYthE/iFL/dVyMXzgcD8Q2BeEG4OluklDegYRGugjL7bkwQfFRV1qEoZK8YpT6wSlH1t96ICNR2+jyl5B1GqazHBLkcl1ouIJAULM5i+ZFP1X10umz4vs0gYgBQkDNVsUtuTvG5VaKo5iVeTs2b1FFgF8a7GtqqZeQ+Lim2YmlXvazjGdpzAljGs58Jikrs/pY+Jr/2PxVfz/K8uge/V58UF8O0H3/Guh+ovT75crqNtLsJQufpy/7jiy01pYZyoELnViMXjQGB+IjAvCNcSf0OYYC9AXEdJAzIP8xhBM6eZbGvx3WbToQT3BqbD3XzoyDrbtGFOZnLdghqsZ76tZODtDhO/Uchfomr/+0WU+Q3SgJDYE20XWMul7YJC9Y5LGLap5BVDurtbIZKK0jWaeSP/X6XapWjGwkprOslpLg4D0Swc0o/K/aQfkzI4fzZAH13kqtaFWkcm3NWs2DZhIXiX6+Iv8OUeYEEW3YRqRTHeFwg0PgLzgnBVMVeI7LUb0O8h3OMQ1yUI2GAjCbcW361Rya2Q7SbevHtVqfgQP50pIDuNSmYj9VR8kq1kYFMFGyp8Cgn8D6Jpj6HQVaSOWk2e5XfX9lfSVTk7yDAq2jneVZDIRs3MEO1WlO4OTMwphagSVKXP2ojsuci54uzx2lnoEq0ZXdj802XSxYhaHkHy12paHsWNhYq+3HfXFMWf7yiXfEwpYixc6nl9lM9Q/A0EAoG5hkBDE26eUG9QGOIM0b2mgfwGwv0KdXuHCfUOpFZLwYOsYPRx7uIDB1C3H9Cebd96CBgiWqEDuI6jXEmqTAL/coniHKYw4cM9iwl8uZM6X6cpeTqGhK6iH1W7PN4E6W5B1Xbg25V0uzAv69vd2Nqc6ge3EGm0iBVAJhXN6nNp2MTCqGX75/7TRU33mO1Rube0s9c4JF1N8yNcU+9jCfjpNkzLmy3z2Zwi1yVi8YkRCAQC8xeBhiZciesxJRAHMBkex2R4FML9PQFTXxGElCN7x/PVjU6kTKgHUXofQLYq27ch3C5MyW347RZra67TcJGQfM5PiuIEUcn/z9kShEuUMhL7Bs9NpKnCVHbJ43ZIIh7eYsjCXrArWVxIvHsp1r+d47eykilE7WCTzMwV4vWzc2Xk0o/6x3+PJeEzrpFjLHAu6eOfwPCausttJ9HJR1iMvYsV5IddzeBEcBvYLYB0YwQCgcD8RaChCdegmHuQlObko6QBfQ7hfoo5+TgmRDhi3PZ72XcrKeu7fYsgoh8wib6zsVTsIRXInNvF1CCul3JxepdwH6G4TGFyf//3U6Xif6C4HuHP/Ybo2bQvE1CQHoMDkTqhIclKtipeFT5rlLLdGBx2ETS2j2PXt9sJ4Uq6+nftlrMC+b1YcoGg50qlqmwJGcQScgKV+zkWhd9yvXwFAVvdy4pdtYxEuLx/PZaQbvB4f1NR/BtMy/twO7RWFmZzTf3XctzxnkAgEKgNgYYm3PsESzmJnkcp/qFH1YL/FrV7CfKaiO/WilLriM49QATqj1C2KtxtpAGZZykB1msSdV7Xp3if/buGuvoMZft/nHpe/PMgiwPYT/KbiO82Lxi8FMZT8mNdLlnl+x6trKrs1TDyajDZtALfLibm3UQz669U7a6kQ9JySFnln/AZa+Oz5DVJ9x4rC4PUjqFw/+E8PnMWZ6k2NSRayxCnByhcG9G3cvw/Jmjqr3dZY5kIbwthsBjxWqnX9VLLPsV7AoFAYPYg0NCEa57lFYJhTqAQP0KxnBiCbKk5XGuwVPbdbkOx7IBUDjGBfr8DckGxpIpSOlPrOLLSsk+vE7/VsP7P08+Lv2fiJ+6mIA22ZsLNClXS9fYGn3X4vP7fiSpePyuhuCAwktnHy9nYBk3MLdUFM8qRzJa3bIWQF/NFqczlHCCaZBFhsWOBkb8/b+nH55jyywVGVPvjjYyPAWfWWf4ZwVN/BeFqWt7CYiQ1NVD581qMQCAQmH8INCzhwgepjOMpVO0xTIQWurBJwU0kWi1pNU6eTrIWNMi+28MolbdtToDvMpsI63nJSLh+b46a/ZQAr//rbFH8C3mimsBr5XdJVRVV4kYHvxQAZcStpR+xbBZYwSeteN0/h8QrcUsebXzhKoh3C5WqdoBNNybmbSjeTZjgVxJsZVDVYlKIbHg/m0cKVgMn2zb+9lK5d+5XLHauYG3w3NRKujng7HuYlX+xXcLF580izc5MjdiNaTaf09i3QGA2IdCQhCsZ6E+7Zuk+yNbcyl9z+5z/6wdV7Y1lYq02xZqT+jbE8SOI1upB+7hl3229CSQTrq33zkOyEu7/C+H+D3zQLexHrYSbjg0iXIa6NMhJM/Q9zOsjHFju/+pFWA+1m3y7boz90xKwnZXBNvAyitlKVdZlXpcrVVX7dtkn/s2qwWWRiDWnY2nS/0Pv8+IsbggXaRP15R7Ab/HhZgKoULg2qDe6e4kLD0zOMQKBQGD+IdCQhGuUr6kePXeais+vPE9Rp3/AD/olSmUJs6pEM5YvVBVn3q0t7VZDIu+g1n7aiS+OIhfb9d1CIH6+3r64UcKlwYLVjz6BcP8rhPtrzOK1Eq77bsCSZtxOfKmH8DtLvEOUyLL+8iW23fukXBbShQcCdFw8XvWzyGo3Kz8XBFaqaufB6mU0RIBw7aLTTUSzQVV2IWrBt2mD9pxC9Kptv67ngaTQpH+FgCnzcn914XlyRdxmsSLp1jKSK4L32txiF/h/sKm5+Fk31cm4dvRt2wwiRiAQCMw/BBqScO0Gc5tJ8yKkdfSyOazcbpIOxHMGS41HuNl3ux5i6IJcD9NQ/sddBE1tIB8VlVLvvNt82WXCtaNRJty/lXBVuBBZLQpXEmyCcA1YOoTK/BMWCmshOpvTXxtBOVOgf+B+U3Gbg7wviWAJ0CIgJpPx7fo5Cdfv1ZRqXWrVbivYbYPw94PXNszMNkTYxOMNKOB2WN40mVxn2IUL/2bNeAgu5uWeJGL5785amYzFCvhJurWMfP20gcEGMPg+181f7uJ8cB21cy5UufVerNWyX/GeQCAQeL0INCThjjDjXSPYxWIXH/WQ6gHhnuH/F1F2tUQnpwkThbITh+dBFNrhDc3F+53WTCbalAlzKW3XpmO8lHDPVBTuBAlXBv3x+qL493vIA+UYHuK71lTdi1q2AftlbMG9EO9VWPIGjImQTy39xjK1j3fMkq7k7eDrUheiDWC1oaJ2t7EA2Inate+uKUQph7liZp5NpPt1spC46DFaGQsJbomLKN5BAqqymk8H+Yo/efHhwmchx/eTdUXxH3Y3J5fEOgqnWJ1LnIN0XwFgPB0INCgCDUm4RifbYPwEyuT3RCefJPDlMibVQRTKeJWlFDGShhWDDqNOvoc6eQe/7VukA0kUK5gsp8skmAn3ZkXhfoxJ+W8lXBSuZSU1FY81RgmP95VQVz/fVBT/+SAqE2XluM+C4zoLjz6CgizSfxni7Uf13iDs2K5JD14wmbKJCY9msHM/DDbz/hu+2kpVmymM0dVaSsUybIbQCfmuJ4hoJZHMLYRfLyCSy+ObDcTr+TeA6grX0K+xkByFcE/gkujFJaEfdzzSzdeQi44crfzXEO67m8v5yhGtPOHLKj4QCDQEAg1JuBLWGVI79MH9luhkm8zfQp2MQCjEEL3Sf/udiZLT+wHBPz+DaI0y3UMLvg38fzHEV69CFy9eQS8SbvLhToFwf8FC4T8fMtiLRvKYMeEKGtmXktLtx7TcK+ly6+XxZYjXLjkGVdkRyahozcVj+bpf3P/8f0lXLB2Sl2rOSlVtqL02CNa6zPvwZ1qByeAqg6pMIVq6kIYIfKHvf51DnDwXLk4sPmLw1McET51jgfIQIq4leCpfSy7cfoRJ/c92WuoR0zo+XXNyI1r5dZ7h+O5A4PUg0FCEmyfKQSbK406UAyiUfoJeIJUHzIB58n+VcsumQH2ZNmV/F1PsL/DdGmW6nbQOg6VySs10nK56Eu4TDvIvKoR7hGAvCzG8yc4/A4T7yK7bqDV9uv1gc0XFi6m5b6SpuIGJ2TrTphHpk63GqvrxeMcvWasEJV9N9PchHtWuLL4bU32qVGUKEYRrpSprUptCpAUhV+963WbXW/htL2Bd+MK0sotUnsLEPOyChGOpZeTKU++yULNd3xEU7kEsJnZcysdYy3biPYFAINAYCDQU4UqoEspVlMgXfQVddlC4V8vpQAuYJJ38x1JsyXfL+zTfbkRxvbWW4gVbm4rDKMQOiEGf43SaPOtNuH8G4f7PKNwj7P8K9n0RhAsEqfXcU2pMj1ChIQVTUQBY86m+3R7Ubj/E24+ZeSDJtPKFjjidtOJ1ISP5OuDy0UpVa8F4PeRj3u5elJ+NETZgZs5BVUZav07Svc8FcZ1FyXFcE/94jmsKs7ILEq0AtYxMuPtwTVjmUYVr04ut7aUUBxDpQbWgGO8JBBoHgYYi3FSEHiLpQbV9dhnfG4T7EZPkUYKFljLp4yocn3BRdptgl+04ew+vL4o/2goZ4AOdjspSL15G00K4+HDfQeFKuKqq6gWD6VO2obujfxurgH1hL6F2NTX3kBd1FYU3zOsSjKTpgkblqgVgImo3H2feRq5UtQJCtTxkVwsme4KpJN6tLGw2VboQqcqNtpaYXgfx5lrcp4xWxrSvebkfy8ANVw01jEy4NqbfQ8DdBxCuSne36UEo+QWCGSMQCATmDQINRbhPIQabFVzCDPgJhGs7vqOYAW1WYL6p5RHHGknhQkIW57du8lsbK9HJPDaqdrqik/M+zTThSqC5o9KjZ5iZId6Bu+WgqrLihXwlYoLQbqB2h8EGnphSNLOk6/C708C3uwL2XkPOkyUid0C8diHaiTl/o2rXLkSslGz/N9PNEMoLOBrScw39w7nnxaeVaOWr+LpH979yGC+7y9fTahZwHZiVv7eR9KCdtncsVypbNJlVy8u+KJ4LBAKBOYFAQxFu6msKuZ4fog7xZQoXUAtX/+0pJsha0oGSIsGkfIBJ3uhkK0sZnWwpxxUVtTWdZ3WmCTcfi9wngTykGpV+S/sHD4BbbyWauRe1ex0rwS0WM0Yym7tbPSbDG1ntvlipqhuStdOOje47wd28Z4OMWol2M3fX6l66BVTq0z3EBIMJ3aaK4lcXWcRBuKeIeB+gHnct0crZRbEUhd7Kiu+nXFP/YTfXFZ2mVnJMS0iZmoHDmG6YYvuBQCBQIwINRbij+bdEKH90pZx/exbFdgET4HiEW00A72JO/vFmSvJhit3P/WYm/aVE+U53P9PXRbheK5JuqiUMwzx42lQMY/fVf9kL2ejXNbDKFKIBiPcaeBo4JGZw4JR8u343hok0cqUq6zKvpi7zVitVYV2wUlUH52A1CyFNsalgxgyQrph4TvowtZteZj7uF1eJ7GYBYkDZeNHK4mP3IPNxmwDqF7go/hPpQaaZWVd5OcdZbeKvwBB3gUAg0KAINBTh3sX0aeDPSQpdfHyF3Enzb/G59WEOhUPH9N86OSLuCkRc8QMm+p93WgOXiFrUiPmiM5HG8ToJt/r6zr7w4UdNxRAk2z/8vOi5XcbWghnXHhBshXwzd9f3cjc6Jqp2dWNKuOIvieVKVTa732GlKvy6O1aVq1WpdlNd5pRCBPGiHBNhTbNMdOGheyKlB/U8p1oXrguUfi2E6zEBIxcfhIsf9z9CuEeoy22ksg0wZkqtj56geBAIBAKvDYGGIly77FzEf3uCyVFFYhpHH8/dZkYfK//WyV7zYWqrxsT4U8yZ/4bglndRuDvwt2nSnImJcbYQbt4Pg6qewKZ3ULsphQiiuUz6kEFVvRDvwEMIGTO0+DrGawpRfter/3oeKptK0cytsPEazK6bqVTVSQSzebsGH3W2N5dzd+lCtKDi2331Vqf+ihW6LLVpetDvLmNW5rq6xY6a6jTWAiNfVxgEEun+CWo9tevDTWG7vpUEFczWmtJTRy22EAgEAi8i0FCEmybGXPCil4kRc+gNJOvdGgi32vT3Eyb1v9ha7mPaRUSpE+NMmP4y0eVKU1MpfGEebkoLGiNK+cWL4VX/tza11buGIJ6rmJd7MC9bMKNP0qU85CAyzjxnMZRkHGMRUfkdr/7rNpIyrGxrLWq3A3PyjjaimTk321eVy1VupDqHKtGiHtMZxXyXnellsfHlAL7cC8QFYDmxzeMdFiTjHefosYDNjzGN/7td5HejcLfxWD9uTn16NRrxSiAQCDQKAg1FuAb72P/2M9KBfiPhYga9BRHYks8JWZX6spGDW0w/WU9w1IdrUbjd1L7FnNyBOdOUmld89GWbm/Rzs5Vw9e0+BUOJVz/5DYi3F2yty3wJ4u2XeHnOxY3VvAw+yxkvr8J8PJAkqqx2PXdL8IOuwn+7HpKy5+5b+EN3ryGnFdVrBPl0mvwfoOIH75fzcf/hTFEcu44fGxxUueMRrsfpQsROQz9A1f5yZykR7k72fS0Lhunc7/EwjtcDgUBgZhFoGMJVDJlLegyytcLUb/qeFychgxFnbSa8cQmXCbGF2bODyfu9dfjbtjUXh4gqtcNNi/boGRizlXDzoWt2f8qfVDAD3/gARJt8u+BsYNVV1G6uVPUEzF3I5FELMeX3Vt9LvH4vX8VJpPgIG9pLBJxFSQ5wng6yKOrkHLVhhUhdeKo/XKfHj7iGVPgnKYDx38+UyMdF3WNmv8kCpJbjStHvbON9YgNs03dkC5W21peLfETFqTqdpNhMIDAHEGgIwnUulqzMIf0Coj06UBS/7Yd8maVVt7US7npMl91EV6me/nhrkYr+WwlpeS198epwsmc74Wac7abzmGjmu4/LHYgk3ktGM0O81mWWeAdh2zuQjGTjcMFTCzmV3/3dv9VqV3+oJuYuTMy78Ym+u4nzBHltx0S7isXSdJj+n3C8I6h3C2D8/elS8SmE28OC45Y7U8PIhPsO19YPO2mGAeHaW7mDa8tFQlScqgHEeEsg0AAINAThqoDMlxzAt/hZb7mk4++YFL8gfWORhMsYy7SpEtMU2oXJchdRsZqSf9DVVOxBRWn2W0bgzkyM2U64L2IgEdmB6BZ5qQNYF/ogXLs0qXYHaBd0g4A1I5nv8z7PEQ8nTbp+t8TLKU31rFdhs95BMYl3WRxZevOtzfQqzgSGEq7nMBLbHO8zN5qoOGUFs+e0N9SsXNu3ZMI9iDn8ffbT2tzvdzQXXVxr5hZPd7pZbXsZ7woEAoHpRqAhCNeJ+Cl/LMT/KelAn6Jwf4+f7RiT/kImS/2JtRCuFab2E5TzNhWmPuhgQuexqskc3JkYc41wE4mC75NK7u4tKlVJuj34diVe1e4AfnX7yN6GdM3dtbymY6zzUX7Hy/9mtWsjhC7O127MyQfXlyuC7eJ8rYXU6r1AStW4+OLzQ03lilO4LS5yfHZXEoPxRiJcjn83Zu+3cFO8h7r9/tbm1LihhUVeEO54CMbrgUBjINAYhMtE/pgJ0cneko72L7WG8pcEuixREXGuxprg84S4F3I9gl9QhXuksxxJasOCJZO1hU7wGplrhJsPT86ReEasVAXmtrXLvt3LWB1Uu4P4QDXBPoZ4qnN3JwOtpKvSXc+J3UQFJ4tjfK+z7M+1SEYyLeedq8O9x+aCTpL95/Ms6Li+ztyEcFHw4+Xi+vX5+rKm8gGsJu8TpfwTCNf8Ygl3uvor1+HQYxOBQCBQRwQagnCdwPUp6kP89FK5acEfINzPiJylPG/NhHsAdVQu6YiJUpMfEbAzUdIxn8+5SrjuPzAnYrEL0YMnTSl39ypm10uQlFWqzN8dGCFvtxJspBlfIpuMb1fTtJ81crlF0zIq145IVnB6e0tzavXndutll8jnxRrd/8L1lUs8XmFxIeG6AKhlQaci34sKf29zc/HzbupFs1AIwvXqiREIzA8EGoZwHzHRX7nVVHx86XnxuV2ChlC4EyTctyHcDwnCsbvOISbuLfjY7M86UwokT+yzLQ93oj+FtACCiW5TYukaateazJcqBTP6kKbWZb6L2rVaE6I4tU2c6HdkkrNzUTfn7S2IzEIlH0JkXaTfWIXKohL1GOxiCsq7wjFIuCrckyzoejCXs36omXC3QLi7ULXv48P9Jfu5h9Sg5Tw3U9dXPbCIbQQCgcDkEWgYwjWo5XKFcM3D/RjCPSbhgk2tJuV3ePOPCGp5m4n7AIRrDeVUu5fJeyZGoxBuPg5zdx8iR+1CVCZeGkugEs3ftQvRdczMKagKC0UeEzExq3S9dUNa+1gced5+AJHtoFhJvRdKkq6+6V9fLhPu8WsEiE2QcDeynzvZT9v0/XJ7U7F3bbkpRhBuPvtxHwg0NgINQbiWIMyE+4eLpAVR2vFTCNe2fBMh3HfJ7/yjLUzckO4BJsVN5E0um8Eo0kxUc13hVv9kJCoLZtyBXK1J3HO7XJfZghmmE13nHN0k2tcuRI8h3mY/UOOQbK1I1YEVYjcn+hC+9x9CuLvwk67BH1/vdoq6LH5jUF5fqTgG4doz2O/XPP7GGPbr7MNdz35uRX1rRfnzHSzq2M8W/LoL6VMcIxAIBBofgYYhXBup20YtES4K1z64J5jkJdzx0mjzhPgeeZI/6cCkDNnaJcgC8zPRJShfZo1IuB5brlSl2rVM4nV8nwZVXYF8z3Oeeu9RMAMVfJtzaMGMbC7OuLzqXsLVl7sOWdxJXq6FML6/DeVIqtDmFfrf60tklnf8nYSLSflL0s4uQrg2W6iVcFdDuPbFlXD/ir64+9lfS1MG4b7qDMfzgUBjIdAQhJvyQZmsLzF5f3zhefGZnV0g3xMqXObcWgn3Awm3E18ghLuXSXEjJuVUmKBOvsDxLp1GJdx83JKjlaru0SVikMhlfbv2Ljaw6iKP+yFiy0Nao5gMmjFVo9vMhGtObgcdhPaiGL9HDez9KN1tmG6NMK/nsE3fR5QMVeF+PkDbxwkSrh2QtnCN/Zhr6693EScA4Vo2dOEMpZ3VE4vYViAQCEwcgYYhXCsBVRPu5xKuCnccwlVNaRa01u37qI+fQbhvk7axb2NRbJBwMffZ9HwmRqMTLjCn4CN9u+bu3mFBZJ7uRRZKX1I28fQQBAypXeRcet7G9b2zPUm8jTduxj9qBPD3KFhykIjlbuot23SinqPvLhYUCPdohXAvYhJ/NAGFuxQlvkm3BYT7H3Y3FYdR4kG49TxDsa1AYHYjEITLhF1NuH/SVVa4e4Jwp+3KlSSfQ1R3IdbrKN1zEO0nA03FicHnxWnU7iUKSkyKcEmz+aBCuJZ6rDfh9lcIV5Py5/0sDCZJuD+CcP9TEO60XV+x4UBgtiLQMIRricHLKCV9uJM1KevDlXD14e7Fh7sJP2CYlOt76ariTRt6RFS57RQNRDpDS8VPCUI6g1WijxrFQ9iKJ2pS3oS/dh8KV8I9gMLdRg51vQlXk7IKV8K1QcYFCHciPlxNyptZSWhS/hsIN0zK9b22YmuBwGxHoCEI1yhlg6Yk3I8rUco5aAor8bj1e3PQlFHKP+20mwuTN5OiJmWDphaGSXlK1zEcm0zJ3zY9oAAG5uSrENZl0oQuoGrPcN9D04O7RCAZsVxLQQx4OZmU12Cq3YIPdx8+3O9DuPsg3C7OnQFJ9RwGTX3UU/HhTiJoaiWE28mi7vtcW3+JD/cAJuUImqrnGYptBQKzG4GGIdz7KKZU+KJCuJ9AvgZNEWhcM+G+o3+to6xwD6hwmbSXQ7gzVeu2UX24mpCf8ec+FaiGaHRgCc4z+mshWqtQXYNo70C0tlL0vbWOTLh2D+omSvkgQUjfo63i3g0lfKWYpceLlqv1i3ifu9XLfv+2khb05STTgjpJNfsehPvvdpSjqiMtaAInId4aCMxxBBqCcDXrmYfbc6tcaWq08MUECfctzX0Q7duYlA9yi8IXU7u6TQfSemA60D0c5TZxl7QuUEBCwr0w3FRcwYR8FeuENa/hzRRRrrqFe8cdEq63TtJtdmH+Nw/Xwhc71zUVq1G3BinVa0i49Sh8sZ3o6fcp0GEe7j4qTZUJt157GdsJBAKB2YxAQxCuPsEHRL32Vgh38qUdyZGEcN9CgRym3m0Hk2O9KxaNdTE0ksL1WB7DmkaPD0Kqlna8gNXhFLfLmJJvsRgyaMq2iJKyEcmOsQpIlN9R/mt0uWUdHVsh1/34bN/BlPx9Kjh1U2lKf2m9LBOSrcdjacdfXyrXUj4xCAFPsNJUdWnHX7AwkHCjtGM6hfEnEJgXCDQM4dq84AomSrsFSbiTaV5weDnqY0O5ROBhSjtG84KJ/QYkJU3C5kWn6lKWdLS6FKr2nL5abqd4fAmyNQ1rgURbQ/rPy/YiF8dYhH+9G8vE4bXl8/b+VhQvC6WFMHet5P2y7Vc/53H5ffqbc/OCr27QLQjFPpFaynYL2k0ktc0LfkaBDh8H4VYjHY8DgcZGoCEIV9Ol7fl6K4R7tEK4E23Pt59ygO8QyPIWSundDiNdm4p2JslFdTRNjnU55Yl9rpZ2TOfB/FqbFkC0KsJTFLawU1AftZMHIeC72IDvGhQFgXlTpU4UXs3IEvtyyLadD+/E134EEjuMZeIQ524D5mXN0vyry/C79EFfJIra9ny6LFTqfURZe87GM3/noLxuQq/3szCwH+5Pbc8H4Ua3oLqcothIIDAnEGgMwmXSs19pH4SbG9DbD9cG9G/wmk3Px1I7lubTtLkTcj1MaslbTIgfQLj2K10JCZsaNBNjLhJu2mcWPE/A36CoO0i+q5Cr5JR8tTexPFC68To+3Lswk37a8QpajIe1alOSMzq5AxKz6857nK9UYWoa0oFcSHh85282Ff907nnxKYRrwNdVCqtMhHB3cS1Z7MJKZj/qpAE911c0oB/vbMfrgUDjINAQhJsUCJPwABGvn/VAukyIvyeK9AtK72m2VEnVQridVitiwrYB/Q9IL9kN+a7BzLxsYRDuyy55ycbbAxvPYyaWaPXTmuZzEVXbj8qVgIeRpA84DxKlY6KKtvyp8t+8DZWxvts9nC+Dpd7vbCq247tdBQEvmcoXVH9Z5bExAgblnR1qKv7uLJWm+p8XVyiCMUiBjvHUrZvICncf19J7FFQ5AuF+SL/lrez70jr6ml+y6/FUIBAIzCIEGoJwnccl3QHyJD+n7N5nFCb43VUULsE536BcfU0T46vm4axw1zP5bSdx9x38uD81n5M0k3WYJ5fXMb1krHOf1CL7OttNyuKZzcc2mx/CVNzHYkeuLDu0AABAAElEQVQf+jmU7WUfQ75XCYqSbMZb8IyFSfVrmpLdlr1uNSV3c24Orye9BsI9DJFZ+3rxNJTiTLW6OZbTFOj472fKJuVeFhM3iK6uZSTChZkPkYP7ww4VbjkSvoP9Nc/7zRlq/1jLvsZ7AoFAYPoQaAjCFR7m4eI6quPLASpNUXbvt5DuVxBwzu2shXBbmMQ7l2OehGj/lKCWQxDvhlbMflQxmokxVwjXQiMPIJsb5tSC8SWCic6hbHuGTf1pKm5hPh6BHR9CtvUaWdmOqGxZGHWTZ7sXU7JqcTdpQFsgL5sVaMloqvPpMtp6GPPxV9dLxd9BuEdZzA2wyBjkGF+1iKs+7ky4R1jM/cm2cmGVg5iWvbYWS7gzVFilep/icSAQCMw8Ag1DuEJ3A9Vx4hqEi0n5d71FcZKI2HsQg+ZMOfNVZuWkcHnPUpTGaioWfQDh/jmEq2l5M2a/elcsetVpnq2E62LGfcuVooYxpQ4RMNQHwWpCvoiyNe1ngKhdzccPIeQ8XoV5fn28+0y0mpCXcX5WwHAdkO0+aiVbWeoA/vYOiklItotzbtF4G53g65rMPd6TNFj4+zO4Kq6j3llU3IKIayFcr79HvPf79ML90x0o3C3EC9B8XuvJIgB6Iwh3gmck3h4IzE0EGopwh5jwNft9qQ+3l0hSzJuDmAINiBqLcJ3UnRSfM6EvpYjCD4ke/bcQ7hEm8y78gu34Bessml56tcxWwk0+cv6M0FbvOjm1ttWzw88VFjSq2msPmophCMigKE3N3NVleF78bsm2gJQ6INUdqMJdnBNNydvxsW/GTNvG+VnIudOKMR3Doh39mMiPDxTFP51/Xhy7wYKD68o2guMRrsfAx1Ma1I9YJPzbnRAuAV5bOYbV+HTd76kuSqbjmGObgUAgUH8EGopwDdy5QFTsMfrhfkTN268ghT5MgUMwAPPyKye2PCk6sT9FJf0x0aN/Rl9Vo0m3o0ScGJ3Mp2k+Hz2rs41wJU9b6VVXirqMmrVx/AUWM313IWDMysNYEWrJRx090HEe6Kt1SGaaW1W1q1kxdUK2uyGqXSyIdnFeNqIQVxDoNl3KNu0Ef9J1hdnchdyvL5ZTgm6zk3fBp2bCZTs/hXD/ajcmZQi3E7XbTtTyAo5vuhYKef/jPhAIBGYHAg1FuPrZVF0nMP39AcI9iRK5DCFcZXIci3Cd4FVSxsAQA1T8iMnwF10okU2Y/jAra/pbyKw43RPjbCNci1eI6TUsB5LsFUjWZvH9RH/fYHFjpaj7LGYsrVlPVeu28A4Uq1F/GyDajhWlYhdktZObuaubId5VS5uKZVgjplPZsgtpDLIzx/Df6qr4A7WUTQm6z0LERcZYIyt01iVJof8cRf7vdzWn5hjW6U4+5yDcsSCM1wKBhkKgoQh3BGespr/TTI5/uALxDhI1CzlcgkkpRlSMFWzs5Jgmeu4/gJ1/sqXcxGD/xnL060y06XvdhJu/X1WbK0UNgKeVoqwSZSEL8R2EbOtJtC54jD4Wfxc1+mrbkI5rINUOFjtbKUBiVaZtEK4tE9spvGw08kz4PsXExvOfEP1uW74vCMizNCXruIJMoTGH15SuiqeQ6psczy+IDfhPu5vTQm4d11gL6tzjrXeQ15g7FS8GAoHAa0OgoQg3B7ecQ9l+fLlUHEfpHieK9hxKbDzC9Qzk9KC3iFT+EKJ9i9uhivmvVTU1TUE5+exnwntdaUHmm1oi8za+2qvgZrF+g6Ek3AFVLWr3LosXyVay0Sow1ZEXOgT9Ft+4KALjHfhk96IAd0C0OzEhW6pxI4FS7RCweavZ7zndRJXPh+lOlnQ8CuGeZBHXix/b43eBMNbIwXim/SyCXH+5oUy473Bdmd+9lPzu6T6GsfYvXgsEAoGZRaChCDelbxBBewk/7ieXnhefU/ziM8ygp1BkEyHc3QTnvIX5L5V4TAUVNGFOf8WpPMHPJOHKmeYqS7T3nzYVt7GTXkPFGhRlSUZzagdGeL4SFFVPovVSl7S0PEii7Sxq1oCzLez2oGh3rlTVNhfrISfVoL7aTFB8ZNpHucJUuZjHP06iwpSEa8S2XYs2sGD4IUF4f7OTdDMCvgz0qneBjmkHJL4gEAgEpoRAQxGuvkQrAvVCFJ9ehmwNnkKRfElKRwuTnwJ1rIjQrHC3MPHvJmfyMIrkR11UM6qkcEx3AYyZJlwgSek+9znwG/hpNR+r5lS0RiIPUBpzCFVrqs9jiKOeZJt95gjmYgOqdQtWhW1tpRQU1Y2y7YRs1xNU1EqaloSVfLWYZmeCaNmlNHLBi7NEvv/d2aI4So63HYJuYTEZT926gXw9bWaxsItAvPc3NRd/2l0uRWmw13RbTMpHEX8DgUBgtiDQUISbJnH+9EMYn5EW9NlAkSpOfQJxLISMa6qpzPtWwswdmC8P43P7EypOHaQgfmrVh/Kdzgl/ugjX9KYV7Lt+TxWiOOWc2geoWnNMe0nv0Ud7CYuA+bVXIeBbWAtUaOMFB9V6MWfzse/Xd9kCziuRt5uXl4qtBKp1Q7K7KWbRhTl5NQTcwglbwBtfl5/zYc6/teAFhGv+7TXAsAFDLSMVvAC/vcuaknvivU3k4nY1F9s5zijpWAuC8Z5AoLEQaCjCzYrtGkEtx4goPQrh/hq/2zH8kc+QJBKNkzeC6aUjB7nY8s0J8QhmzV9CuDak74YIVqG40uT/0k9P/cnpJFwjYhdVmjA8BQsjjIeI/LEcpl2WLrFI6QO36xDtEKRyH1J5AFm4T7WouVcdvVYFPy+2KR+Ve/G1z/B2SHU/yk/T8Xaw3oxVYQ3k1Ib6s0OTqtYFTjYjv+o7puv5ctR7OR3oVxdKxYkhcm/BxQjlWkYm3LcJkPqjLks6soiDdI2yjgpTtSAY7wkEGguBhiLcfGosgGEZvi8g298SXXoSQrmJ7dIerOMVwJCUiRkqnkAKP8CX+At8uEeYJHfn9CBIYCyzdN6HydzXnXBRtv/LQWpDc69abGa18BjCGIZQb6Bq+1GydvXRhCzZDlLA4iaqLpfDlCSncqxGHvN1o4Rtzmm7qpaTsAYbfzeq9gBE2030sXWFV2NVWFwJipJkJdvXNTwXg1xHx72OLKRCOtBZrqOJKP5EuFhMrDD1yx3mdZfKFabw56Z+veARIxAIBOYPAg1JuLdHC2AUxUeYlk8QANRPGOx4BTA87dnsiRW6eIdIqx9Ctu9gUj64BdMnpNACISyAdKdj1Jtw/xyi/V8Pl0tULl5QorwgfWrvSbTlnNpe1K1EmypF4XAcRoo+gSCMVp7qkGzFUhz101opqhuVvQt1tx0CMp92K9HHqlotByre3Higife+brL1XPSAz+/I5zY6+fhVAsk4GFW6i7Lxxqii541/TKT1X+6ypCMLC/zTUfBiPPTi9UCgMRFoSMK1FJ+5k6fwuVkAI+XjMln2MPNPJFp5L5GkbxOtfBjisjqQSmw62r/lS2uqhJtJ7msIq4RJ9k9Q5f/T/uZi77pSIolhFiJWiuqhiEUP9+bUXico6ja42GjAIJ9XmdvzPo53L9E4svle8jSn1hrVXSvKZRl3aELGlGyj+PYUFEXfYtR3UrWvk2nLu57KUxowZZ1oSzna7tEuSLX2vxUDjz9XLvv52qL4mz2V/FsWGK2YzJNrYhYca+WQ4y4QCARmAIGGJNwc7HIen9unV4hSpqHBMcymZwkCqplwIaAtqNkd+N/s7PLjLoJfiFaezu5BLxLux6jzvz2DH5qiE62oak2yY41MuJLcQkjuCIuFP93eTL1hzMSPmopBFx3gYE6txSuMtrWovkUcalFtY323r2WiwWKdHreyD+swE3e3lop9qDzzarsg2/WYVFdBtMsxcy+qFLCQeyTc2TBML7vHtXJqkHZ85wiWuvo89fZ1YaI/erwhDha8MP/Wilg/2FAU/xGFexhLyWrUfOTfjodgvB4INCYCDUm4qpMRyMSo288ul4rPMQd+DPkeg1mY68cMnPI05wlzOf7GdfgbD0NcP8WXa8/VLlSuzQymQ6G8SLifQLj/VcLlOFqYvMeqlJUvT/fd973Jvu/EBP4ek7xBSOb2DlGwQZOyBSysBayq9f2Oqfhq3UYmIjgp7es6ArTWQi6a4bdDtPvA0EjkdeTUrqiqFJVUbdqD2fMnVyzTjPyP5wi6u+HipFTcywc5zq7mdKC1mMm7iQP4AAvJX+ygwxELtnK0+DgbiJcDgUCgIRFoSMKVACxPOEAu6Zd9qFxMgr9l8vwMZWd6kEPCRIC9dPj5bBJcAHG9DWn8pKMZXy41fSlakGorw1D1Li1YTbjnKN6hwv2vZ8sKt1bC9YDY5bRvayHaTsy2Nmy/g2IbZhFSr0pRfof8o6qWYO5L3ipwXthPpPEhlKz1j7dxb69aCz8k8zFWA/NP84JllohadvzbYU7yV6jbzwy6qwRL2XFK/3YtI0cnmw5kVal3IdwfdJWxiHSgWhCM9wQCjYlAQxIu839KZxlEzdnD1KLzvyZaWbPyA5SdBTLGilb2VEu6WF0LOKp4h/SV72+AeJk8DxH4sgWlthz1IpHVc2TCvfWgKM5jRv4Uwv3/ULi/4nELZFaLwnV/JEOVY7l/bJnS7lJJyjQfA6I8tqkoWknW6ONshna/LMnYBiZtqFpV3SGConYYfQxWKl3xWswKJxOt+znbhsdjdSmLfvy+lwUahPvlNVKmWKjVUsoxH0+OTn4ff+1PtjYV722mby/Xz0YCxrIJPb837gOBQGD+INCQhOvpY+4sbkNclnk8hrr9HeRltHIf0co3kGa1EFgyDbKhHSjFAyi1wwQhfdDB/8nJtRbuMmrh1nNIuE76Rlkb3GTB/P/7TKn4Z45BU7hEWitRZtK1vV0T26w1una845FsJewUfcy94cSdkOk2fN3b2kuJZLdBsqratWDUysomqzr3fbb4aV92nM9YkDzAJn52qFT8I3m3n7NQu8wi7RrWgRqtyd9ZqP2EBce/21mOTrYBg9HY+nVddMQIBAKB+YdAwxKup3IElrlKtLJN6T/qMaeSx6iVHmRrLYQrsRj8sgZlZunBg/ghf0i08n7Uiio3NaaXROp03WTCvcsEP8B+S7j/5czz4h/xIdZSKetlu+ExVI9aCbv6Mz7O28mq1lzldnBZj7ztJKdWP62RxzsIjtqMGXslwULLCIpaaFCUGNULpBd3rI7/v08Osq34zL39h/O25MPfzQLtHnLeiOPxhhi5sDFoTTX/R+vsf0uEO5aRdajdFhYms1nhj3d88XogEAhMDYGGJlxbzN0mQOgyCvFTfHFfYF7+HJX7FQpSwh1PMTqBJoLhvcuYQA+RN/oTCNfgqV1Mpmshlnr2yZUbJd3U9Qg/oqUp/7dTz4u/Z+J/E+VVQP5O2JMlzclcKmIkBqp9o481xy9BpRmItYPjP4yKs1KUtY83Qiqr8Vua9mKjgazm5gLZio0lLk+jbi2Y8uvLpeKrW+XOSLX6bsXIwhhGZ28gHP4HXCd/SbOCA1XNCuYKFpO5VuIzgUAgMDYCDU24+ittZtCHWfCL3iKZCD/CJ3eUaF0CZdOQwJgfXzkkXc2JI7zPQhgfom6PcLMQxhZ8lfX25Uq4OS3lSxYI/+V0qfgNTRj061olytSgmSLcalUr3y/ju1dBpCtJ6VlDqo8FLA6h+m02YKqPqjZXippLSs4FhUF2Vt76uM8mBZqTWahN0nfbRYGP/eDyHqUcf76tudiFP3sZ6na6Cqa88uKNFwKBQGBWIdDQhCt5SRqmwnwFaakYf9NHTu4weZawaAlCHi94yrNV7cvdi8o9jGJ5rwOViy93HURT7y5C+hIfsVA4M1QU/w3T5kf9z1PhhSuYmmsxhU/lClPRusDQV+txp+hjN4iq3UU61H6O33zarSha/bSbCASyJKMLjyWYj5sh5blEth5aXuDou/2XSyzMyLvVdzsA3rUOrzPNyY+4pt7Bn/3DznLt5Lc3gxMYWUWr3lHtte5bvC8QCARmBwINTbgZ4m9LPZLmQfDUcYisH1OzvjlV23iK0ckUsVOsgY02Qy77USwfMpHuJ4hqGz5Lg2Hq6acsKy7aDDLp/66XHGJMnB/141skUsnCHZLiePucj32i99WqVr/lEvDRVyupdkEc5tPqr5VwDRyzfZ5lI60NLNHOteGiTJ+5JS6PY/341UWC6/CZD8KeXh+14MzbRiO2vwGDD/Fl/5vtpARhBdGvbbGLN+coPnPtfMb+BgKzGYF5Qbj2e71OMMwZgqc+gcCOERTzFWR2kYkWt2NKtxkrKCZPqBLKEthuHwrmA/xzRi3v31RO91hKoQcjgusxsjK3WMU504MInvpbiOBX+BQXoX4XQxLuSy1kMJH9kWwNEvOerylWkzPbiU+2u61U7MFXuw2itcnAeny35tQaFLWAndDMrW+Sf3NqZJyvYgE5hqq1u9THYH0eC4iNLkwFqmWIlwuypVgBWgki+3B9UfwVvtu3uEbWsUJS/c811V/Lccd7AoFAYGIIzAvCTSZDIpOtPPUlCvcL0oQ+HqR0H5Wn4JSaFKOTqqZWeLvYh2n1bZTLIUzLbxNElWoso2JMf6kH6TjPSwYPWChYhMGo2f92kQIeBE9dw/98ixUAgrOm/WZT4458bKTqFlSALNogji2kPG1cXkp5tN0c615uHa3N9KnFrA3j2+pvrhJtBkTT/QjOaTsm/e4yhIvb4RTWjz4TsCcwksuBhcpmiNWGDO9vbEbhlitLtVQCyCJYagKAxlsDgQZFYF4QroRiUIx9ck8mX25T8RvMtEf5vyyqv7IWxZiVzEZMrJ0Q7D58uN/DbKhp2SjdlRBxvZQeu5R6+N6HEK4QzHOUhcJRFwqYPTUtw4lpsVCLD3qsa9dj0vdo9HGqFMWi4SApUEc4HqOPu1C19m/VV92Gql3CsVvwQ19tvY51rP2bztcs4TiAuj0Bpv98kcUYFhDbFtrztlbrgdeOhHsX/A6iZj/A1WCw1HtbwA5rwBItH56sGIFAIDDvEZgXhMt8mBSjkb4XCIw5Bun+GgI7jrIZwpdrW7pafbmS00LIRr/mXibUd6lVrGl5L2ZEGxukCbZOpmV9uc/4cwuVe4F9PcF+/66PALDbdPlhRyzggagaVen5an4VWUiuebhtB3yejt3mCC2wdzuq1sIVb+Gn3gnZbuQY9d8aZWtuqdue62rNY/+aBZhuhlOQ7Ofg+lu6Sp0C12RKhjxfhWECreqPmHIakmXg++D1y26i2CHcnfi69XHPVd921SHGw0AgEKgTAvOCcMVKfrkPSRmxrC/3o96yqfYM/rpLmJv15Y6ncrMvN2EPqW4n/WMfptaD5OS+zSTbDUnVswKV+6xp2e5HtzBzXoEQJF2L6R/F9Pkl5mVn+zcqBCFJaCL3OF42JBoJVpJQ0Sb7d+U4duKX7YJouzGJdkIcRtauQcUbFGUO8hsQciOQrbg8BTMDpS7iYviokp99ivzsHhZkExni6ALMQhdLWJD8aJ2+W2pu49fXd7sCc3KjYDYRXOK9gUAg8HIE5g3hevj6cu+iaPXlfk5wzDFMiUchr5MQl0TlkKzgl1eOrGgoQFRs4EPbCCraDem+yyS7F5/uVoKLVkJU+jdfRXyv3PgrXrC+72McrEMoXUs+umA4ij/3IoFfwyp0CPm2/kiJl/3Kx/KyzUm4i9i3FdxaCQBrR9VuplLUzkpQlL1qbTTQmlRtqaHSWVy8uOgQM03JJ/GN/wbCPc41MIA/3w5K453/akyrfbcd5GS/v7Eo/ozo5OquQHPd7F59vPE4EAgEpobAvCJciSv5cgkpPU1Ric+uNRW/Jcf1BMRlUwNJlADkcc2JmXQl1WWQ1k7UzNuom4MQ7gE6w9iSrp4FMTJRqHStnKVKV+1eoci++aJXOJ5zqLMrKPVk31S9cizpVq122V+dv5tg5E4ItRPzsY0GOlCzm1C2G2BhU1haiT62yP5cqxTF0Y058sLFcp8utiws8geKXJzFymGFKPOyJ2pKdpFzmIvGNLEjLLrexdLRyflfXPHdVsM/5s7Fi4FAINDwCMwrwk0cxJ872TzLhGte7jFKP/ajHq9DurUWlsikixuw2I1pWX/uAfqdWuhgO/frCTyqt0kxE8bI46biNqp8gOApCffy3aaiB9K9yYrh2dOmFGxlla3sp1W1SSQS6AJyZtvZ300sEjpQsvprLV5hLvEKzceQsZ1/GkmZ5fOeTPP68fGH61L44vrz4hSPL7OI0SrAYddEuJ77hC0LGNPEjFj/+Vb83pBt5N02/JwZBxgITBqBeUW4ouTk+xC7qjmuF8lx/QzT8peYFr/Eh3fKGssSE++pRek48ZpB0g6RbcBftxOV+DZBVPvw6e5aW47srWcQVVa6qnTrRN/DgWhRD4PBvA1T7Nio5kfcNJ9Luh6vhGtksbnCyxaWErGuXFqCZCnaQWR1uaNPWdVaDSlFIPO5RhnJd83JysFnx1ho/YbzfhKyvY1V4BFY1WpK9trQlHwHbDfC0lu4YI4QMPfzbgqhcN5Nm1pOSlVasIB7jEAgEAgEMgLzjnA9cPMvrbGsafHEVYseYFrk/hRpQk94zQk6q8IM1Mvu4bzR91qRaSsEto/AqX2Q7SFMy134QyU02/i5PSfheoxMvO6r5Gqzg0cQh2RrYNhDduzRM5QupOCQQJfg3DWlZxmFGVrYH4tWLOV+CQS8kOcXsIPuYyMNFxtilfKwUbGmV32JCfkL/N/mNBt0tsJzza2WBVbGJvlu+cwerAK6EoxU/34X6pZgs9yKsF7nOn9n3AcCgcDcR2BeEq6EqnlWVXgJlXsCxWO6jf1yr2KWrbVfrqdf0nV4vxbi6sA3uguitcrQbhTPNsyNRi4vYkavZy3dTLoex9cckGr2yddNKbjKKFzTXrhLI5mTIVOL5+tb1GS8AJZ5E4YdVbQuCCrvb5S7fJ61AvTgpzVI6rco26+GOM8ESQ1x0lgPTYhsR10JLGJ+CMH+fBu+Wwh3DznZNnDQbF/P89wo5yKOIxAIBJhjS4z5CkQq+UgAkkXrP4Fwjw1CvgQjXSJlBCFY82Qs2ZoeYhGKNsisGzPjgTVlpbuPydgi//pNNS/XU+lWnzdPogTzDEaQhL3lEyuR+r0SgaUY8z74fCMOj9ur+gkrjvso/34tGboNuH2EJeML/N0LNSPznoRLjUBItp7nFhZWa/B3v4O6/dNu87ANOMNnT2pQmJIb8YqKYwoE6oPAvCZcleBImpBJDcGs/DmRq79lQj7KhGzvWVv46dN1Us5q8VWwZ6Xr6+sXEgVM0NRO1O1bTMb2zu1A9a5GTlkIYboUELubiEaySbfKziY+4Y/3HosPvGvUkRYe/Ln7sKkYgGwtbvERpuQTLKx6WGBd55xzimr21YvTqLIF271YMQ7hNngHK8b3O8ulPSXbhSy2wpTcqFdVHFcgMHUE5jXhOjE/ZSY1mOYSATTHMS3/GpOjFaiuo3JHYNla0oTyacgKyKpV7czo3ZgYzcncy+S8h5QhSyS2VZSuZt6YnDNy9bl3keE5NWd55Alky8LpzCDqFsvFx5zb05DvCCujWtsy5r1yMeV2tXoshlRt0fiDLc3JbbAPlWszh+lcSOX9iPtAIBCY2wjMa8JlDk1KUNPyDfJ7jFo+So3l4wTUnIB0TxNoA0dO2Oxo5yEJdR2kuwX/rUUlDhPJuhM/3xYma3NdU54mxByjfghoRncBdQdle5UAuNP4aj/BcvEVaV9XULZ9KFutFnDmhP22Gj1SDW1WYIch2R93GY1eNiW3oG6zmb5+RxNbCgQCgUZDYF4Tbj6ZqWsMk/FVZtVTmJX19zlRn0UR2RM1+2cl0VqGisjPWHN5Df6+bszL9pHdzU3zsmUTTckx5zUFLdW43Vq+ez6+R/Up2T4i8vwei6R+yPXMDc4jpuTPUbdn+f9dIrif8J6JWCzEUquFCyjP6W4WT4exVryFX/59ukSZwyzZLtCUPB+Bj2MOBAKBCSEQhAtcecI2mrWP6k2nmKQ/6SeqlUn7MsUleplta+mbW428E3QeayFWG9dvW2ndZUgXpWsD97U4iCVdo4djTB6BnOala0Cf7Wl8tXZV+gorxQCpP7chW7KiJqVsXTgZeayL4BDn7Cf4bA+T8rUdq0W5OUHFLz753Y9PBgKBwDxBIAi36kSbm2uq0BUm6i80LUO8x4eaKJtYSqQ82ahWi9uvYtI2kGoPgVS7ydXdBfF2opDWonTtmSrpqnZDKVWdkDEewoPFcxSr6U8Gvt3iHBmNfBZVe5L0rk9YLH3OYqmEH16ynaiydcHk+WYNVmxCxW7FKnEYP/xPMCXvQeWuRe2aXx1++DFOUrwUCAQC30EgCLcKDnNZDbgZxARpG78T+HI/gnhP3WkqriF17jK511r6MW9Wk6RDs6QpQ2tJJ9nWWiKQinxdVNL21eX8zVYimC1MkXyB5Y/E31cgIKQGSD2GFe8R3Ob56rlTFOduPseEjDmZx31U3brJ68StTVjZSrbJ6uHqh0XQYcwbHxKRrCnZ/GpLYZriFZYJ8IkRCAQCNSMQhFsFlRO5E+0Ik/g1qhKdJejG4vYnUbrnUU/XeN4xmaAbTZOSrn7dLiKVd5KbazDVLgh3K6p3E5Gu7Zid7Tm7ULXLe0M9lfHOf3MUsqUtTem6g7/2On73HnKnz6NqzxD09jmPT6N2bVmIFTjlRtfqe8/f4yLJNLAWNrCRc3IAi8SP8NkeQOF2YlY2pzqCpDJacR8IBAK1IhCE+wJSkm4umDBApOspI5YJojrK7QykO1wJvjH1xzQRJ+ZaRp7Efa91jVdCrJsxMdt/1spUezQx07lnJRN8y2La4qGg3uQ7YnyLgIFRWiDuk/JzB1K1xd45LBHnINuzkG3vSFMxRJnLuxWynejCyG/K5+kp2O/Dx/4u5mMjzPXb2i+4FbI1NSgWQ9+el3gUCAQCtSEQhPsSnFS5z/hjekk/QVTmchq1fBLFaxCV6SXw4oSVbjZV2gYQkZYKZHThw92OiXkPEczbVjanqlTr8A+28QUGVEm6yber4n3JvjbyUy5+kqqFQK0LnRo2YCq+gZ+9l1KNl+lrfJ6Un8uY/C+gdK+wGAK6ZB1wMaQKrXVBJI6ZbFtZDK2mbNheLA8fbqILFMp2Kyp3LelcqVJXLISEK0YgEAhMEIEg3JcAlif6cpoJpIt5WZV7HOK18ftxSNcGAQbjqHQnYrLMpAs3JHPnMtTuKoJy1jOZb0XhOsl3Y2regt8wdZ5JapeJHvaQQObTSH5UVS2gWaLxNiuVa1gZLkK05klf4N786VuY+h+zgrGpgBjBl8l8PxGsMtmqbPewCDoMwRpRbss9I8ptQmG3JZVtqNuJIBvvDQQCgYxAEG5G4iX3uZDCbSOX8Q1+ZbrQVe4xYfZj0rwGa05G6fpVeYJX7dLrPdXn3cZEb1/dbRTF78LUbCN7C+K3pT61tM+D2VPeLqSQJv6X7PNcfiovdCRaA9ieYT5+SNeju6ra++WUH9O2LhAUdYzzcY6Un7sQ8RuQrQufBdz0k2tKrlXZugDKo4UPrmTxswvs3ydAaj/KdieWh7Wcg8WcJLGPEQgEAoHAZBEIwh0DuRyko9I1R7eXid7yjydQul9iXr6A0h1hsocXJpx24tc62Zt6Ijl8A1G0qXZRUWtQu1tWoHgh3j2oK5sfWJ1qBWbO1E4PYrCUYKMp3mzKNyDq0dMmgtc060O0mIttGn8RM3IPqrb/QVNxXV8t7xM/g6PEYiKWBj6S8E8qms+mYDZU7H7wtq+tEcm505P9bd1+KFtRixEIBAKTRSAItwbkcrDOECrLHF0LY3yGafksKmsApXsD5pxMYYX81apdo5g1M+vbXQ2hbkTVdq0oEVDFPWkodqNZjdJaQ9DOiqR4IQneJ8nY7zYRAp+dK6TA4ZYbLPDgRUV7DzBuEYE8xILGlJ8+bhdQtj33moorqNqrqFoHPJiaS4iBynYiIytbzc/L+bOKxcyOtlLKtbX29W7StqyRbPpPBK9NBNl4byAQCLwKgSDcVyFT9XxWujZ6T0oXpXUKn+4pVK6BVCrdW8zguXTgVHyI+Ws1j7ZJBET/rF1WKjZDuJ0o3W78vJshAn2KLZDEIt6z8M0qczPEM9tJN5NtNtnbx/cJ+N1X0UK0V8HzEhj34q/txX9+DUV7l9css/mQFYkE7XCRMRmsJVu3YWCVKVgGruk7t/Tmvg0scFC5a4kgtwOQZD7b8UxgxJ9AIBCY9QgE4U7gFOXCGFaj6kXdniEl5UuU7jlSUgZQv0MoL9VqHhM1cfo5Py8ZkJFUHkz4q7GZ2ti+q6WUCHcLSteykKswM7eidlsXlYrlsMdS2GcBUtvG8tkEKlmkm1vzcWWzM3HnQsXD+M49T3zNAT7Dhv4Yk/ADIp3umeaDn1ZcVbVXCYS6AgBXSPO5ggWhX0WLT1crwnIWIhLlRH21+XglW0lafNp5sA78TM06ROqPqlYzsj5bA6SisEVGLe4DgUCgHggE4U4ARYlDQtSnO4wSs26vKUOnIN6vKCl4hf/fwC58DxW2CGLA4jthv6K743fo13XoHzaoagnbM12lHTtq25ISEcxNxUZIdyvksFFTM+S7EnPzclTZogpZvCH5ouAM9nkD1h0l4fKmp/Vvtgq4eHCh8g0PvoYln3FgTwyGgkQNeLph8BnE2ovZ2OYRg5iMb5GOdRci1kd73yhltqGfVjwdk13I+FlxzVh2omx3EY1sSpbKtgMLwioWNkv5shScNpOrE3cuRiAQCDQ0AkG4kzi92RRqnq4mz/OYlY9jYj6fii9AIqSpaF42TUWSUI2pqiYzJF8J56mk5QbYltG0q1BmHUtRvBIvN83OFs1o4zl9vMshDYnDIg3eFsLaC4gwyuT7r1Qv232RX3xP9WA3ypK18mT+f7r3JR6wm/yBXHkswRoAlYKgJFkijkcwyxsMdfdRU3Ebsh0Cw0FU7RVuA5iO+3ntdrL5QnpsymAmFxyqWrGUMCc63JzBVZrpl3JrNw0Lk7zdfg6Q+rMTZWu1LxctEY08UXQb6/35Wk6mmcqhjT73kkP9zk+E/3zn/y95fzw1vxEIwp3E+c/qLTU6f0ydZchC0j1PLd+zN2hmf7ep6MFE2s9Mz9w+GkU7FdKVaCQNA6skcFWeUc0redDChhctVuGWUts/c3rXQShrIOB2nmuFrZYtKEHA+HxhrTf5jIFWbsP7pqbSd9Uvz/Ov4rv0kYNGAP6tzD7e59vzUtOoKbzcUACTMTv8iNsDMLBU5jBEKrneIA/qOqbjQchWf/hD8HvEQQ1DyPdZUbhIkaxVtCpyx1QXLGJnFPgajn0Dfu/NBKPtIBhtJ2U1d0O41kZuwzqgGTlbAdIXx595hYCXdrqmPWqv78rRu4jkJ/LSkRel+fdS/f+XfiCenNcIBOFO4fRrLrUi1T3U2jX9jreeF6chXFNYLhD00w+5DEM4T5I0nbradVez4oXPyzOC9/7aIZM2WKoDQtkAyW6EQDSPruT/K/Txcq/iXQrxpsL7vN+8XiOd34TJ4ZqyGRUClnQy8TQxg/AUyhXC5bskVI873XgsOeqP9RifsXPeP8bkrpp9CJHqo7VohSb4m9yusePXtAxwP+jqQTZMsri8AFDRsqtpMcCuTUrR8rGU8uO9ixwDo1rZmI0jOgg464Zsd2FG3kaBEc3IWgUaMc3K44/xLQIvkmn+f7rnOv6GB/6+nrPCS/c8zu+pJmC36E/O8e3vpHzNvsFvqZnfTFrM+iZu6c77yuP8XNpA/JlXCAThTuF083tMP0iL6VsNaQj/oyUHL1Ju8AyK10pIlyDiXhSeJmHJCQ5MplF/kJMdTgbylCOrXrlL06sFIFZwWw7JLOKJJRDNYkh2AVJbwm1B5a5I9z4u+4UNtlrCexcR7WxFK9NgcklJJxQnCCceydYSi6koBYz7tBL4ZNWtZCqumIytN30P07GE+xSyfUpOrfgYYfyAnVfJWu84K1mPg10ZDYSaKjZuT3zcd/21azn2Dmo+bqV6Vzc+226UbbcmZEzxls9U9Y9Ohn44RsMhkK5fr+HKdWzgXiZXr+d04wl/y7Z89PYNxOt1VP4sHyz/qxBoueqY15gLQ4nWeAkXd5b/9LFBd77eLAlzHerO+U5AY8OhHAc0HgJBuOMhVMPr/A7Tj9J+ujeJVjaY6oKEi0/XDjY9BAXdxqQ6wq9Xk6k/en+kUzGVVu9WmjjYpqrXx95GBz/45AyFVJfxpeshVqNz2yDhVgmX27IKMdtU4Q1mCH2dql6JL5Ofkw5zEITL6j8Rb3lyesST1ji+WyHdu5CuPtjrsOkd7pPU9IN8Jtno3B+G283+2TRhVZ4vvzq5v36dCxC37YJBVdsG2W6GbLvx11rBazuEayERc2yN7A6inRzWs/lTXv5er/nm7y0tErkOJVRT0B5xfT4mHU23h64hn/Pe54w5yKTrItPfU4mN5e1xaXHdlN0yiVDT7waC5XpbzKLVOAC7fnmvBcnnXPjaftNYikUpmLG8sE3XH9erl39ci7P5qqrPvgXh1gfHxCUSkRG49/BLWoqw9w4mZoj3IiZmg6sMCrKbzR0JiKGq8wfL73DKI5OsK3JJx6HqzQOrd1LAfqeBQ1hXk/qTXBfyS0+qlufKk8m39/nz3ifOrExkPuZQ02Sk6i0HiTFx8Rj3bCJ/X8e6nYbfWz1cbDAH1XXR4bHrq23nIFbyhQZGdUKs1kLevqa56IR0NxDR3Y4JWUX/BhMlb4/RQAh4uUmM/hazas153i6I7/OjGDamgPgBa3DfYiF8ByvMCM97u897JNxvuEm2JW5epG5T4s6+3ESO/lgq6rWZi1lFK6kaC7CCe2Mn2heWiKMghY8fgvdpgcsicAmWpoUSMOTrdehCl0sySLeBrsWXHUoQ7stQmeJzzyDUkUrKizWYL6Nyq0n3JjLXYCLJSVWWRz2IN28r30vEThTeS8DeZ3LO7xnznvenMRFm8r3cJFmJ3UVFVsrljdXvr/iJm99hKlYLk5dRyOsIHNtCsZBuyLYL83EnnZjWQbatBJcZtR2jcRBIypPDGVWyrPQe5RgCFrimn0my94ghsIrZPR7f5vFt7of4/y1ev8P770CyWmb8/SZzjmTr9Z/veVhtpUmrtUS6PM+9ZuRWbiu5vtphT8nW2txWMTOroJ1YCjMIvAZXEGNh4RpbcVrpzIBGlbCxBJqes9r1PkbjIBCEOw3nMhEcP1JX1Hf5UQ8aUCXxUp7Q0pD95JteJVL3Bj90c3b5zSdykgemg5iqCVYVmBXwNBx62qTq1ZF5bTqPyeNRpUu0FgjZgKrdBLF2UMyiC6kr2doAwgIh+mv1sUnOMRoDgaw8zfPWXCzRmnZmkJ6lWC2i0ofJpZf7m9w/4vf4mJgCe14/9MbnHvFbfeyN36GLUi0z8GQatfxW8vWudcVr3YUmKd5pAbiYa3MJTy7lulPRLoKEvRbNJNDaYk/s9ctLqbJZO0S8FFW8BHePvt6cCx6kWzkZDXAXhDuNJ1HiTVHMmJgt6HAVs3IPhNtDYJWVlK7dbypu8iu/x688qV3fX9mf6VC703ioM77ptDhhMlPVar5byUS1nlzkTgKj9NF2oGw3tWVV+23pyxnf0fjCuiPAz6Rs4oUkkzsD4jQafpgFrNXKzO/WpTPI7+sqv7s+bpd4/jxk+3Uy87ABPvvikCwzYUqeEqdjvAWav3M368iWpKSE3VEH20qDa9V4ig2w+RZIdzPXq4S7gRiDNdzWeg9TW8BG9Wsqn4GPKuekeNlO3lRli3E3xxAIwp3GE5YnBgMwDMhQ7TohDEC2mpglXnvtXse3e8sJA7a1spI/4OlUh9N4yNO26WqV7qQo0eZa0+vwyW7CfGyKjwUsNlJvWpOySiLVmua9TpqhFKbt9MzYhvNvqhwvgUKFZFOfZGMm+D3ZulEL0k1IdpjAhfv8pszxHuY36G/L8qBYcV86clzBiy96vY01qq9N36fVxVGtjjMhG0thpoKZBCsg0mX4e1ORGny8G6gct91rmOu3i/t8DS9FFRv5XG1qLn9D/J1rCAThzuAZ0zf0gF+epi0jmfuYIPoqE4Qr8dv8Gi1p+IBfrGauFPjB/s1X1Vt93FnRmuZjtLXpTQaibEQRbIRsVbX2D96IKXk1M1orKsII0RiNgUDy00KUkpuL1/vU3x42lxuivU5Z0D5rb/N7Os99L8p2kNeGZb6sZCE5ibMeaXmTQTSTsovp0WyCvCGI10CEHSjb3QT5dWOlsUPYZu438P/VuEmyS8QUtiDeDNzcuw/CncFz5o8tRzJbGOI2vzwni/5EvpicubfMobWEb0O8tzSVMWHoW3JlXs0f4626Z/Cw6vpVeWJyo86XmvYshGF+cRsA2D1pNURrNx+JdhMka6WojdxWJj9tOS1DM9x4psC67nhsbNoQyGTrgtV87lsUlOnnd3OZuIgz3HqwEtn04hYL1pvETbhgzb+Z6p3y96OKfZ3umnx9e21XD5WvjTkMuGpjMdnKNb5ZxWsqG+6R7RRpWY/JuQ15vgRbt1HNycxcvZF4POsRCMJ9TafIScQcQKMlNTNfwwx2HcK9ykRy3cco3pv4foctIMH7rOAkWTOfjJqsXtOuT/vXOjE6mWg2Nld3KU+0MgmtZrJZB9GuYyIyMGo9JLtOBYD52HaFRnom0/G072F8wUwgwKWefLW6ZFKuNy6ZIdJ5jIW4SOS/5uMzFpepxEKY5+54nUq2vAcT+ysJZ+WbTM9c+/p6t3NN7+H6lnR3QLhdWG90nazGhdKSou3DzDwxpF//u4NwX+M5kEBTIj4TRXlCKQd7XIN4ewyq4v5GxdQ8guK1uIRVmh7yOX+gmlyr/UQeylxRvnmln+HPykPCNE/YqE6bNKxA0Wo6XovpeD2TzeaKmpVo25C+VsmyQpbBJcnUljcY93MegbJFqJzXrk/Wblxn6cx1HlVrxL9Bh0MVF4zBU/4Wsh82X09zBYT8e6isGVIQ1hJ+Aypey7OuJZLZ4i0H1mB6hnw7IV8XmRbXGA2qmisHO4/3Mwh3lpx8Fa/9YQ2summBfyaXQdSu0c1Wr9Lva97gHXxXI8hc32uVp+TnlXy5OfIPtvy/2f03K1nrOKtkrXS1mNsKTWqpYACTDU43u/gkZQvJ6tOyD3A7/i4LDIRZbXaf48nsnb8FCcia3ObMXiel5xIkex41aw/qC8P0SeZ3cZWAKaOB55qiHQ8TF9IuNkxP0t+rpceUth1Ydg4SFLiHmx2ujFtYy+9DtVuuEheBgeNh+7pfD8J93Weg6vuTyVjVyy/NfML7rN6NtLRnbCLfSrrDLe7NM7wL+VoZJ5Wn43P6rfyhOg+52veHO9P+qrxSz4el0qgeTo4SrSTrzTzFZZBsqs4Dydq1ZxVqVoJdw6pev5W9f9sNHEk5igZDVRUIqN54PJ7zCCSy9VrmQnKheQmz8bkbpeLEDSOQWYjifrkDCbvY5OeRhtfTXFO0452obL3KC2gtP6ktJ4tRu11tX91U7FtdFAfWE51PcFUq6MKPPblUeG+M2YlAEO7sPC9prwwSkVDtRnQT31VSuUxCEu5NAqvu2I0Ili2XpLMubJl8bZSgzzfd89hJLP9wZ+pws3p1AoBP00Sgik2lJCtK1vKKyyDPFUQUS6ZtrNb1T0m4qyVafbMQcOrvy3tcxYeinakzOPPfk1Qd1+09VoxDXNs9qNrTg6Xi1M2i+IrbZVSt9blVfq8r2njmUSmrfbHhp58KYG3kt9CNe0WlexjC3QXxSrr+XmxQYolJfycxZh8CQbiz75yM7pE/sqR6JU9uRmiqZi0beQdbUyJeVvwGXt1R8UK+91n9O2Hdp5qORDwMYT/gs1MlXVfc1eNF5SyxOiRXyRYuTT5VeDSZxMwjTF2JSOY371Az2Ap8U9aXtY/vakhWn1Q799abNRLTgu/Wmk3l7thwWr37JTEaDgEu9dRD2WvXlLmTEK2tLk8NPS967pV9tfe4CHPMwnQr2hev9/EAf/H3MN77J/p6thy5cHbRaozDOn47W1pLxV7qhL+36f9n78yfpKqyPH6rHBcEhGItCiigKHYRhELQFg211bY77I7pju75H+eHmYiOMHpmbGfacBdFaNmLzSoKin1HRK2cz+e+ukhUSOVCZmUm3htkPTLz5VvOu+d+z35CBF6j9xVgU+pQtefJ+zeWAhlwG0vfuh5d0BSE9d/GIuyanNF8NS/r6xJwr0fgLT47BxifxA98HnAWdMHemoamX5sbuFVyFlTv3UYt1s95uRhYlk5frGBp4IfAqcn4SRaCmb4EW7apruwstFhNybMAYD+304qAnUC8povOP2obCqTgwavMXYtWHDkfwldn0Gzx1x4HfG1vaVqcwznRCHBTSHQ4r/1/coU410t85nbigKVCambg/xUGBMQHFW4nnufe9woCrgEYAKIgOw9+WUsA1Y7FnWEjft0184sCGrbetHuR98O/PFqEAhlwW+RBVHoZCXSNyrThuz1pNT37slPRTXy/Aq/ar9Wsdp/CB4YfzEpWV1kNBMVqhgucoGkOrFJ17PUJqHqcotk2C1T8vAh4MjH/CcGVVVHzloXZY99dwNRC7Zassy3edPy1mpSL/qEFOHvs1EM0LxTVPKX23Vcc1XIj2JpPu+d04a89RE/pYYKl1Gp1jzgapdUyZSMwgV1RM8RNerdzj4JfnIvjW6Z+BFQ2MbArgis3oQaqqTv1vU7CrQBc7yHo3qvpz0OA7SFNbuP8jvCrJfh2AV5z0/XrqulmwbXeT6D242XArZ12LfVLFy41he/gfKvw2H/34Ggp/N9gCHvOEumJSHwRTq0UcF1A3LcTMO2GcVfiU52PFmquqxWcZGKbase2fuyoNivY2p7s8XHAtfG9peuMsJzBajad76bHwCeKU/CbZPbiUHn8AimQNNuLWGmGAdtDzNNdAK4+W+sfn8e8LBg6Kp23xd73/5vAlWlZWG2YwwbuKfjZZMBOUtOiG0Phktf4HHeuC7xsIuBGoIXfYp9dtjG9D8HgNgJwDGJUGI78WICwAKxmWk/tVx6FzYtUKHhrM37cHT2FX3f9QszNRPTLd/JlFmDvPyem8psMuFNJ7QafK2m/gu5NQPcAfrD/PlhiEcMsh8Z7FsCFL8uOxMgdLkSA5RbSD15Gcu7HdKX5116eEXDHQfdR3kRNNUYPj2vB4wuaoOrrUUTy4v9F711/nxeBso/iod7B3HPdIceJPv5yuBT24bMdxCrjXLXYi+VNK5mvlRIpgW3sBw2YKgBaInQGbfMsBToTYXCG7g6sLwqKUXhExdU0K/B2MoeZthE0f8TOHC1LXKcunthr105FWJKMsbjGVn/0dTMJiKW4CeKqqQuQ9QZd71/tfza8upAYCHN1X1xKCpGgC+/qrpH35Lk8mkuBDLjNpX9Dzq7UbQ7jATSGd/YDuKdY1FjERmH8ShawBLjfw6SPw8Qvw8C/X9kRNhERaVcTtdQEmG41uz2CVhD9vGgJ8buG3Fk+6MNAATU9q0ep2Z5Asz0wGsJnp7DIoNmOME+vMk/rqdEKNjGXFeCcAZCa422sgIVTYvyAsQO4OwziE3x1hRhzUAAuPAM4ez3xmtgKmFq5f+TP92i0MScefrslsPKKQAuyutVU7su6z6bxXWW/GwoTvOwQVi/wlWc5fLjFvW4jgvlXi0N4Fn7dtKgoFjNdTZf7UMjNo3kUyIDbPNo37MwCrhL3QRaydw6UwucA7skaAFep+Q6L1JsA7h9Xd4aBHgpP0MnE5tmCKrwdA0rcRnMbn2WttWGP9aE58B3ARjCyWtQuNNuvmaeHxs3IBvc5fx90CEACpKZj81cNyJtPylkPUbx25VlEjvd8/j+HyPgItICw1coEVwXHaI3htylOgf8yuX+6KoGyeHVE3+0Y1xwzCtje4eQC6k3u0cb3lm49R63nM+T1jLA1mNE0PwUL84lh1boMDAYx934OAoNNPZ5dEMIry/HpLuQ9IKxPNwnKdTlhPkjVFMiAWzXJWv8Hmroi4KrhArhquNUAroyrFsJ6EItovEqS/b+uCmGgtyMsp66rlZ6yiar150GrXWHUDJlXmpFt2LEfl8cnQ0YjUx8Zn+1FJ1wdhqCiRjsTc84cTMZzAVrTZQTaWIObAKMFvOw7K9gawGeJROd0PQTGyDuArk3uNSnbAUzQPUsQ2BkA9zTbs7YQ5LPzAPJlgZd95Vs2NY/Etyjd4UcEhwGE45eW4hJCy306gq4xFoVLx/vMY+opkAF36mne8DM+KOB6gTKvQR/60V6Acd9Y2RG2LSmFtfiFrGOcFqiG30w+wUNDgejqIJTXvrVfDBPMZ+oPVaSGSV0zgl4Ta61DjTaNGWi0cwHSJWixfdQftrdsL9tFgGwXwqJ+W4OjrMGdou6T5lcPHPJSonDB/XjPZhN8BwreohGJufECbdGecywcpbiHNaLVfi+jEavtei/RfJ1uqIqtfGsEs8Bt9HIvvLoV0/KraLrr0XgtjjGd+4+CRT1utopry7si0JUYmRAPFwXqAbhSxNSjq0jdm9EOdiApb1vcEbYSjGHhdCOPNb/lkSlQCQVcZW4COJpTDxEc9cHJgCl5LAxZLxygUSusZQgwadjQvYt5uQAzsV11ehEUbW3Xy3xVs52DmdV5a4BfPTTZdN5Kt0VUtkFVFPLAxXOKBiXWiD5J2t4Q5vXYjAHfr6Zm961V2xWwIz01jaPlD1CR6nUAd0sP9KDxgXEY0kCNPo+ppUAG3Kml95Scrd6AuwzTm3Vbt5Fc/+oKEu3J99OPq5aQR6ZAOQoItgLAKFrcPlLV9p7WzVG017sCuNgBq5ZxrwnVsqFLAdp1gOtqQGUNbhCBdgHg0oW2+yRm48f00dbJbFzL9SY6KMjGnHmA9zIAewah4/jFojnDfop9nKSyllHOt6BLrZpu0vg5RehDq316PqZlAPcl3EKCbg6iquUJPvhvMuA+OA1b7gj1Alx4PjL9LKRkm2E/1x3C2/hyTTeYh8ZgTm4zNIWWI3i+oEkp4Hw0VUZt7pNvxjAlUyMZv63pP5pQa9FuoxYHmAhIBgl1U1y5D9PxBoBlFS9BxQYYVjZrxTzUBL6m8F3+tiOamI/S43c/2r/bU4CwXcOuQbta06OkkWlI+rINotqMH/eNFaQLwceLsAA8hclZ+snDeUwNBTLgTg2dp/Qs9QLcxLDm41pu8UUWsj+swjSFaXkx5rpZaBSmBOn/yiNT4H4UuMaqP3QVEzJA+9GJ8SApwMRGBLWCrUCiVmv+7GqqKumnXI9W248lxhaORiXHQv7sE4tW3O/imvj5T6CLYIumfwmaCLRHidjejX/7MFrvEEFWD1IARB4WVC1gsx6efWEptOopimMsgm6xTjk0ymNqKJABd2roPKVnqRfgJpMda0GMVt5J4MmbfR1hgOCp1ZiVFyIlpz6cU3qD+WRtQQHBVF/kaUBkL/7arzAlfzEEoBA0dR3NrZYgKQHEdDVNw4vQ0CzsINBuIxLXOWlg1CyaYQgk7SIIcksxyMpCINZEHyI3+Z+Y3tV2D2NiHiKqWb+uJuZ471U+fWlGUHToQ0DeiEAygMD88rLCtGxdc11DWcutkqg17p4Bt0bCtfLP6gW43mMC3essnM9gonsO6dh83OfwBS0DgDXZ5eCpVp4Nzbs256HtJY9e6AjvHy8A16jcEXJQazElJ+Awr3YRnXLWzylRytA8046wYo4RuEVQVCuakMs9BUG3CKpCGAF0z+LvPnpxLHx5mvQpIrmth/4N6VTU5YhDrbXSEYUUfmcTEQt9bINeb620KEZhWs75uZVS8sH3y4D74DRsuSPUE3C9ueTLXQq4rmRhG0CbeHU57cAokm5ObvblttwUaPoFiQs3mDhn0M72jXaE946NCkmOdgAADuFJREFUhb1nyTvFb2tDgmoicJPQF1N30GyX469dzTzUF7k9Rt4agVyku8R9qgCjphNqwgVoZjaV6FskkhFot38UUzx023NmLBzDMnAFX3gtwVSCrjS/Af1eQFB+fUUpZh2swyrQjaUqRy1PeBANepsBt0GEbeZh6w24MutNFgG7BnVhghrAl/tbTMubx325XUjNuRBGM594a51bsBU4LPSgaXQ3puRPv8EniZZmWcNqTckKfFpY5qChLQRsn8EsalecjQDuMvyS86ZTuOIhKuiQTPEGmhk4Zdcvq8XtwyyvX/cUmm41Gm6aHZGO0HINwslmcnK33mNaNmo5pkulnfO2IRTIgNsQsjb3oI0AXBeBq2oOvHYoIS8rgi/Wo+V206XEurOWxMsjU0ANzSpLlm784AQBQCNFy70TVJOqNkgqaWYE8oZ+fJBPA7bWCH6BfPBVRCJbmN+5F6Pl21iznThrFFg0MRvFPIoP/J9U5dp7piN8OVJourFtId9XM6Slvty50KsX99AAAstb/dAUE/M80qdsmxnpWM1B875VUSADblXkao+d6w243rXMiustmpdXsfBtQsvdijnPriT9BK2o5T4OI+fxy6aAQGGZwitMFqtI/c9gKTaTt7dttaUbnXNGIxslb6zAlrkhvEbswGZcGn2UGLWAgwE/qSTjw0Z5hRNrNNsQQVP8IVKpPhrSajBG72CC0fD1VqPp3mua159rQQwryJl10IfwMgdLgZ2/NMvn0RgKZMBtDF2betRGAK43lEx73QDrEiTkTeT1vUK040Y0jtjwWtMyzJojHpv6+Jt6cgH3MiZPyzfuQbN9F9/t10TbXhqPsq0GIJxvWFTDEtwYfRSxGGCeOd/WIeyl2IF299mWe1hJ071NSUxLYO7GtGxJzK8IpjqBulpt8wOFGH25ZBuFAXy3O3sJosI8v4UAqsVEfCfTfLnryt/XRoEMuLXRraV/1SjAlVmjSRCNQwl5Awz6Isz6LMy6nsXQ/MfMsC09NRp6cYKDLysnfQkofAk4fDyE3xHw1W9bjTn5LjAw13bgp30FYNCiYucbmxA8YYlGvvslCHfSTfPyVTRaU6y+hrb/OEnqEIKMPl7zmasVZPSJ9yEgr8dEvx0N99UVBKJhqbIYxmPwdh6NoUAG3MbQtalHbRTgelNpIVTzWDNuWrbnplLySkxUc/ksRy039fE37eTR54j6dPxSiTSgEHah4dpU/hvModWMJNgp1M0lSGoLAT7mfz/DPCuKWhRm5F+S6VNBxgb2tvyzEtUHAK5CzSBFMk5jvjfNqtIhffXldkHfblKptuPLtYKc/a7nYqa333X25VZKzer2y4BbHb3aYu9GAq4EkGFTybiFSMkbAdqd+HJdEJfPKVI02qnwQFs81Ba/SAHBRuwWbtB3+19H6AhEdPIwtssLgEQ1Gpjzy6j4NZYjBAw0d27Hd6vfVg2sHfNs6/H4FGisw3zuuqUxS2EP9P2Q6O+D5Dbfgva3+a4SOt/ry7VwzXNoub+jgpxRy3ZVmp19ufV4XD97jAy4P0uW9v6w0YCbGNbIUbvQD2Di286i6OK4AdBdignwqSeKHqNZUm7vuVTJ1YOP0ZR8HaervV73jITwtyNUlToLAPNZNXmjUbs1DoB5tYXF/xW63GxdTFMCtNyFVJFq51KEiU5uHbJPtfyhYGN+8yh0/pqUq/eOG0SFGR+T01UZs8IhnaMvF5B+Hn59DQvCtsWlsAEtt1vX0Hh/4AoPl3erkAIZcCskVDvt1mjAlRYJdImFCd0WxAB01xPMoj9oLX42QXc2JfZy1GM7zZzarjUByfkblCK8gKlzuBT+fow0FnJGNXVW6rsVBLScTNeUTCWp55hHb/UTI4Agt6DNi+1LI+nwA38SPTSJ18Ifkb9hPKt2fXiiqEZlBPMwpntBtNIR228CuBuwJFhf2fabLxKUZtWuWIca7TeP+lIgA2596dkSR5sKwPVG0wJp8MpsgljWUAzdSFLz+gTdHhbJmVnTbYk50ciLEEBMXxmmv+uuUyF8BuB+PEyVJN5HUKnw5EYlp2CetZg5t/V0hl/3Ma8M5rEwA0CsRtgOQ4DVBHyH6OLbP9B8HgnV/9/BD+vnqrfyjU1BplG044lHS9Ql76iogIxarjQ3gOor/Li7sSh8TnDaIMFpNzl+pf7c1O96KWb6lUSBb6f95pv9BFKl9ptcW5uQux2mRLzGDLht86gqv9CpAlyvSNC1oLovSz+uwBy1lpy+ZzEtr8IMaBPw2U+2VzH5yimd9xRYBNs7TISjaLTvHi1RFYlgKTSuIYJ5KgVc51E0cbLdTiGVl5chvBGItwntdjHvzfFul8Iq0kRQvHWnFC5Cg3M3MfkifFxmexvNVP60g9E0hFQ7bs0nxa4HvukiQGwmn1VSm9zjG7WskLP3dAj/e2w8ahmp5QqEhFxlhzRPFeSssfwiPPvH1fAu2q45zjl4qiwJq94hA27VJGv9H0wl4EoNzcuaAmeNa7r9LB72zLVO6xpAtwfN1wLpSvK5BGTrz59qrpDHHr5ngTd6dh/BUn89jJaLxnWKMNhzgEslgJvcE+5rEM82XBNv93eGrQCuTeS7AKV2mTcCofxn5x+LVXxDOcuTVNwaYnuB9wKulbgMbppGP+kuyiz24JteQeDhEoTTbsBXXvkX6CA9JhspSO0gdH93EG33NAUx0HrP8iwqGQKumvJtzvMd53sTuv9pTZFxYPtNq3i1C90rud9W2CcDbis8hTpfw1QDrpfvoukgoyDMQ9NdjoS8kqjSDQBuP8C7jIVTqflJQLcSCb44Wv7byhQQbJMmdwHtbS9Rs/95CJMywTzXWPStOFVJ1KwLv2kq8zEZL8SfuI0AvN+jaW1CaLMpgf7EGFxUBoCaTStpIYDZ7ecM0dnH8GfbeEDN3/eXoIkmZffzfqYRmDQLU3I3fNFHgJgV29bhkokC6rgJfbJ7iiZrjmcJzQ9PkPuMZcEiI6cooalZWYtBuSHtFZa/Zced8OtvMSkPLAlhFTy7gOtq5yC1cvfejO8z4DaD6g0+ZzMA11sSdGPQC5rufGxa1mtdjeS+itdqai7bu3SeZjP8uslf1S4+uQY/srY8vMDh64qmTfyHX7Dg//XwWPgYc/KYwDKuyZW7uYm+WwPv3ljZGfTjpuCdVp8n0kG+u4EGexZwPYzWeRA62Lzh+JWOcI6bvAYCyh8OTb7T4JMZvLrRaHvRcgW5ZwU7eGUJVqKZT5APG/e+/x/PGyPDEXYsNPIZvtwjVfhy7wIuz2orMRcvLS8qT2lWXoJlKheyuT/ta/kmA24tVGvx3zQLcCVL0nTVbATdbqJNlz1VoihGZ2zttxzwtXjBPDSX6ZjUNJu1+mLa4o+7aZfnYq9Gl6KTPx8i//ZYCJ9SmEFA8VXJSIDrgv/8UvJCMSVvY9ur7xatV7NmK49EB32qZ1DVB8mR/WKkA8AdC8evdYTRbwmWgk6CWyevNOQRbi/M4E8XGm0/AqkduMxn38hrESAsb/Bv0nEJ9VQtdy+FRv5xjMb1AL25z9cRACqxMKTgqfV3o5Xx5y7vJO/5J4Fn0gvIX1ZMgQy4FZOqfXZsJuBKpaTpIqCHLnxDC/AFLWPxsGF9P0y8HNNVD4uLqR9qMC6qmpldWMstLu3zFB7+KxVoNGuO4Dc0UvYzNNz3qYC060opgJ0VLfZSKQIu250E2/2uvwDcNWh7uiBa3YcoDSZqtvvPdoTd9K89dBmw5eauAnwYdiK4TpwVmn11wzzO3De1biMuGAtQPL8CPoFfbJlXzpd7C/vxeUz6+9Gm/36kqLU8QrDWpST9TjzphPcJcJejaa/CqrCDaOXXVxL8iInbYKpc6nECwR7gbQbcByBeq/602YArXRKvK2HPZNGYpbZL8Esvi4o5ussAXH1VC1mZ9dPNjkFVxeLCT/JoAwqo3f6A2nacgKAPTxbpQLuImD2ISXU6AFKJdqXWZ4T7TYSuNwCbP6/rJB9UK0gRPNTKFpCf02x3o9nuR7MdvNoRRtBsBTMHt/ez9JBPtAT4fTfgthK+EHBfW9WJibkUZlQQ85D4/TCa7XuDaNcIPieuoG2jcQvo5YYCj8VJjJBeimD8PDWr/7Cq8KEb1GU0debJclSs7PsMuJXRqa32Sgx4kICNdw4UuZEniZAcxb9UqZkv3XACzmp/5+/9rYvyj3Cri+8CVpVu1N5FlI5bwoKqlrsUs6GVbRbA6E8h6ttu7bFHSkRpElzloq3Wy28zw6cn0jrbImjHer4d4W+DY+FT8m8PX8Cfi3YVn12ZhxbBlvnxKM98OmCzEzPqv60rUspmI5zd7XPbOrd890oEW2sb37rHZ5s020E025EJmm054UNaLBTwiHuwCMUbaykkQ9CYEcvyxGRDHvuePycuhfD+scKXa1pWpcFTntv0ICOjp3O+l7tD+MuazrCF65Avc3rQZNSv7rsMuNXRqy32rhfgJsD0phPPl1s4JhIoAbafJ9PZbNC7izcLBF4WGHMQTYfQhDgbifopFt+ZfD/j8VJMJUpdYcqs3xNPnd83mAIC7ncUc9h/riP8B4LdRwDuMD5M01J0J5SbK2mhX4T/0oC659Hs3l5jZDvPHvARiFvxmUdTOiCVfLZH8dl+dbrQbI8SIDVcgWY78dFICxvDL8H2vJUobQHXMqlz4AUFj8kGP43Ba6fIyf18iOA1fLma+I/z3kIiarCTHcJzC9qmB/0I6L6ppWEtlgYCuLqxRgn6rWxpmIw2rfZdBtxWeyJ1uJ56Aa6XkgDTLYpnBF5NgJMx8M/dgkyteQuFIC7EM2DshRxkESvzfApjzIuAy/8BXHud+pqNj3fGY9Rk1qw2ru3K+I8QeZIWABfkuxqwb/KYMgr8gIb37fcdYd/ZUvj3/QAui/wlavreZLLE51TmeQgEAsJqtNlnWOR30ADj132doX9u8cxbMVgqabY2hR/FdD5INPIBBA59tmq2o4QhX7zHZ1tO6EgP617AVbP8DYD7NClC5sKWA9x0jHOU1rS+8m5Myp/Q1OAIGu8VruUGNC7Hr54/pQe9ju/2T5x/oBdBCD9yO+VBJ1q06vb/AQAA//9yahjfAABAAElEQVTsvYd3HEmSp+mJKmqttdalWLKruqen1XRPj9iZnZ2bu717+3b/wHv33t3e3e7c3u306OlpVbpIFrUEqEkA1Cwy7/s80sEkCkBGZCaATMCdTESKCA8P8wj/+c/M3KxWp4Rc5pQEnj4L4cHTejh+LYT/cqwefnM5hPP36+HqkxAWVLjSgVoIA6+E8A3HjFLn4+chLOL9Ql7+VqUuT/vUP01lKXUsof5lr/JaWAvrFtfDhiW1sGFpCOt5rVkcwqrFtbCc7xfz+2JOuPDVWlj0aj0s4JgFHP/KQPGq8d4XH3OZIQk85p64/ziEr66G8H98XQ+/vloPo3z2e++PV3hNVR4z8nhfHV1ZC7+3PYQPd9TCd3eEsHNNLSzgvhjosc50pHzGa/hRCEMj9XD6Rj18PFQLx64/D6fv1sLQw3p4yjPi88Lt2fL6m2Xjs7GRB2vXslp4f1sIf3y4Fl7bVAsreeAWWlmJcvdhCGdu18OnV+rhH87Uw1c3QrhOxSPIuNWz6nU94vWQ9v9wXS38xcEQ3t9ZC3vWhbBuOW2gM+3TXDqTQC0DbmcC7MWjOwVcH/7nPHxreUo3AXwLGfwe8NDe54dhXg8ZUfy96qCSZJXq/4Y6mAMEMDQsY3BdQ4XrAdY1DDJrF9XDqkWCLb/xeSmvZbRnKb8vYbuYfR2UfQm6cXJAPY7R9TwwJFFP6/YJ98E9UPP0zRD+5kI9fHabQZvv6gzarcDWhkXAZd8PV9fCT/cKuCG8tWUgbF35ok/LXAC3URAMn1OXgPecD96flnhf8GdB4x6JE7Pip0p/rT9OMLhhr47Ww6nrdYC2Fj4Zeh6+BmyvAbZ3ufZFnKfKc+GzYBEQty4J4cCaED7YhjwODoSD6+vc67Xwqjd1iTKKQAfvhfDlFfrj1PPwGRPuq0wObtEu65+qjAEuz/n3mfD80X6An/44uJExgP5YRIf6nOXSmQQy4HYmv548ulPATQPhm4DtOzxwa9kynoRbzKDPDocw+CCEO4wUAibkpNTgOl5QDjQDjUEx/eYg7YAVXwDpYr5YxOi1lNFiOazWrUx4Od8JuIsEXAc4KnIs4GNkuam+vJ1eCQhu97+B2d2rhy9uhXCO++IbvhvfrxO1wgEeHAijvH6wthb+9EAI34HhHtqAhmNZAbiCY5kiuD7lz2NuqvtPakwI6+EJwGHxHlkMaC1bWI/30gLAVxCuUiZitp/CbI/DbE8BtlfaZLY+A2ni6n18kIfp3S0wy+218L2dBdNPk8ky7VWrdYs++ApNwy9OBiYDIVxEs3WNE7UCXOu3P4eR2werauEP9rClHW/Qni2r0ERVAP4ybZ2v+2TAnYM93yngjj14K2rhh7tC2L6mHl4B/O6CxKcYWM8zyFxkkB1itq962VJlVl8c8fJfB2AHHybooTFWgp4F+Mp+V/JS9byCdqiGXvIKamW+A3+j6pG3Y8BfcTx9uSHz4BNijqVTOTnhekRnDQNyV9BHOgmzD8uUBLj36Lg/2BDCXx6UUdXCbtjVGiZ4Tr5aAa7nElgfcV7Z3Qhs7jaTwnuotZ/YOMpi1CfL0Y6sps5VaEtW8H4J373KPdQKeK1BsPUcqs6vcs/LbI/DbD9tMFvVyO0yWycmTjpWcF9voF1HUN9+BMgdheG+trGYeLSSgdeYihqHYdp5nDb+zUnU3aiWzzGjucZ3ZUp67t/huf8+gC/gvrM9hB2rnfQWav4y9eR9JpdABtzJZdO3v3QFcBnEPlLVty+E1zYzIKxgBszAcx614deoED++zoONHWuU/bTtMimOA5gDZbvFQdjiINRcEpg7QPLcx/MI9A5GjJtjA7Pvc2ktAboxlk7lZT10f3hG/3sPQLBKF/v6Mf33jEb8waYQ/qfDA+E9BvetsDyB0b5uBTaqrwXZW7C4obsA4kgINwBFQedB4yZSE7IaMNsAiGxGNboNle0GnAcE3la2UQFd3B4BxIeo+8zN5wBt95itwnrGde5BlXxkLer0zQOwfJjueuy52E3V5lQp6bn3+fybk8/Dx5cDDDwwGSpXSwLcN7Ajf7RNpo2af+cAkyDagrw03+TSmQQy4HYmv548Oj147TpNyVruMWB9D8D9Q5wn3uXh27O+FhbCRq5CQc/crIffDYVw8haOWHy+yQD3iAHXAeo5Y0QCyE6Ek8DXOiKTaVSmzTcCBufqSkn1VBvboD6Ns1c9brJGV61vsv0n+z6dN/2ePk/W/rTfZL83He84XMW0YN/ap9oB6ug6f8yE7n95DcDdCtAwsVuG7T4CbjrHuK3HCvI6CQ0ChBduP+eeBFgwdwi+I96P8SYp/A90PFoHiGxHNXoANr1r7UDYzHlWAuz6J3iu5mLTErOVLWuz1UFKm+1nXWS2yzj3Otq2n3Yd3VILb+IkpQp3GxODdlS4ceKDcE/frEXA/TUM9yQaqUHk1Jh/NF/mt94nwD2MNuB92vE+TPv7uwfCXiYDagl0VMylMwlkwO1Mfj15dLcAV4b782hbC+EQg8EqPIgfQmOuAbKn8YA8CfAeZyA6i4r5kixDusPgxW4B5+IxFW+nQmoGX+sqM3h0es58fHkJVJ1gJcB9BcCpoar4MYP7f3gd++XWWvQX0DFOdsv/CYv39ygzLz2FTzDx+4p78Etel0Zq2HCx33KDyEzFXB3ytONa546V9fAmNuLDvA6hst0G0Am6suDmIqBPxGyP3cAb+U7nNlvPNcZsYY+v05Z3mGzsp11bYOK2qYxKvbnNvk8TkTNMhFUp/+oy8gFwL90vnhnlPpUGKgHuQQD3KFqH7wC4P9gzEA6g6s6AO17a7X3OgNue3Hr6qG4B7nfREwu47+9iUEDdtQE1V61Wx0ZWi+q78zCLY6iWo133TgiXBV0GOz2aVfk62KWxbKoHvaeFmRvXdQk0A+4imNOPAdr/8EYBuCtRry7hpplKnSyoXsM2KbD87hIOW3jjfs799xUOQ3VRFmAZK74XuQHdQ9T9OvbIIwDbW5trsN1a9IhexfeJ6SZv5PHM9tOrL8C2U5ttYrYHZLa043Ums68BcNtQE3SiuvVSbf9ZAfcUy7QA3C+ZGJ8HcCMY89tUz2EC3L3I482NAC423J8IuKi4y6jgx2Se30wqgQy4k4qmf3/oJuD+DMD9YKd23FrYhBrO9Xh6ot6HYdwGYC+jxrvA2j+Xhpy8wwOOzegEKixpKH5Nke36kKu2m+ph719p55ZXlUAz4C6Bzf0YJvWfANy3Ad607nQqwL0FgJxCu/LFEKAC4H7FvXcBsB3kngO/xxz5Uru4VSNjXQXormcmuA+geweQk1keYRuZLiAjE7Ztw9y/qqqTzbbrzBYGeQRm+wbnfxt2vw9zzWaYrbbrKl7J6fqatzQ/nANwf3Ha9ffIiAnxeTRS2tfLMtzdtON1VO/f2T7Acq1atClH9XuaPTefML+vJIEMuJXE1R87TwfgOjDpdKLXp4OhKrdHMI1hBrqrsI1zOFOd5nWMh/0CIDyM9+YwI52BDVxQL+NN9l2lmMG3P+6l6WhlM+AuA+h+AuD+xwbDTQxvIsAVTGRwOkd9hn3yt1dC+OUltCxM8m4AtjpuTWRL9nzegwKvBPgg53wNwHsNhvs2ttP9EfBUOxceydeZSJ5O62y7yGz1RtZmK+C/LbONgM+yGxotg+yWU9J5JsB/C+DKcGX/ZysC7g4A9zVY7Yf0yx/uK5ZqZcDtzpOQAbc7cuypWroJuKqU34PhNgOuEYAc+HTSeMJopor5Nt6hAu95VHsXhutsWZKATe0c3196jHjYFwIRgVYbb3JUycDbU7fOjDRmIsD9T29ixwT8IuCqUp6gJcm2epmJ3W/Ow+AA3V8OhfAFTk3eXxbvqwXF25f+ugRHFwOBdwU34ioA7hDA9y4TSW26ewAY7ZSu5b3M/fsZ3sgnWGd7oks2Wx3EVNUeBOiTzVZmu2l5d5ht88UKuH93BhtuQ93eDuC6RKkZcKPaPTPcZjG39T4Dblti6+2DphtwmyPOMH4VayGhDy6fuIG678owXqMMiudhHucYvK7dq4V7sGGXEPFTuMdLxmtpZr4y4IkGy2LP/HeuSCABbo0BfAVsKjJcAPfdEoCrnfECWpRfAigyuF+hMv2Me24JN6J4MNkEzt8gwVGtilImOAc8DAC+hQfufkIZ7mO7Ak8/nQJVJ39G8IhTgO2lB/VwnQNxZ6hkFhHcx6+z3Y/9+C0A3pCNR7DZ6iDVTWbLKWMRcH+BfH7TKeBiw/1DVMoGI8mAm6Tb2TYDbmfy68mjZxJwFUDyjtQ79AEjzV3UyTdQYw3BeK8CuA5gF/EovQzwnmUAu+hop25PViKV4SXrzU5WyGIelGbA1Yb7M2y3/xHAVb1rKE9tqROplL3P1KhcwPP2XwRcGO6/ArifArgrWgBus1g9v0x3FSi8gfNtI7LVDhDV0KHfcF/e5B49I9hyHxvO0fPKnCcD8+a6fS/YekwsDWZ7GEA3mEWy2U4Hs/V8njYCrjZcAPfzNm24r2HD/WAbfbN3IAJuVinH3uz4TwbcjkXYexXMNOAmCTjIaNt9woijl+ddBi5DzWlzuwjwXnSL+u/mfZgEvxuK7i4Dmow3DqZUlMICJgZs3TJfiyxlolJ2IJzo2PzdzEugGXD1Uv5pw0v5PQB3BazTZTqTAa4hHC+iPfnXszoFhfArbJQfY7ZoxXDTVXoPea8ZvjTeVwCijlRbYLdGMLNtLjkyXKN2YWJkTMmcU71pK9hOyGwbNtvD08hsaXo09SSnKZcFfQXgXmBCUsVpStV34TRVeCkbiCMDburhzrYZcDuTX08ePVuAmx54B7RnAKmRgPRmHmF0U9V8i4HxBqz3BoBrgIJrAPLgg1q4TiScK6icXW4Rma8VWdJWwOUlCAuuzWDsbske7PtcZkcCVSY9CXBdh/sKgPsTgDatwzUEo8kpBFy7vbmk++vSXRymLmDHBVD+ZRAbLtoT7zfLZDbc4tcXf5NNV9C17YsBXo9l1VsEJ7PmuE8VM8dEzNYIUjLbo1uw4aK67pY38osrefHO584Jr8uC/vZkoXI/jgf3RSa9Am6rkpYF7VfVzsTA0I4/IvBFXhbUSnLlf8+AW15WfbPnbAHueAE5AIwFlX9cC6Po8WK8WwaAm6icrwK6Zje5zudbMIqRJ7XIjp8CvA8ZlY1elUIGskssepq+0hg8Ehtu/JQ3sySBGFwCsCpbEuA+F3AB15+kSFOoMNez1tuQhhMBrvXb9deZtH3JkqCPB1EpozY9hqPebTQmesSXDbgi043zOyp0y9wvsltRnmZN6O3M15OWyZit62wF3EMbi7CV02GzTY1SrsZ9Ps2SqV8AuDqVxcAX+Fb4LLYqCXANfPEOEwQDX/w+gLufSUMOfNFKeuV+z4BbTk59tVevAK7PuN7MKW3aU0aEx9/UwoPIeoulQ3cA2juw3BEBF1A23ZugfIftXfcDhEcYEUcZMe4xmNwBhF0HHO2/8QSNrkkDStr2VY/1YWObAFaG6HIcIjJG8Gp1NQlwn8Iqn4B8fwQY/fsjAzEdnAxQR6rINiepyHWyF3HIO3YNp6mLhZ3yDKYKveGrqoA9RTNY+lkwrsLYm5mtCTV2AliHG8uOIrONy466741sW5uLz4VOXydv1sJ/J5bybwHc00xGBnmeqgDua9i0td+aJvC7xFI2tGNartV8vvy+ugQy4FaXWc8f0SuAO15QEXwBRGfhj2WxjFQPANYHAi0qZe2+owwOd3ndhg3f5bNxcc3Dex9dmXl4VVM/IS6eIG59vqQ96b0qQfE4l+mTAJgScw4rc7qNuMV1+oe+RPBlBnZbJuhySDBb0B8CuH95aCB8QLYgM9OsQaUZAbcJ1D0mFe8bswKdwxv304Yn7jEcqS5gsnjovUXdVUEz1V11S1NestluZLJgbGS9kV3+cxDVrAkZppPZpjbr4OUz9DVriP8/GK4agHP4TVzhuzLaoMRwjzLp+e4OYykDujsGwi76xDXK3VonnNo7H7cZcOdgr/cq4CpqB2kHZV/OyJ/x5hsANKZZc9AGWAVg0609hOE6uPp6zMw9gi37ODA8w7jmoG1FbhPgRvCdg33aS5eUcPAJ/WDfXEcfe4JgJxcAQWc79kcrhpgAF+1w+BEM8N8ecHAnCAV2znUwLJeeTeQ4pRyKIP2Faln16XGW8HxyFaDBmcqY3oO0qR2ma91VCqcZm2BMxGz3cS2bAC+X1HQaQapMu5yQmtDhGPIoABdNAPK4pR2mREmA+x4e2z/eDeBiwz26tSmZgrr2XDqSQAbcjsTXmwf3MuBOJLEGbkYgfQrgqnYWXH2vPdeB4Cmjm1uB2aUbEbT5/BykzYA7kVSn/7unTJR0iDuDevefrhDPGE/05/RNnX4pDbh0/vfIgfvzfbWYms64wlsIIToV4Hq/OMHS/GBM5bOw28+w6R7HI/cEKtQrgMx0M13BVtbI7Rnz2TYz2yMw2yOw9s0NZtsqDWC3eirGmMYnQvv235x0LfELb2tM5S1LBFz6zixhP9sn4L4c8KZ5/X3LyvIOE0ogA+6EYunvL/sNcJV2GkQTkAqigmlSHT+vF4zWz8Vv/O5x7Df2ihXVY12+zWV6JeC66xHY07FrIfznU8/DrwE8tRJlANeWqfodpRPfA5h+fxdOOjDcD7cVCc9fAbFVK09WODROvFxaphOV6flOoEr9XKYL6E4n052I2Roq8jBA+9ZmvZGL9H/GRi6T6H6ya6z6/TBmGG3bn+G5/Xf0h3GUr9Mfd5gEtQJcnynXJuud/YO1tfBvDhYah71oH0xaYnKHDLhVe+Tb+2fA/bZM+v6bfgTcMkJ3kI3gynYMbBsH+n0svElvG9/kzTRJwPtsFPugIPe/fkX0J2yGOjSp2hQsW7FcAdfMUocY0N/dEsJHLkPZU0R9WoDrc6sB3n52ghaZLrbKczJd1KknAJoEut1muhMyW2yc0WZLRKYD2mx1/GK500wx29S9N1l6d4I0hZ+4XOoc3tvIw6V2RncrDbhU9hNU4X95uADcnYDvGlT8qsynmgClNuTt1BLIgDu1fPry17kKuHZGM5iOgey4XmreZ9xP+WMXJfAMWvTwaY0A+fXwvx1jkL9MdDEcl7QZllmeI6u6DxhshQkewBP2u2Sn+ZMDqmMJZLGgFtnhFCQ3Xol9rYkhMd2zMN3j08R0WzJbvZEbsZFnktmmLh1i0uFSoN/RD7+7SDpB7OojyKbVGtykMRpW2ADrz4ky9T8eHojp+bbA3Fdrg+a3yWzq6fx521oCGXBby6jv9pjLgNt3nTGHG5ySVxy/UQv/19fPw7/gMWzGqCG8zMsCrmpMQyxuBKi+txVv5cNFrlrz4i6GlrUCXMUr6Dr50tHu2jQx3QmZrd7IRpCaZWbrtcv0TRjyT+dCkQcXrcN5Jj/K19+mKmniUwNsF+GN/Aeoxf8KwH2f/tikHZoJ0WTroqeqN//2bQlkwP22TPr+mwy4fd+FfXEBDuSyy9OmgztbBKHQW/gUjjvLGLxbqZQTY1RdaQCMHwJefwXgvrcNAMZxajkLe8sO9GLKdDHd1E47JXkjR5stQPsWqnDtnLPJbJ34PMLB8PStGs5SzyPL1WP7Cur9VmDrNSVbuukDt+Le/V2A9t9hwz26pRYDkSw1EIk75tKxBDLgdizC3qsgA27v9clcbJGDuYP9JRx1jNtr9p5/uhDCJ4RahBi1BFxlIrtiFVh4yOsn6wPLg2pxedAebIdxeRDfl1VlCrpTMd2LLF/S+12AAVtKt49DYhGQmr2RXWd7gNfWlXgqz4LNttGseE0uB1KV7nKgT7ClX8SRTIepMiUCLhOnjVzDITyUv8OE50/2F+uIVScvamUALnOSvE+UQAbcOXgjZMCdg53ag5ckuAmYMdQig/2vUSn/tzPYEWG8qpTLjtNxwKeeD1n/+aPdLg+qx8xBW1HZLoQmV3HWoZqJmS6e1KdgfecB3SGAqMw6Xa8tqmS5loWw8H1LiYusN3JitrPkjTz+VhihkZdRpX+Bd/IvTpt0Hs9tg8cwU2ilZbCuuBwIwDWk45s4fZkH94d7mEzgPJVDOo6XdmefM+B2Jr+ePDoDbk92y5xrlOAmy73zAA9h7Ie/A3D/TxjWL2/AIGG+ZYuAq7fywWUkocd++MF2lqbsMYZv4TxVNcKR7XqJ6QK0n+O97DpdVa3jma7tbAYmVchpja0kcV2PMtt0nabCPJ68k8/jncw1mnvaLFzN1+V1TlQS4L6Dd/X3dhQBL95na4Sp5Lw20XH5u+oSyIBbXWY9f0QG3J7vojnRwDTguyznOoP+xzCs//348/Ar7LhmiXIgLzPgyyT1VjZNnmEQtSH++cFaeIMgGEZpmixd31RCtG3JpisgpXW6BoNoZrqcMmafambRqpAhwrEsZf3pGLOd5XW2RYte/E0qfdfe/vICEx48lD8b4lpR6ZdxlrImZW89xCwJ30WdbACS97fXwxFkvwk7+uISy7NetCi/ayWBDLitJNSHv2fA7cNO69MmyyS1i5pw4gtY5H8+gfMUNsSrrAk1r6xA1gp0k+pWte1CEPD7qDX/4uBAeBdbogBsLlbrKGvLTaKkaZHppohUrtO1jSdg4CcbTPcBbTfYQ3MhgFZUh6+G2W5AN75nVT0cpU1HNpCqju1srbNtbqPvfc6d2JxkKdTfnnkeAdfJxNWHTDbG7zzBZ5m8YGsxpvVPGzb091gPvSuuv62jSq+m0i9qy38nk0AG3Mkk08ffZ8Dt487rw6bLJPWSPQmQ/TU2xH/Feeok4HaJgV9bbivA9ZIFXUFCsHufUI8/2yvT0l7K0hSYlrbcVoEwJhKdeGL7zKIjCxd0T2JvPkZbz6IGv8jEYBDQkuE5ebCsBnw2ALbbMfTuRa1qPtjXANrd2DRn0xu5aN2Lv2kiobr8F6dD+JTtVdT7Ma/0i90mfafMIcNhEde7BIepH3KN/wNJJFwOtLGxHMgJE/9z6ZIEMuB2SZC9VE0G3F7qjbnflqjaZPQ+T0jFf7xQrAP9Herlr0mZ54BdxnlKm6m2XIHvddbkvs9yG7PVfES4x72wreUw3wWAYDuDP1UWTPcJoItzkSpYQfcsbPA8iHMTF2mjYxkgAuwJyzjP2kX1sB2bprlg97DsZx+g61rh2fRGTneSEwNlfoPJgpGlPkWV/I/Ybr9iMvGggu022c7XINvtK1Epb62FP8dL3KhZq5dpv21P3qmdefttCWTA/bZM+v6bDLh934V9dQEJAK7CIFXZ/haG+4uzhFmEQZZJC5cuVsalLXc1AGBe3A8B3T8liL4A0Coxfapjsi1VR6YrEzf/8iBAOwjwXgHhb8IKzdHsczMA4i4DaNbgsWsbduKVvBmGvRaHLkF/NiJIjb+mtO72fLTdYjsHcL/ANn2BCY6TBjUFZUpylkreyR+gSv4xXuJ6J5v/dqZDU5Zpc7/vkwG333twgvZnwJ1AKPmraZWAoHsHFbLsUeedvz71PHyM2tb0faZhLFMEXJnbfUDvG1jmH8Aq/0zVMstUXJe7FtZlEH1Zc7vFdmpzNubznYeALZOEu2wfPCE5RgNwlyyo46xFDGFe6wDbVYsboSalv7NcbL9hLG8zSTiOfP+Wic0nQ8/DRcI43sKOTtbKUkVZ61jFpRfJI3bqHU7QEdTJ21cb5as9FX6pk8/jnTLgzsHOz4A7Bzu1xy9JIBBcbwEEX8Jy/yvLg34H6xoiVd4w7LGMHddLFAhkaJC18DZ2xA8BgPdRdQoGu2Gb3UiELkPUrvuYk5kK0qxHJm8X7AXzVwHWRQC+3tGyPJclteO01e0uU8a28Raq5DOsdVaV/Peokr9ElXz3MUDMNZSRc5rYPOJaDTryIxjtn+0HeJHxPtTnG5nY9AKT77b8eqG+DLi90AtdbkMG3C4LNFfXUgKCgUxW56STN2s48ZCuD2/lU4DBIGyySkm2xR2oNfcBsu9uHgg/2K2XMEuHsKMajEFgrOq1PFkbBDE0zdHOa52CVqx/sgNm4XuaVyxzYvJyCTX471DbfzKENmEQezTqca9BIC0LuKrunVSsxwP8Q1T2f4bt9h0mN8ZOXtVl+c6CuHr2lBlwe7Zr2m9YBtz2ZZePbF8CcdBnIL+MetOoU7+Fgf36Eo49DUAoW3NiYMYtXgkovLEOFrarFo6iWt7Le/OzdnN9qGDmhCEVQZf/PVNS+/RKdk3xMRy+/vYcqmQiSg0SwvE27LZKcUJjHuJdAKtZmj7YOoBXeJHP13XPS5B5tyYzVdo1H/bNgDsHezkD7hzs1D65JMFBlefXrA39GBb2d2dJhA7Ldb3rYwb5siWBrl7Lb8FqP8CB6m1e76Je3s2yoVVLCrtqBMdeQseyF1hyP+WpCvwx8nNZ08mbBLdAc/APF3GUwitcr2Rtz2WYradUrkll/yZy/QhW+wETmY92KtcXaRFLNi/vVlECGXArCqwfds+A2w+9NDfbKEAYjEEmpi33v50CILTlErrpNt+XBQalIzjoSbscr+HNrIl9C5Xyj2G6bxL+cRtRkdYAuguoUM/iuViUZbKNj6CWP3mrHv4ZoP1kqFDVu865qhe4Wohou0Vmv48j2p/AbHVKO0h86E1oDrRXz1V59sI9kgG3F3qhy23IgNtlgebqSktAkEghFU9hy/07IyA1bLkChAN+2ZJYLjgdHgIQ72Nf/P3tgXjLZLIRdGNwhjq2yCIa0lxSgwq0Xr/MVo/kC3eLpT//COB+ifbgNhOYe/ymrbnsJMb69ExeAaiqOv4A2+2fkhXI+NWbSByxCntuN23jZft5Pu2XAXcO9nYG3DnYqX10ScmWO0iQiY8HWR50pbDpfo1t9wnqT9eKli0yOLSmMSLSBgM0sDb2bZkuATGM/rRZJx+YbruRqMq2Yyb3E2wjEwVQDZl5Do/kf8Um/jkZj74CbC+TWF4HNQG0LNja/mS7PQDYHsEW/t62gfCj3aTkwzN5Jd+1E7N6JuUyF86VAXcu9OK4a8iAO04g+eOsSMAcrWexM2pz/MdzMDSiIt0GQEYAkrIF/50IPoJFVIXCzr4DG/vBNhKkw9AObSyY7srGWtl+ZmhcYlQhx8AWzEpuEaBDj+RjAO0vsYcLtoMss7rDDKRsyMwk56gtaNi6X0d+H20vVMmuu91GGsS87jZJanq3GXCnV76zUnsG3FkRez7pOAnEABMA7NcA7d+fLdjuOQD4Gt9VwNxYq0wX/A445YZNMN3dRH56Hab7feyPRwDd7YDImqWFetmYy/2oXk6aAaNeGZTD0JO/YrLyBYAbl1cBto9gtnVeVZhtUiUvYbJitKz3kdvP9w6Ed5DdToJcrCWqljJzspLL9EogA+70yndWas+AOytizycdJwEB5Amj/WWiT/3qkoALeLB29BzLhO5XVC3LdCPLtU7ePwM8tOl+dzPLhkibdxAQ2Q5TW4NzVXMIxl4H3sRqVSNrr9Xh7DrAeoGJict/BNzjt2thCAA2sEhVZmuXCLiYgcNmlgHtRUYfbKmFn+5looKj1GrA1mAiyinjrdKa3pIBd3rlOyu1Z8CdFbHnk46TQAITnX5ka5/jXWveVjP13MR7R6efqkxX8PAYA1WswXt5K+EX9xMcwyVDhwDd/Y2MPoKuUaIikPQokiT5qEJ+yoUNPwRYofBfs/Tn13h4H0MzcAW7txoBvbVl+VWYrd2R5PUEBnvUCQoqZCN3vbe90AosRoZGlepREY27o/r/Ywbc/u/Db11BBtxviSR/MYsSSCEfTwEk/wLgfgHwGnh/CB2xXrMy4bKl2aYr0wWjwhFY2ls4AR2CsekAtIdgDptZ4mI8ZDPeGH85Ae9sA0u8VP64FWh1IrtP4ArjORvE4gxrlo8hp98Q1OIznM6+4TdVyO0yW2VrIIvVeCAfRTYuqzoK4O5FRkmV3OtagLL3Rj/slwG3H3qpYhsz4FYUWN59WiWQgMUMPZ8Ctp8NkrsVVek5QFcHqgcAStWSvJdlu8thbzHDEHbdXbDdg+tRM8N2d68ZCBuIC7wCh6rkxZwAdzZARpBVdezrGUiojXsUTzCB9hRrbM0hfBxWex5WOwgAD6NC9jrbYbbKU3brhGY3HsiHmZAYNOT7AO5BtACqkmP6vSQQD8hl2iWQAXfaRTzzJ8iAO/Myz2dsLQG9lgXZY6hLfwXTPYFq+SrrSW9CVQUhwbNskem6v6AiiwOfwkrY7BZsuAdW13GoUtVcCzsA4I2yXShiVDPDdlPGoTHQBXSmA3doEhfmnwbI8l5GK+O/T27eW9Dza2RpuIi99msBl+U/XyOf08hpCZMQtOKV1tnGEzX+cIqwiIsyXvJh7LYGt3gX262qd23dC1i7rKNULjMrgQy4MyvvGTlbBtwZEXM+SUUJmJHnHirSc9hzf3PxeficCFRfA7qXcBKq6kTVfGpBN5VFAOoKkGoD6uTtK0LYA+juAXRNgrCFJOtr+X75whfezB4X1c2NCsZAOFVYcTvWFN74/mVGW4vXfwOb9iUCWZwhX/BJwNagFjfv1cId6OgdZhHKyQmFparN1mMEWych65DDdsI3voUX9w9htq/hYLaFdcwGvbDeTq/Vc+VSTQIZcKvJqy/2zoDbF9007xop+AgExgQ+jgful6iXVS2fAXR0DBoBKaoy3STEpGJWhapt9xnsbTd2y32A7i6WDAm4O3AaMpn8GlTPqwDdJQtrRQq+V1A5syYmLo3huAREVVgvp40Iq3b8OX8MTOFzKHg+ktHi5WV4xpv3sV2jQr4wzMQDwD0Boz1j1ChZPsdA0CPYtgO0NsHi8p5FXMcOwPZ1wPZtgPYjAoXsYvJhYnknJekaiyPy35mSQAbcmZL0DJ4nA+4MCjufqpIEBFQTqJs39yw2y98QQekrHIROw3qv8p323CqRqMafPHnlPgN0wJuwFKq4imTqKwHfDdgttwK4Mt1tMD1jB6/nu9WA0HL0r9o0FwC+5sOtgUgcXgqYIotl3wJoybHLyR8CoKOoje8AsjJaQXaIicZl7NjXiBR1h6AWZvkZ5WLNY2u7nTSYQJ5mtF2sR9X6epj869iyv09SgjdRI+8y9jTXagamrEpuW7wdH5gBt2MR9l4FGXB7r09yi15IQJbr+tyreOF+Cdh+hWr5C+y6Z2F7t2C6o6hV22W66SwJeCGPsch4t6Bi3QEQbVlebwAuoEuwjDV8pxdvAt2Fr8p4YZpQRQP5+5IRCsCpRJAVIHnpFBYT2vPBhPbaZ1Wd3+VabtGAG4DrILbaQYD2Igz3Mt+b5UdGC+a3badNbUnbxGy3wOBNu3d0UwjfA3D34SSlGjmHbkySmr1tBtzZk/20nTkD7rSJNlfcBQmIgQJWzO8KAJ2G6ZrKT6Yr6F7vAtO1mdoyZY3RuQq0dGnNMsDTZTLLYb1mIVq+qI7NFwYMy13JDm5VN6t6Xco+iwHfBewfwVfQ5WXbnwOuEWRhs3obqxL2ekae1MKwWycObEf5/j7fjdKYh7BZbdVGi0qM1nZ2oj72eIv1raKd2qj1SDZ045skedhLRqD1oLpq5MxsC1nN5t8MuLMp/Wk6dwbcaRJsrrarEpAZPsK2OQTTPSbTJYSh2/PDtXADY2wnNt3xDRWQLJFdswUHo51zMUC0HKBaidfuShjw6gjAhePVMgBXL1+9ml8FFV+pFZU8h+smwI1exwIugCrADlPxyOMabS/ar7r4IS+B38JpOrbRFjW9+EszYzu3YgDWVv3GRqJJYbPdB8tdx7KoJewwnqG/ODq/m0kJZMCdSWnP0Lky4M6QoPNpOpJAZIoAkSpYnYmMRvXJFUIZXseRiPeDqGNlhKqFO7FrNjcyAa/fJXupqljttjJgoy5p51zM6xVQSvYZGShbvhorzBUKdTJts86oVgbNZa9PeEWnKb4X4BPT9uB0zrGKOnwTmS0TBdXIMluTyb+OKnk3Ntt1y154Y9P8XHpAAhlwe6ATut2EDLjdlmiubzolUATGwJkIxyLB9gQs9xhb1cs3WGBr4nodqQSvbpeXAHiC+mXClrQtPr34C9bFkrZ+EMBT6Ya6ONU1fhuTEcDAtwK2ewFbme27AO4e1MhrsNmqOpfZ5tI7EsiA2zt90bWWZMDtmihzRTMggcR09V6+g/32AkD7FU5Ux1mja1zhywDxXWii6tnpBLBm8O3ksqe7jdYvqK/HzrwDj+sjhGw0ipSxpLez9MkoUtlm20kPTt+xGXCnT7azVnMG3FkTfT5xBxKI6lf+qF42OMZJwhyaC9YE7IMsqbmJI1JSMXuabqmZO2jyjB8q0K6Aua5H/71tZZ0wlgPhMEB7FAcp89quAITzOtsZ75bSJ8yAW1pU/bNjBtz+6avc0hcSUKMr232MI9Uonr2GPTwNwz11s3CmOnO3Fi5j0L0O22W5bNedj160pPfeyb61LevEZS7gQ6yxPQLQvr6piB+93rSEgG1eZ9t7fdfcogy4zdKYI+8z4M6Rjpynl5GA12U2V1Enm7T+OCrmU7Dec4RBHLqPFzC/3UPFzKYrASN6TdQ6Wllk8Tp0GcBjHYC6CXXxbiJGvYa99jB5gPVEXo8n8iL0zLLfbLONYuvZPxlwe7Zr2m9YBtz2ZZeP7A0JCLrPANSHsN27BPm/Cts1Kbs23VOs2z3Le2Mw3wGZ9AqejuU2syGJBLRjDmKA7SY8srYRNmvfmnp4DXvtARykdq8diEkZVrCMaTEXn8F2Nnqr+jkz4FaXWc8fkQG357soN7CCBFLSgxtEatK2e4bMOl8DuheHUS/Ddg36Pwo4uyZW1auBLiCEsUynA1PjFB1vmp21XDZkmw3QsQJ6uwZb7WYiYxmacT9s9jBZkHauJkwlrHY5ATsio5XZdtyKXMFMSCAD7kxIeYbPkQF3hgWeTzetEiicqUwCALASVEKnqkt3n0fwTWrmC6ieL+BU9QS0fQzjJeBSR+ntpvWCmioXbL2+tOzoKUC7EaDdBNDu1CmKJT77UCHvBmy34ZG8LtpqC1ZbxHxuqiy/7XkJZMDt+S6q3sAMuNVllo/obQmoYtahylcKlHEFkDVYxnmWEZ0n847xiu+gfh42ljHAq0ezZUw9y3uZb7eDT3iOMqWZycrCLSZZMODGCiNeAbSrYK3riO9sGr1dMNn9AK5Zfkw1uHpJUyCLTGkLAfbZ3wy4fdZhZZqbAbeMlPI+/SYBQdcks0Zx0pPZGMXDqJNjNp4RWC8q5ouCL9tzLCMaJFOP4SFVSadE8DLfZO+1uulWOSebbMwERNtlsr4i+MJmjWy1WRstzHUXquM9qI53kk5QtfEm7LZrCWBhpqOl7ONyn5hMIYOtXdeXJQNuX3bb1I3OgDu1fPKv/S+BFCzjKfRV4L3DcqGrgKyAe5EUeBfJN3sVm685aI1tLOO9J0gD1k95CXguLZqsJBvwZL9P9H1irSlusvvIpi2JyRoyMsZvBumXA6ImT1gL2G4hwcB2VMa7AdrtqwZi6sA1i1EdEwe5WXWcvZALefbr3wy4/dpzU7Q7A+4Uwsk/zRkJRBUzV2PWHpMgPHwKsLJO6C6p8cy3ewMA1tFq6B7rd9lexav5CgB8jd8FYI8LgG9iv1EwDYBMzBdMjCVtGx/HbK7pswAe7bCCeDOQA7AGYa6B4JtRGW8k7+4WVMPbYa+b46uOtzEZfXCCEnhXsfRnGSdbyr4LOcZ2CLIZaJOk+3ubAbe/+2/C1mfAnVAs+cs5KoGIcfzRVmsWn8eAqaz3LuB7C9C9CuAOCbw4Wwm6d4nP/AB0fMg+7uvzoofzE4+lDrA7YAYuXsgs2V4F1MSKBUJB2K1s2GU5mF8DeMqrFgNQmGVoAa/FgOciUv6Z/m8dKuKNgKvxjzfDajfxWsva2lX8tpR9FlKRafQSwKYtp8hlDkggA+4c6MTxl5ABd7xE8ue5LgHwMTJLtyZDUG38FDA1V63geh8PZ3PWDuPJbK5at6PYf++ibk55a0dBWW2+5q4dIZG8gTUeAMIPqGuUl4w6sldAVUcnl+4sByC1rS7ntYLcuab4W4ka2CU9hllcCQKvBEhXYzxehS12RXzxO9+ZNm8J+xU5dwuQjutpOU0GWoQwB0sG3DnYqRlw52Cn5ksqLYGIi/xx65/ngOUzgDPmrkXtrJezoSONVjWKejm+/M73gO39xushYF2k2uNY6qCKWF/UEvNnAfQ2hlsEbM3cI4AKroKta2RNZr9CAAZkV7FdDvguYbsIYDa/brLNRpAFwC2NTfEh/51zEsiAO+e6tFCRmXnlOIHf/8uxevjNZTw3UaVdZYbPWNCyPGJmr43ru3hL/vxACO/tJG4rMVs349RhVBtVXrlkCfSyBCLY2kDeRJzkj4Cph/M36Iif4MWUVMlP+Swjfsx3ruP1swDrd4L1c6itx0ZHLar09peBDvDHZ0Gv57gFRGW7vhYAqgsboJxUy0Ui+2J/j48v2+h7t7nMeQlkwJ2DXZwZ7hzs1HxJXZFAcrSKW0GUWrXR1gXVCK6y4VrjuwJk6+yV9o+NaABkDcRMoOlWe+4ruCjLWF2+4+e4DwfF/eLnDK5d6cg+rSQDbp923FTNzoA7lXTyb/NdAoJsRNoXm8I+6+cGCLsFf0MtbuMRY/u8YKSN0Irsl1gvmBrBlc2LrR8sAm7xLv+dpxLIgDsHOz4D7hzs1HxJMyqBAmI55dibl97GtkTwHIeg4z7OaJvzyXpfAhlwe7+PKrcwA25lkeUDsgRaSqAJe+O+GVxbiizvME4CGXDHCWQufMyAOxd6MV9DlkCWwFyTQAbcudajXE8G3DnYqfmSsgSyBPpeAhlw+74Lv30BGXC/LZP8TZZAlkCWwGxLIAPubPfANJw/A+40CDVXmSWQJZAl0KEEMuB2KMBePDwDbi/2Sm5TlkCWwHyXQAbcOXgHZMCdg52aLylLIEug7yWQAbfvu/DbF5AB99syyd9kCWQJZAnMtgQy4M52D0zD+TPgToNQc5VZAlkCWQIdSiADbocC7MXDE+AeI3nBf83JC3qxi3KbsgSyBOahBDLgzsFObwbc/7sBuBdztqA52NP5krIEsgT6SQIZcPupt0q2tZuA+zPS832wM6fnKyn6vFufSKA5SYHvyUg5lhHIzEGGcfR7y1hIx7E3fElcxxTa0UxAlpQ56BXejGUHSt837R93zn/mpQQy4M7Bbm8G3E5VygLu+ztCeG1zzoc7B2+VeXlJAmnMjcvW3LjPSAv0lJR85sp9BvI+5ceUqm8sD66Aye/1BriOZQfic0zHxzbmxOWHV/niFXLivkqqPpPM+/0CvnO/XOa3BDLgzsH+d+AwAX2zDffcveoJ6D8kAf3P9sNwG4C7ZVVOQD8Hb5c5e0kS0giuPA8FwBZAar5bk8s7MX1s8nmSzptw/onf+5nvBWFfBeAW+XD5OMZ6zXVrAvoaYCqQFqAKyAK0CwHahewg2C54tUhI7+cF5sqN+wPIHt84NjHjOdsR+cLGJJABd0wUc+eNgPsQwD1+vXCa+vXlergwGsKVJwwAJS7zEQPOPQahj1bWwk/2wXB31sIbm0PYKuAuYLBgoMglS6DXJSBYPmkA6qNvauHRN/XwhPv6Ea/HjW16L9AKuE+49wXjBLgC9jOUym4TgEtUBckIuIKtL54JX4t4CawLBV5BFsBdzGuJWx6++P2rtfjdolfZj/cLOCaDbq/fTd1pXwbc7sixp2oRcB81APevT9TDbwDccyMhXH5cDnDvR8AO4TsA7o/2qlKuhaNbANzVBeA6c88lS6CXJJDAUKCMqmHQ9smzGsBaDw+YaKrxefC0xquYjAq06SXIekw8joqK4wXagtEWdddiQvoiLT1g6z+y0/soFOBbAC64GpltZLf8WDDcWlgKuC4CcJcwYV3CdulCXuy8dGEBvlH9DECDv5H5ZgDupbure23JgNs9WfZMTQ46zua/huH+PyeeA7ghnBkOYQjALVMS4L4L4P5wtyrlWnh7WwjbAVwHjAy4ZaSY95kpCSSwFTgfRUAFYJ8IsPVw70kt3H9cD6OA7n0A96G/N9TG2mplszwqBYNtGGgjm7VSSmMT37PrWElzTvAxFgHSEsE3bgFjvvNZeYU3PDZhEax3kSDLh2UL62EFYLsc4F0m+EYQFoxlvQU7zjbfKNI59ScD7pzqzuJiBFxn9idvALhfNwD3LirlR+Uu1kFomIHp7RW18Hu7ANzttfDujhB2AbgOFtqpcskSmE0JRNssaKjauLC7Fux1FHAdAWTvsfV1/zHvI7sVaLXZqjKuoTLGWapxvHVZEngmMC2+rfY3gbJVJpYa7bURfOvReUq1c2S5PEsF4NbD8kW1sHJRAIQF4IIFC7wFYL+oq1pr8t69JoEMuL3WI11oTwRcRpNTN+vh//26Hn4Nwz19J4RBANcBqlWJgIvK7Y3ltfARzPb97SF8uGsg7FmjCgw1WQbcViLMv0+jBBLYymhlrPdhs/dhsMPc33ceAriA7AjanPtMOrXV6hhVqJprkclyWCxohGesSJ4F8gTCqpD1XFblvJTnSYa7EtBdvbgeVi2uhVWAryC8bBGq6Mx4Z6yfpvtEGXCnW8KzUL8zd51FTt8M4b+frIffYsP9+nYIlx5WA9zDy0J4B2ep92G4v797IOxbxwycgSAD7ix0aj5lAZbc23oR6/wUQRawHQFo7wK0w49qvFQjo1Lm90fYcBOTjdjKH0Fv/NKe6RRtYs+eQ/ab2uHnqH6mQTpZLYEGLwNYl/N8rYrAy3ZJAIAL4F2KqnkxBl4ds1Q1e2wu/SeBDLj912ctWxzVbDzdZ27Xwy8A3N9dYYkQ4HvpfmGrYiyaskSGy6C2lwf+8Hqcp7YPhJ/trYVDGwrAVdWVS5bATEtAZyadAbXLjgCwdwDaWw+KrexWz3p9F54CtK6jlclOxGKbAXcmr0HAtaQ2NbdDAH2l4d0s+KpqXg3wrl1SD2uW1sIagHclzHcZgKwtOINuIct++5sBt996rER7nVXLcs/Cav/hbMFwvySu8nnCO0bVWos6MH2FUUarzTz0e9YUauU/218Lr2/CzgQIu8whlyyB6ZaAbDCpj2W1qo8jm20A7e0HIdyG0Y40vJALRutBRcsig2w0slcZYby+F02OzFUWuwRQXc5zpmp5Nc/cOkB37VLf16Kdt1AzZ+BtdG/fbDLg9k1XVWuoD/IFHKX++XyxLOjzQRjvqGsNsWnxm44ckxV/f8AAp11pw/IQfri1Fv7qUA31MjYm1Mw6fOSSJTDdElBTA2ENjwHae9hkVRvfQEtzE1Z7C7C9C9DGtbVRdVyobG1TM4NUhdzrJTHf5nb6fLpEaOErdZYPYdOF4Qq4m5bVwjoAeBXAuxz7blIzNx+b3/euBDLg9m7fdNyyyywF+vWlwkv548suDcK5BCAtA7ijjAJ6Iy/iQf/jzSH8z4cHwvtbmWmvKLwoe5UxdCy0XMGsSyCx2ugUhZpYVivA3kRDcxPAva1jFLbbBwSzUM0MJkcPY8G13+/LBL7KIBV9JpbpVIXGaT1Au55J7waAdw3AuxInK4PR5OAZSVq9vc2A29v901HrrhJd6uNBbLiA7a8vPg+n8FQeAXAf8VRPxXBVR7sW9wkjWA211h9vCuHfHxoIH+CxvGU1Ki1AONuQOuqafPAUEkhe9vfwNhZcZbXXuJdltsOwWqOoxaU9TaBkdf3AZqe47Jd+SsCbrsuJhGx3iWwXNfMmQHcTqwg2sl2Nutm1vEaxcj/+59KjEsiA26Md041m3bgXwlfX6+ETvJT/BdXyCWy6rq+9VwJwVedxeEBbF36K49S/O1iLATB2rsWWxEOevCW70c5cR5aAEpDVCbYP0SO7tMclPgLtdQD3OmDrUh+jQ8lqLdPFaBPYJdV0cbbWf5udoFrvXW6P1JbEeJ0oGxxjHQ5VstxNaJw0+6yLKuYCdN2n35l+Oen0314ZcPuvz0q3WKeS04DsZ3gp/9PZ5+GrGyHcgCHoEDUVw/UEslz8UQJjXvg+jlN/jNPUB9vr4cBGZtU85IuoQNDNJUugWxL4hvtS9nrnYS1cM38zCTcE3NsArd8bqtH7MpVu3n4J0Kw7gZyAm943nTaefjyLtC3NgNv8Ph7Q4R/bkdqjbXcBbNdIVdpzBd1tRIXbANNdifbJuM2R6Y5vZIdtyId3LoEMuJ3LsGdrGAExLxND+Qscpv7+9PPwBaEeh1iLexuWUBpwGQTfb4R4dD3uW6iVt6/UoSpHnOrZju+zhqlNkdka8/gO96eMdnDkOaCL7ZYZnyEZY7o8risxt07ANoHoRAxWoEx1R7xqBq3xqEt70lcJEBU9gazGim/TeZrrHtuhwhvP4cQgTQ5cnufyofWA7Fae0c1EhtuM9km77iJQ2ShVSV4VTpN3nUYJZMCdRuHOdtXGktXJ5Ng11+OG8MlQCBdhDtdQK5dxNE4Rp15HdfXuVoAXsP0uEaf2rs3rcWe7b+fS+V3yI9jqGHVlBGYLqx3iPh3Gu+8xjlGCsaVTwIp1AFjNgBvfg4oRGPnjRNT1sCaRl0kmXwV/by4CrcBH02P0tufMGp7RwDh5aHzv7xG8G1vbnwAwgXpznWXe297EdK3LFH8mQViDXXczquWd+Fho39WhagkM2OtJ5yxTf95neiWQAXd65TurtRs31uUUJ27Uw98AuL+78jxmDRrC67NMSQEwdvIwH1gH4G41AAbJ6FErr2aJgunGxg9EZerN+2QJKIHEbI0YdYuJ4TWcBi7hSX8Ve+1dtDNm90klgkv6UHHbDLAeKvDhXxTBaABwFVRlgyaOR3ETk8fr9WvoxeSrwMcx4LK+xDSLayiSIDC/LRLYs/XZSVGunkN53S8ex7GWdGXW205JddkOJwauy10H092G9imyXRyq1hA0IyUbyaDbjpS7f0wG3O7LtGdqLLw9WQ5ElKm/OfU8/BZbro5Tl2ASaSY+lWrZ5UMuD1rhw8yM+Xusw/2LA6zH3YLdiAd7GY4bPshp8OiZC88N6QsJJGarFuYSzHYQ88c17LYu+TE3rc5RAlInzFZASuDkfer9Kpjq0buErUFc0ks17CJso8Y3fpUHw/1i8gCOEZRjaWytV3uyqm7b+Q0fvB5fj7E1F6n/6nH7kN9dL/w4Jk0owNq6rCoBoddZtXhdqXi816ENdzMaqV3EPd8K43XtruYf25/OlY7J25mXQAbcmZf5jJ0xDjYMCucB2X88S8QpAPeLa3xmUCsTAGPMccqRgYf5Z3gr/yWAa/agHThSGQQjqd1m7KLyifpeAgms7qN9UY08iAr54l1MHdyXw4CtauRU2gGJ8UBkHQJOkRie/LONda0pTd4yAEltjSxRZ8AF5K7lq8humxmubRL845bnKj1fTmx9yWoNK2myBNMExjCUMQcv4Sj5/BDfCTMWGef8mayX/fk/VtoBXQ+2DtvidS6g/WsJiLFzFb4Wq2phC3bdtUyWBWOvpR15jjUwv+lYAhlwOxZhb1fggzhoAIzLz+N63I8B3dNEoDKSFJq7qFab7AoYIyITNtoPvizh+9iHfr63RjKDejiIWlmWmyPdTCa9/P1kEpAR6nV8634tXESFfAVmq0eyNtvm9bXtAFAEwcaJBRcnhIsb0Zp0MIoZeBq5aF276kuv3oUgrDGKC9VyPQJTZIXWRR38f6nwSIBy8X+hXuajqmOfFb2tTY8py3WJU8zJy0RC886o+Xl93wBgg3t4jHV5ve0CYjNwy9TX4Di1BbXyXpbxbYHpGovZCHHW3+45aF4uHUogA26HAuyHw9N63E9Zj/vLC+TJhfHe4IEXdKdSKXttYyyXfY8yWzZd33vbBN1a2InayuxBOZlBP9wFs99GwdCXzny3H9TCEDbbc3ew2eoghc32YROzrQq2Ak7yBhZQZHMpLKJRmgwWYXhEEwCswBSyDBarfXMRv7mfzPAVAbcBSOMB0AvqSQAAQABJREFUtoz0Im7yp2C7TB64nkc8NzJd2a22akHXicVdMhvFnL187+9Fjt4yZ5l8H2WgqciJwkKuZx023N1MknfAdFUvm3lIdbmOVu1c3+Rnzr+UlUAG3LKS6uP9HMwuoLL7YrAW/vEMW9bjXuW7WzzsjDctS3Se4mnewaC1Hw/lD7YMhJ/uCeEILNcgGObIzSVLoJUEVKGaLP4262xltjpIXUGdrINUWmPbDtB6XoHcYwVb7bDLQE4TuhvsX7Zn7GHtm8vx3JXpCbI6STnhjEyWbWJ/vG27JNCNTFvw9QUKun0CADvZGAV476IyMsORW6/fBAwPUT8/ZV+PTaUqG22eeHid+l7oSLUPprsZxmv6P1Xn8VrTSfJ2xiSQAXfGRD17J0rLg06wPOhvTxMI4yoAzEB3hYe8DOAm56lVMIC1DFwfbgrhT/ayVGgL6ipYrswhDVqzd5X5zL0sAUFEr/lRQEb18ZlbhSr5FmBjTORUqgCu4JKKx+nktBjmugLmaoYdbZdrCQYhs1uh6ngMbGf+fhVDZb7abwXWqF7mwXLdseErZfwy3/tonmTF7qvM2nEY8zgBXvW4tlvDPwq427HrbsShStBVVj6zucysBDLgzqy8Z+Vs0RuUmfUpvJX//nQ9aMc9TlzlIRxWILnx4ZxKtezDq6oKExVPaQgfwnLNj6tqeT+OVEaeUoWlGi+XLIHxEhAAvH9GUacOkrHqEj4EqpKNjWxKPW2YVW8d67QIuqpIF4Mey7HNaqtch2fueoAlprNDfbyU700A4DIfQcZXVeYYT9bhnyQHr/eZqmYePtXMAu1N1Os6kMX8vnznuuTHXFyzmrzK6ZN8BGzNPqqUVS3vXa1stOfmwBhV5NmtfTPgdkuSPVyPg52qqguA7C/PuR63Hj6/xqBXMl2fl8ZyxZhlCC1geBvV1He3uy43hHe2YyPCTqT6Lttye/gmmMWm6ST1GHAxCYFAexHAHeLeU41qiaBZvC311/0FIkFT8NTDeBWvNWhfNgIsGwDcIpOOYOtksNiXXXuqyGL1aL6PI9UILPcWbPc67P8mwHub9/eYJKtqj05VtLydSYnHev1qobbx3Lqefhu+GKsaa3Rna/LRUx0xg43JgDuDwp6tU/HMRfXUVbxBPxkimcEVQJe0fWYPMsxjq+xBqd1RtczMfCvgehBVsirln+wK4XVsuethuctQ2c0Gc0jty9vek4BMSyYngLjO9uRN1tsCKve5mQSTqt47ibkJuotAIO2UstpNAi2AErPn4Bi1dEER3jAthek1sLWnEuNNqma9mQ1lqZOjMaRvoAGQ/apyV8uUJhlle1kZeQ6fSTVY2nP38dzuYoK8FdBdDei63ljQzWVmJJABd2bk3BNnKZIZwG5huP9K9qBjqJiNOjXMgKi6mLFr0oIpKDLcOzzFS5kxr0dV9/6GEP5wNyyXBPUxixDMwhy6+QGeVIzz6gcHe4FC56BBAluch9meheFqr/wGjYualyoTNAEkgY42SNmr0ZU2oCIVQFSV6mPg9wJtP92HiAKvZtJnona/A9AaR9p1yUbfugvo6sEtMFctCXRluqrctzIp2YUtdx/r6DfyXln5zGbMrSrZ9vbPgNue3PryKNf/XecBPk7Kvn8+UzhPnWs4T6kytpSx5aoJFKDfwyb0gx0F4L6+BVUVn13XqL0slywBAcIIS95zJ28FbLe8R116r6FKriKhZmYbA1dwn22AsXnP6X0r6K4g4INrUHuZ1U51zU5AioxJxSTlBrK6PPw8yu9mSuLAPom1TlVX829p4uOyp2Uwf1XLr23AiYqEB4ZoHVuf23xQfj8tEsiAOy1i7c1KdZ5yScJZPER/eRbnqUGcpxgIL/JgYy5q6TzlVclYcCyNEXMOMeC9Bct9eytLhbDl7l9fsIwc8rE3+38mW8UtEqMtjcBuzVhlPO8r2G11EjLYQ7vMVjDV43gjQLEFM4aAm9LS6ZFbpd6ZlEeVc6WJyjDLp4ZguUNoB1w+pTfzI5iuy/SqlMRyPUb5OFE5hC13FyzXDEMul8pey1Uk2v6+GXDbl13fHekM2of5Mkzjt5ex56Ja1qZ7ehhVFoOgD/JUDDddsLZcPShXMmP24T26PmDLrYU3senuYvnBmmX16LXcTyq9dG1527kEBFtZlWCrV7LOemdu4wwEYBjgIbHVMmcSLCweo83WJS06RRV2SFTKeCPrhStgCMZzoXitPqtqB+49rqEVwNEMVfxQw657j2VFcR8utuwlK8dUb1QtA7TK0HX12r0XN7yW54L8evkaMuD2cu9MU9sMFq9a+QsY7q8uFiz3Kraju9iQBMmpbLk2SZbrgKBm8CFPvPlyf0AEKp2oXsee63q/uMBe21A2Dk1TL/Zutd4falO8zwTaiwDuZZiay4KqlgS4TgQTszWQg2Dh0p+xQA5VK+6D/eMzhjCHiUrlxGUwBguB6aJiasemK+Amr2VXFZi0vlAtF0uH5oqGoJe7NgNuL/fONLXNkHIGjP+aQBguE/qc7Wk+XwJBMYPF0orpavPF8TRmE9qKSuogIHuUbELadPVa3szDLPMQcDPoTlNH9mC13j6qjB9yL6lCPnaN+wqgMAOQSQmq3AuJlRnAwZyvqpH3oAbdyr22ITFbJnWt7tUeFFOpJilLQVKmOwrT1YnqHBMYn13Vy3ov+3vZkuQpK9aeqzyPYMvdjTx1oHLy4oS7Sh+VPXfer5BABtx5eCekPLnacn91rh4+Ra38Fbbc89hyXTMpQ2k1iCWv5fvsX+MJXsvDehT11I921sJbAO/BdTzE2NhcYO/DnYnu/LjRHP9TMnnDN34F4BorWcarOaPKYC5AWJYTPWod3sdbYbYG498EOKxgkqfzVJX6itr6729iunew6Tp5uczrCmag20yczU7k72WLAK1cPcblVPuZwJjKbye2cCNz6fBoIJFcpkcCGXCnR649XasPm/baIR7cT1ArfzaIPZetWYTuGFqO31oBrhcoyxWc0UQHtF7hILagN7HnynSNQrUPAF7P+siljfW5GXR7+rbouHHcCpFxGR/4EoBwnjVkZ0iUcQtbbhUmZkPcXzDVLuvSn92Awo5VAwRtIIgDwGAwh7lis20l+CRXQ7QKugYNOc0E2e0omoO4nrlVJU2/+8w6BizBY3kzoS93EX3qEA6PrmWOEaiQbS7TI4EMuNMj176o1XW5DohfAra/ueS6XGbPfHcT0LW0suW6j6CrE9U9QHojB2x3yQGg++HWEF4DeHcLugCxyzVUDeYydyXgIO6yluvYbk+hPTmPo88V1KD3UYdWYaIyMAFXUF2xEFDgnjoAIGzH0cdwjfN1GYvaJ9XLBsY4zXMr03WZlbZx5cX/UsV9teW6/nYlHt9Gnnpjk8uEmMygqTJiXJX+KnXSvFOUQAbceXwjPARYjd96GqD9NYEwTGpgjOULMBRnwYJpGaabZszafxYDqnsZIN/YFOLrbRypZCdrAF0TfucHeW7ecHEQBxDMc+sSlq/wC7gIyx1hNlbFdivYWqxvJWBrTtcdMDADNRhJSsee+RqoQZn4rOn97XIhY1Kfjd7fhd3cCU+ZkiY0Pouqj7fwbL6BLVem6+TYiHHZlltGktX3yYBbXWZz5oi03k/136eXcJ6C6X7CQHlqhFkzeuKyy4QUSDPT3caseR9OU4dYo/sOATEO40Tlw7yOhzkmrGdmndXLc+Y2ihciGBjCcZjJ2kXuny+YvMlun/BdFdutYKAiRHXxetjsXiZr5nTdyv1kPGAngPN90pbk7MTma9Y3J9XyY0NlliwRdNlXAF+Piv4QmqjokKacteUif0E3l+5KIANud+XZV7U5SDordvmGLPdLnKdcn2swjMt4Qd6GAfvQlVEte+GJ6RL1ERUySzdgJIdRL7++EbsuTHcPg+c67EQp5nJ+nvvqdpm0sdxCkZHq/X4VEDCE43HuJ5MVlGVdVp6Yl4P9ciZthms8wqTNiEiCQFq2Mt/vGycweoIr39Oo7s11fQ3HtFFiMftMly0+r6qWVSvvQNZqovS7MGpXithVtq68XzkJZMAtJ6c5vZchHw2WfprYyr+5iE33GokNGDQvwVYcMDXplgXdxHQxL4VtHLSLB/nwOqJRbYbpugTBB1rVIL/1ahaXOd3Z03BxaeKmT8B5Bv/zmCWMmXwX1WcVNpoA1/CDGxvOPAcbzjwGZpD1znewTd2nzI1RrSe4tnKDi5hb+BsCi5Sd5Ai4grcTGVnuTrRQrsvdwjNrjOUcojVJu3vbDLjdk2Xf1pScMS6jWv4MhvsZTFd77hlUg3otP+ShbJfp+tBuY/BUNeiav7e31MO+dQRO56FeuZhsJVRs3Xkg7dvbJw7w3zB6G2j/BMz2HIO/aeZGiYgk4IKTLYtgm8rauFyFyRp2W3O4ZhVnkszL2wc8m05yrhD68fgNll8hc/0yyoZ+FLQFXZ0Z9VjWKe1NnKeUueEek0bh5bPmT51IIANuJ9KbQ8fy3DUcqEI4FlXL9XACdZVey9cNKUUpy3Ldt5nprmUGvY11lPtX18ObeC4fhrWYuH4z6mXtcnGtLg+9wJtL/0kgTthwlhpigmYQlQtoR4bxnH2E2rMK4LrvAm6cLQS1kGnJuJITj7/l2+Ple0O566Rm2s1j2HL1xbjbiELl89yqOMkRdJ0Q6Tzl8/hWk7+FTo5xMpwF30qUpX/PgFtaVHN/xzhjRo1sQIxPLhD6kcHzS5YfXMBW5MPtbLiM13KSlPur3vKh1S7nkoMtPNQHCV7wDl7MAq+L7g3RtxgV1kL2cWDNpX8k4ICdAqmo3vxcZykYVwo9WKY/08CvNsTwjTuw2erl7nKVGCeZCVu+Lb59TySGqg+Gy7BUKxvdywQl/sb/lkXZm/KQuVGMUe2SvpjUALNPdFLjmcwT4ZZiLL1DBtzSopr7O2rPeQxKOmP+Cpb7JYPnx1dZqwtjuQljMcGBpSrT1QbMGBx0otSZ6k0eZhMeHMG2ewAms90lH3ikqmLWWSN5SJYZrGOD8p9ZkYADugO7LMvlZTJbvZOHAADvJX8r04cO+k7Mku12N8xWe7+BGLLzTuuuHYHVugRLVf75xjIhnaGUf5nixNj9U+SpPch/J57hOfJUGelV2ycDbjV5zem9fUAd+FLC8FPXQ/iYjEImOnCp0GWcNHw4VRdXYboKLT7UbgHd1TCZ9YsB2uWFPffAWlgvbNf1lqZaW76ojsMGTjLsW2bAntOd0sMXx20QB/VRvJN1ujuH884xbInmca1SBFzvvdWYF/Yw0OvN7lIgg1zoKJUZ1tTSVDN1i0mOoHuCZ9VQmqrznfSUKQlwl7P+dieRvJzw6K28MU94yoiv0j4ZcCuJa37s7NpJbXCX78JYWJt7DNXyF9iILgC6d3m4H/Awm4C+CtNVcj7YAromYSLUhR2oD3eiNtS2exBHKtcBCrqmC1sJIC8j8MEigTcNuhxjaWyKD/nvrEkgTdAM5XiBwd5QjqcwQdzmsxMluq1SUcsRg+kDuAa8yMH0y4nPONXmGb6MGukrNFKXK4Z8TIBrgoiU+vCIPhaAr3ZcA43k0h0JZMDtjhznVC2CoiH69IBUTfg1s+ZPAV6TiJ+FyVTJKjReMD7cFjA9qo5X8DBr2/VB10tyD/ZdZ9iuCdzKDHsNjFfglfEmpiPgZuarFGe3CLiyqJvcJ64HPYtK00HfyVpZwLUO932V/rW/TXxh9ho9k+drCMeqvRonsTyvroF2cuzSrDuomR+YN7dEZfaBKmWX6emdvBMbumvnkw3dUI+5dEcCGXC7I8c5WUsK/Wjya6NQHUPFfOwmqiuWH9yD6ZrkoB2mq7DirJqtD7rZhsz8soVBdi+z6l0sS1Ct6PKETXxeBxir7nJt4KJXCvCNdl6Oi2w3/nnRBeM+vvghv+uqBNLEzOVAesmqUr6OOvMBARgEUV9TFQd6XzKoZfStAS5cr22eVgNf6ETVqo6p6p8vvyHCKEcDYRh5SluuS4RGGs5TreRgH/g86qm8FLWVAUeOsjxoJxOfuDyI71p0ZatT5N8bEsiAm2+FSSUgezGijV6Q5uHUPmRmoZO39FzGG5UHGnNrLNpbqxadqbQHC9oebxzm5cymVxKqah0OVOboNDuML3OgmpZNJrwKdfPSqG52kHjBfNP5X2pK48NL36Ud87ZtCdjtz+P9USwHct22EaYMdvEY9UVZwHWgX8waUNPvOdF6A2a1hSD6OdlFta6xP+6gaRBsL6DaVzN1G01Dcp7i0Zq00I0RsO0zQVdNg4Cb7OhZ0zCp6Cr/kAG3ssjm3wEPiETl7NmHWZuui+wF3cvMoocZXA2MYalq0y2OKv4mxqt9V/BdDrvZgKp5M/ZclxLJfgyyLuiaCMElC7IgF+cvxLPZJUXm3eUtNt96VD8PMIKkgZ+f4jS9DPDGffjz0rZo5qz/dWCNZexN+qL6ttMqNDs8ZkS/gm3/46Ei6tE9OtDAC3HwbtGkxKxiGEf6Va3GQWyHeierYk4mhBbVTPmz57Ckax3r/9S/xc/T/jeenz/T2Q6d1+yLC2gaTN93g/CsT5nNRvba4gqVU3yMkYvrcY+yHlfTTloHbV/Yp7l0JoEMuJ3Jb14cLdN1YNVWZ9i+kzDdzxlgXft3FnXiZWbSgm073svNApTxppIY7zKQUmcOVcpmj9GTVbvuGpiueVLX8n41bLhwsirsfos4JgIxo4RRdHwNNEA4AfDYyJdO2NiyawEWDeYc9298N27XGf2YBuoxAGl8kb5vpzEOsK7BbKtwnNoPPWRdd/vpVWz7bA2s75pt5aYspypeiwzM5SiyKaOR6TinCSGGcexwgLf+BCRJbs39afV+ns6SzktTosNg+pzOHdvDh240w3y5aqMuwm5V8V/n2dRbWdV/q+K9YNvYPWxC/m9uoC/ok02ol3Ve60Z/tGrDfPg9A+586OUuXaMPtMsPVFe5Tlemayi/CzzYLrY3J66lE6Zb1FDYlHyvc5XFGbZAujKqnAFaBmkBV1Xkamy/q2C7Dgwmu9cOteTVemS+2nodLHzJfuMA6+g2wSDk1/5uuMmFHL+EA7QtLkXlaSxfgXu6B2ivtbk4CDpgyhq/4Y3JxgU01bnxN3ZOg3jzca3ej13+2JsXR0zw1YsfeZfOZzjHB3TQVfr/FPfB9Qc12lmPbSsjJ28Xr20d/XeINdl715BgHtOBkyr7u0wdLzXMtlknFSuvp7Tv0Te1ODFw0mi7rdN7YgH3kf4AzV7w7Zxv/PnT59g3nM9JSWqHbUrt8Pq8n3RI8l5byAzTdtkG/rdVnOyYus+Jz5dXQxjEW9nvPG+r4i622QlQ9BZv9Ieeyj5fPj+2OZfOJJABtzP5zaujI9NlELvNwHqFqEKnAFwjC33NYHtymJk1D3s3mG6zUBPrjfXywPvQL+LhjyyW7VIGKoNpOHjKan1fDGIOrAVIRsDluDiYTTFoUF2sX3Bdrg0Z9mxaQW3I2pNneplKGrSN5HQfLYIqw1HU+/fxPnXplgMp4+MYADbLbfx767KkbRrVxz4XP8cdGrvGb8aP1fE3/riNNlxUlmYJcu3tfTorTgRSXVNsm+vdyID+OipMVcqaDIwu1aqvJqraNnk9gsw95GWYwzssURrhvYnbvX9f4Z7QJrkaP4DVOCCsZsKmF7yA533SjWIbnEikdugx7FIp2/SI58ffbccy2rECf4U13GvN7fAeb6e4POgek+JB1MpfALgCr4lJHtNHZTQZNC0CrhNZo8HtRtuw3QnQkkI+7barnWuZq8dkwJ2rPTuN1+VA4tpLkx0cZxnCCYD32I3n4fxILdwRFHjwfXg7VTFPdAnWO76ofnYwEIi15Q7AhN1GdsvI7eDtWOo+bicrdX63LtnxSgb9zdoVAdy9awfCgfX1+Hk5g5Ggzm7TWhyUnwAQjxlAhx/X4hKtO9jkBBHXXEbmxO/uN1GJXzf9NvaWN/F9uoCxHxrfNz6nr5uBMZ0n/VbnR4HFdgpo2gsna086Nm1Tvcp7Ezb5t6KTDmyX9+2kb7RNz7jvHtKO4Ue1GPnqJo59TgRGuCcfMxmI9yQ3gLG719C/BtbQXrwW0F0B+Pq994j3S7vF61cD8Yh+u0s7rnN+22EkrtgO2mhbOVXUoKwCbDWLGGRCbc1K2uGEzzZUbUY8L9cv4H7Fc6kmahjAfYRWpArgrkY2+1AnG3bVCadySpqAduWSjyskkAE33wmVJRAHWQYO1VfXcJw6T7AD1/9F4OX9eQYYWZleGA5gslPG4mkvngusDQJneu/W4vdlioAs09Fj2oF/LbP7fcz2399G0gUdSRiEHIDaGRDLnN99HLQFB9mJNjlVtg6iNx+4tlKAg63xeytwm2yQTWA3UXsEg1Zl/HmfIXDvifHfT1WP+ypDZZ3W3zq4r4HtCnxV5GubrU/nviQv7co6+o0iLycDiXlb76v8cSmSwLIF7YXp6Hytoa8XY0Zol+naBuVgv7mGfZB+M77xdfrNJXZP6DR/t9gONTBqamT0Tjq24hjoUrh2GaUM3omYUb8EXNfj3may8RCNSOpz7+/JiveUddieXbTFe12tQ86PO5nEqn+fAbe6zPIRDQkkFdYNHvBzeEW6BvDz60XsZddj3oaJOev2QbbIZqa7pHNNdR6Zd5kiQ5bN7mMQfG9LCO9sZbsNj2lm/w6U7Q7Mrc5dMKQi8IhqQcFWALkL09VG6u+WqQbPYo/2/qbBudXRzecXQMoW6xecvB8WYgpw3ec7W1z32V5aOEFMoFHrcgmQuYy54wr35G2XKPF9ktf49qlK3gCr3MYyJJ21NpFEYwUajHbT0iXAc3mOAUB0XrpAW2yHgD9erspMGRhDeg2q5a20Yz8hTtWsaL7wHqtSlINtiAEwcGzUW1lPZU0Q6dzNfTa+7gS4y5GLQWhMYrB/bRHisZOJyPjzzOfPGXDnc+93eO3pAdeZysHO9GynbgK82HS/BHzPDNfCVR74O6ig0ZoFsGtGQLfVZZUFXFm5bdZBazuD4XuAwh/ur4UjMN3pzBcqG1KeDpxnWVM5xNb1rTooWcoMnsWe7f1N9bc6eqrBe6pjrV/A1WlIUHHJ17vIdgf2wmUNoKkC4ClbkdqWc3jOuzTmJvLSphxZ57jGyPxtg+c3D6y2+v1oMXbQx+3a6qkygr629ms4K+lMeIl2pIhPykrNS3NJ8nNitxgzhu0w0pp2060w7+WAcJWSGPZ1mL3xz1MgknsAbpJDOudE9Qq4KAPiBGAboK/n+IF1DcBF66C8culMAhlwO5NfPhoJFAyDyDYESBYcztx6Hr66XgunCZZhjs4Iugx+DwGMBHaCmarmXi8OQoKC3sofbArhLw4NwHRRATI46/AiMFQbFqe+YgdGnZAEW2V3WpbCACrYytQ8X7+Pe82AK5s0lOC7yFSGq4e56t4qgJu85wVaQ0wqu6hKht1OJK90fnvC3/WS3oc62ww5qnRVa9uGZI6YuscAUnaw38yaNMxEySQCX6LSvYJK2SAg3kMTtSPV62960BviVBloO90L8Jqtx9/KltQO75fjTHjNHGQig1Eif1UFXHMSC7gHAVzt3NFLH5nk0pkEMuB2Jr98NBJID/pTBhdZxR1sVg5+rtl1re5JHvxjvkfV5gCEFrGnGG+ZTvwGlPvO+hD+9EAtfLC9FvaRbMH1og7KVQbFqc4VB0Vko2ftZVSj2uCM3nQLthY9kvnNc80lwNVjWMB9LwLui4G9As5E723vt4vI6+ztwtb9sLF8ajJ5JdD13nVJmSxbG7J2S4M9qEIty+jsN0FV2+0N7ba044sbhe3d+r2WqfrM323ncti22bL0DtZfQKBT5exvZYvn044t4BodrgjxWB5wvc/0njbIzC4A9xD3vO3Qru4kJJfOJJABtzP55aObJODD7uCjF3PhUIVK9PbzcBo183FsvOexZ916gCczA9ND2McDHm7B19Ir6uaiNS//hXAGtITh92Adf7Qf4N1hCEI8S1H7VR0QX6755U9JRa9Hq+xEleAFTqy3a3KAqjL4vlx773zyHvFlZDAB15COHwC4qlJlUtrGK2BMZJV65BrS8CzsUoclgaMVs/R3VagrADpVqDsAmL1rC4AxS46xnMsU+816RpkYXae/ztJvAq4e0jJX+2wqwPUcXq/e8WtYrmSEpzc2D4TNaFFUN5dl2qmtY4BLO4ZQs49g+1feTjKmaofyUG5qGTYzmZThCriuxc2Am6Tb2TYDbmfyy0ePkwDPbGN9pl6jAm8R8UYHEmfcJ2G6Z2EA51D7ncfeFUPbcBC+K4GxpidsvOMuKUTAZSD6LgPQT/eF8OFOs9oMRA/XCA6Oll0oSTV/G4ZylgnKOeQk4DpgOvbPBbBVTM2AK5sScHVG04bbTgxl7d16yp8DcKNGgPtK9bvnmQrsEuDqtLQFZqlKeR8qVJ2WNCFUAVydlcwjrR+DdvevANybtKtYmlbu5tCOuxrPeFXKR8mapBNVOyEuBVxtyE7arnQAuDsB/iM6cWXALdeBJfbKgFtCSHmX6hKIwMsfo+zcAzBuY0u6zGBkvtSzkY3gfYv6zUFqBMZ7bxzj9Yyy3l6w9SbA/QhV389huB/ucN3oQMxkNB2A64Ap4OplehHAHcYGN5cAF2yKYFg4LRWA+z6Aa3aatgGXiZz5eKuo4JsBdys2S4E/Jl7HQ7ddwL1Kfzmx/BKtjgy3KuDqrSzDfbNTwEWlLNPujOESASwDrkNR10oG3K6JMlc0XgIvQBcPTnRuAq9emzp1DKL6u8jSiZjdBFXzaRjvGcA3xnJ0RG6wXYjHrKqb46BMcxhHww+w2/6bg6iUd6Jq4/0GbFvdtOE2q5TPYvs+z4B5obEcKKkC5wLLHQ+4Ogq9j0pZhqvqsqpKWS2KDmZOUMzJexPnPde82neTMdzUBlXBLoPZ2fDK3YNK2XWnVVSoMmnPZSQpbaYxyQdewte4zzU5lJksqSQxhKjBL7ThGnlLZqks2lUpy3AHZbgVnKZk6qr5TRoSVco6TWWGS+90p2TA7Y4ccy2TSIBxKJY4KPEwOxBG4GW5kOtLZSTnHCxRn15ncLiPvdKMM3cZCQ28DjGOg1my9abTyH7HFwe3bhYHUUFQw1eNE/7+hhD+HC/l93GaEhz0ZnVA7xYIKiPPp9OU8hBAziGf5nWckwFIN697uutKYCfDjV7KqpQBXBluAroqXXkPDYnBHgTdM2hQrnHT6LznOvGJbOzp/HatxcxTe2mDzFI77tqlL2IsF3tM/dd+8+U5tb/bd58DuENocIx+5W8TtcNabYuTKUHV6GZbAX5VygeZ0Om8VXVC5zXpuDXmNFXRS1nAVc1vxiCdpqKXcgJcG5pLRxLIgNuR+PLBZSXgQJAAxYFQb+Vo40VfewuAuQHYOlBcu1cLl6GTMrtLOFhdlxEzkCVbry7RMobIHBqjMua2WJqZQKfgm8AW8h1WMwBtR+X40RaXBZGcG3Wf2YqWcuJugW3jEqKMjJk8CIDoCHQGlnINOZitycEwOeGk/ftxmwDPa1mEbHc0rcNtJ/G8TnqaJpTZaWyXBgnRs9vvvSfEidRP6dxObPxOG+lGAPYArFKgM+KUADwZQE4mb+9t1wPrLHiZdhwDcA1+4fppg3Jgmo3na26HdSUwVvW8ngmcy4FshzJxrXfaf7LzNn9PE2J9ZglK63CvsWLgXkWGa65pncgS4Bp2Mi4LyoDbLO623mfAbUts+aB2JeCgYHGgEUCMnPSIhfmjAKvMTpZ7ZbSGuhkHFEEYxnCP3x4zaLiO19cD0NAcvIwlAaL8LQacALg4EwNuOmnjCwj0hGX8cdF+zCCzE7A1T6tqzx/vIa4yasd21otOeNIJvjTwhUxJADkL4A4xAbmDOt4QhYzbPVeaAa1s4+x/wdBEE0Y1enuLkaYKlud3VYBGBynXwGr7dimakaaGkJ9JC5LzVHO70u2gvdiUjzpJHQDodFIylrN9246cUzucOJ6hHUa9GqRNo7RjwsJJnDyaeMP0k7ZjP8w2tsMJHe2oUuIzxcW5DvkEgK9J4noj0pS/OdmYCjOdZPpMfivSFDJJ3uNV2pP3/bYEMuB+Wyb5mxmQgIOeg0AcJHjIVTWbSu2RDlQAjgHotc3pgVoE7QeEeC8QGa5uiN+vM5Bda6ie42jiiOLLyi3N2+b3xa8T/3Wk9cXIJLPVe/WNdSF8bzueo4DCgYaqLyZJmGr0mrj2Ut+a2F3QNf+woR1NEnEF0HV5ULJNduvUiquTIjAmjUMVkPS87r+A2ZBqVGW7G7XuKlheCq1oN5QpCWgEWCdsmiouArpF4oKC6SbAsW9l1mYHWkOiABmtoR2NMlWAbfnlQOPbJmt2WY3Lg0xY4Npgl3ZdpR/V5sh0k7y9dlXqJgWwHYKt7dBTej1gu5h7r+w64NQOz+/9EWMpA7jGcb7NM/TASFNppym2Ai6PU5yEyLDNh5ts2jm04xSCq/BTBtwKwsq7To8EHAzigMibOqOGg9ZTAhc8AnS0z8kQZL+mOLsJ2Aq85l41M5EDmepWg25oLzNfbJ2tA4d1ppcz9zTopjWt468mJj3gSwc686WuJJj9Rgaew7DbD7YWHqwGuzDnrgMm/6elOHDaXq/bgdvkBXp4x+QFXKcOaO5jSQN4JwA8PuRgUfPUbCjt4/mjXFEHpDal36baepxtluVuQWWpV642VBNDuAa2HfmasnBYmaH6cHnONeTmZO0e33tP2U7rdbKkndIsQYKcDkLr0GIsA/hMKGCb2il2iefQXKID1Q3aESOt0Y4RmaaASzvitdMGE2TIYnWUMomCdlMd8WS7tsG2VineM6b/89qNdHUJk8Qwz8hDJrKN22XK6hLgGvHKyY+JC+wT73m1ATpw5dKZBDLgdia/fHSXJBAHBP64jQM4b1TRuaxIEHUwVaXqYGYwdrPmqEb0e9ngi1eRqUg7sQOQwGs9DnR+dlDxHBMVxzdtdyYsMGOKofUM4RhZEExoNba+ONOH0lUcCyc63aTf2T5lICMq7NwFuxc8hh24uV5ZsNfD/1jS4Dx+TEzfN3Z7aTN2DWNvXr6u+HXTbx7c/FGAFchU85t6Tg1F7Dv2G9+Ol0487sNGBvTXN4XIqLQXLmNpTASccfu1+mh7xmQGs1NLYjpDJ23eN8+ZWbwCo5ZBG6dYW+1qtjorLcaesNB+5QKbr7HVOcf/bt95r9kO0ygOq6WhHWprYm5avncfwWtJox2raYfLgUxYoF+AE76p+m38OdNn73PDXMqsTUB/CZZv/uTHPD9lSgLcNbRnPzZtAVc1vwnou5kvuExb5uo+GXDnas/2+XU5KFkS+MYtA8oz3kQgZRBxsBd4ZHwRcPlOEHZwjSns3N99qOw5DCwCbqPOWPm4Pw5yqkcXEoCgSAxezO5XEZHDgdBACHFALjd+jau9+kcBxDZHxsTgbYxlWW/ywPU3/seSBujxQJdYezr7+M/pe7fNlxXf86f5u7Rv+k656iik2r/IZlTI2r4a3450bPPWtruvKlS1CGbsMUWdDKsdhmfd1ifwqPUwLZ0y03lK0BFQoqMW/SuzVFPhEhiBtp3lN83X0vye08R2eH8W92bRDicmtsM2RnUy7ZBpy+jdqlVp97o9f0rioAnii6v6QhTpHG1HmZIAV+etQ5hR9q4ZiEkUTBfYTgCOMuecb/tkwJ1vPd5n1+vgJSVo3jpgCUZuHSSe8cHk5xFcGVwio+VHf08vx5z4fvz1s08sDRRx4+C7AKpr0gKzySR1WieDYeMslTY2zTZHxsQFqDZ3UI3slh+UwaSl6Xqa90lg2fxdej8eJAtV88tHvNinUP07GXD5y/EbxXKcaKekrWkCkOqeaOu12X8ur5JR7V4bUGFi0+SzmoYydUxUr3JRZsWE7MW9obi8mqJ/CxBJoRM918tXOlHN5b/zXF6fkxJNHWpqvEdtl795Lwn+r+IwJZg1t6P8WV7e00mnZhedtY5dL5wOXVrnc9GquEtqrxqHN1gC53pgbct6S3dzQtKqLXP59wy4c7l35/C1OWjFwhvfO1jEV+P9c7718/jyra/SF43RNg26NUZgB/008Lc7+I8/fzufbaLXkiYZxbUCuBUrewGW5Q6cCnCVr0CiGlkm9emQduYXjEp5tTqf1yEgrcR2Gp10GODT+tNOB/jU91FuDfmlq47gSvvs6/g+/TAN29R3sc+oP7XLU0UZNbWj09On9ciGUT1JpKmr+Dm4CmDKiVnjpAlwbe8mAPdNVPx7mfxsAHBVdc/0ZLNTWfTq8Rlwe7VncrtKS8BBIqLui008tnlwi19U+ONgaEmDcvFp9v6ma4xbm8Gbsfclm9W4pJJ7s1uLAwp1d+EV/Bk2Q5NT6Cksy41g0uJM9o8M1whLZsnRZvjaBrLk4EDULZthugeaZRUvq3FtLS6xxRWU+zmeu9GAidrRrTZoL45J7424dRu7P97STmiSDCZrbQJbf68xSzJT0NFNtcJhiveq3iPgTlZB/r60BDLglhZV3jFLIEugWQIyp29ATHMg6xVrSEO9yF1XLeCmSUvzMc3vHeitQ9W9jkuGeDwKs3IdajsRp5rrnk/vBXFB1SVzZwgJaj8YPMZgIH7v71MV93HiMwDY6r9g0AsB1/7QYcolSrE/p6ok/1ZKAhlwS4kp75QlkCUwXgJxoAY1jY39NRGeDNIxyEBv7N6kih9/TPPnxKySA5EBMN5ieZBJ4AVgvcXzQN8ssYnfO2lRdZwiTF0EcF2rHiNMTXzIS98mwDVdopG+VO+/tbFGjmA+Y7+N/fDSEflDuxLIgNuu5PJxWQLzXAIO1A725p81laBqTAM93IFZlQFcxWcdgqrsahPqS/MMmwjeOMLLsiqz1B2mk6De+VfQNBzDO/kyNty7jeVAiLdlsQ9UPQus6wDYmJYP1f42JkDJO79lJXmHUhLIgFtKTHmnLIEsgfEScKD2pd1WhynB9sRNA0+8UCe3cpyyTpmuxXXPhs3UO1aWpbdydtYpZDPVX5c9uTTLdbfHrxESlGhbLkGqshxIe7wxlGPyBJylYtIC1kTnGMpTSb76bxlwq8ssH5ElkCWABMDaCLgGdFCtbLKFL7DlmpZOIBZIywCu+2pDXIG3smpl1+PuI7bxRljuq401slngE0vAPnCtsXZ05W/yBqOwlfVOtlZlD0EmCAiTnaYIU2oZuuW8NnHr59+3GXDnX5/nK84S6JoEBEsZlllyLhBw4fMhVJswrKrrca1HlaZRl4xuZD5YI3x1EnmpaxfZoxUhsjixUaWv/dzYyeaY1llKEPX3VsVJkfupUl6HRuEIGoYUgMS+cMKjliGX7kggA2535JhryRKYlxIQKGNIQSJhqVb+/Gox6JvT2AAdrTyVFVoc9KlH5ynDLqrWFHBTWMHsJTvxraUa2ImNMaO/Zt3tRezoxm829KkgWqYkwLWftKG/ScQv0/JtpA+WwXjL2uLLnCvvw/NQp2RBZAlkCWQJtCuBsYEfteZXpoVj4C8SLRTLg8qolR34LQ7whhY0AMZu1uWm/LTZllvIp/lvTNYAmzX/run49BA3drKxx8uUNNERbI2mtm1FPTqt7UbDYNYml2b5W7naypwx75MBN98DWQJZAh1JwCm7Kkzz0Z5K60BVbeJM5YBdBXCty1jK23CaMlPNXuy5hS0RMC5TUUdX0h8Hy5CUk7ZbU/FdRJWv3K+jWo6qfHcoUaxDVbKxpE3koKPa6xtZh7tiICbvMLZzBtsSgqywSwbcCsLKu2YJZAl8WwKO7w7ed2FbV/CUNfCCAGAaxcRcy2BlYlyLCL5g9pxtMK0j6wtbruEFDZAhgM/34lIstQox0AW2W6NLyW6r2G6VoZOkMe9k0hPuQqNwAGe1TXgnp8Aj813W3b7+DLjdlmiuL0tgHkpAwDVloixXW6Kq5avk8o1JJfitDOAqNuuJEY8AV22KhwBck8NviPlqs01RGZl60tR/QzinncQr2exAJpo3whfiK10EXMFbdrsPu22Rjo/lWKShzN7JpcVYaccMuJXElXfOEsgSmEgCDvSqM++jRjZV3xc4T12CdVVxnhpfr0CwEzWngRh05FmXgSACqsuwjCplcvvTUZVcgG3ZdbfK2YlNkZwiBLMDvcbERpu5zlLmgu40ecT4vsyfCwlkwM13QpZAlkDHEhBwTT33GNqk16xOPOdRdeo1a17aqfLwjj+5qmWZ11JUy2uXFCEGD+BEZaq4qFrWtohqeb5pl5WJk5o72GpNFGFEKYNd3GGS42+CaJmSVPc6qC0kcYSxk9/EK1wb7mrA1xzB81G+ZWTX6T4ZcDuVYD4+SyBLIErAQd+X60L1VD5vqEcBAdtuKmVUywkQUozlDYCugTBcJjSfGVha73wVVbLMdnAE8MVxyhSJZcHWfnDfFMpxvVoENAiHCeXocqwYyjE7S6XbtevbDLhdF2muMEtgfkpAguVgbl7W643IRyewMV6D5T4j+bo2wzKAq/QSgMiMo9cyQTB2ALhmsFnfYGEL5okTlZMYnZsMoXkNsNVmaxhNQ2g+hPG6DrqsXNNkxjpjhia9wVElG+xi/bI6jmkknihb2fy8zTu66gy4HYkvH5wlkCXQLAHG8fCYyFOjeizDwHSeMlVcO7ZcQVeAWAywqkreguPUbiIhbcOLdh0OVWPJDea4bjk5Sd0AbE0SoVyv45w2iuOUwFm2JLB1f1XGG1hre7hhu93MhEYAzrbbstJsb78MuO3JLR+VJZAlMIkEZGOP0VnGCEgwXGP8GgjDCEhVSgIIbY2vEPli7eJ6tDNuh+luBSDWLKmPBdcXQOZaScxWYL2Nx/egWgOY7VWY7T3YrvbcKtftBEYtg6r6JdhuDSryBqrk7WgNTBSRbbfTfwdlwJ1+GeczZAnMKwmkgd0MNhex4QoSrs29DesVRPy9LFAIuqkswbZofF+Zrin8XC+6FvXyUtL4Ccpl60z19fpWZjsKsDpZkdVqs1WlbOq9qir6NHnRdrsMsN20tPD+Ts5oS8iDawCMOThv6aluzoDbU92RG5MlMDckIKg+IAWN63JdvmKCesFCBx+Xr1QBxwQWgqoJDtai+tzG2lxZrqrQ1bAz4y1HwBB4+1iEiC16eysj19rKbIcaS4CuI79hwPZRU+jGsubWKMOGXNYyadnNMisjeclu16IpyOtuZ+amyYA7M3LOZ8kSmHcSkKE9GBeg4ebDYplQFcBVcAJGKonpboalGY1qM/bcNQbGIJ+rwNGv2W0EWycqeiOrMr4dmS0qZFTJpjwcAWyrBhJRZuMnLAYU0XarE5phM7WFz0UNQbpfemmbAbeXeiO3JUtgDkmgsEHWAY5a9Ko1BKEZheK6UVBAgKlSBA7rFFAXgxCryZ+7haUsm1egXublmt2lqEsNxN9Pzj+CrC+9jV3HfO9xLaqRDW4xiLxuYLNVjfwY7UCaqJRltso3Ae4SQ2Y21jUbwWtsXfM88faucq9N174ZcKdLsrneLIF5LgEBVSCJCeoBj8vYIF0/Klt7AIsrm76vWYyCRyqLX6mHFbAz87huRcW8CZa7Ftart+1ibZKgUgKodEwvbg0Y8hSg1alshBCNLvcxNvINZHYTu3f08G6Asu2vArYRzNWx81qDKnlXI3KXy6vWYf9WDZ+XAc3cXZEBd+Zknc+UJTAvJZCcf7RBngRwdQC6jUOVsZcF5apF0JXpiiMLQJ8VMF2DY2xEPbpx+QBMt4gPHIM48Htiu70Cvl6zQOg1xOhceDLdf1ILdwlioc37BnZbPbzVBAi22nOTmrwq2Cqr5JXshMTkBDE2NQ5n82VZFSLomZIBt2e6IjckS2BuSkBgkc3eAWRVKV9iLekFQPfOQxyoYHYRPEXPCkUgqYlclFdhaWYYWg3b3QDD1S5psgM9mpfBdF0Co5pZ0OoF0PV649IpZPIQQDXNnrK5js322r0akxHUykxGtOW6jCeVdsBWYNe2Ldi6nMqIXRt5vwK5zJfAIUl+vbDNgNsLvZDbkCUwxyXgwK/X8i0YnOtJzxD2Ua9lE6Y/bvK6rSIGQdd6U9FGuQrQ1U5pNCpVpq4vVe0s8C7Ew1m2ZzaiCL4cON0AHJvHH0E2sdonoKje2nohjzTA9hZga7q9W1GFrCd3Pe6f2lcVbJWJx8ru10WvZPLd4plsnuHVDa/kxJqT/PJ2+iWQAXf6ZZzPkCWQJYAEZLkPXSqEE9UFWK4hCodQnxqyUMYnICWAKSuwxHTd6mkrwLh0SAa3mpy6G8gwpDOVS4eWL6jF5UOLYLwL2Fl19HSyXsE2giyNE0BVrev4pE3bYBauU74Fm1W9bi7he8jmCb+7VjaVKkDrMWkCIjPWmzuFxdwDs92CY5mp98x1myYc6Tx5OzMSyIA7M3LOZ8kSmPcSSAzPYA7mch0EcAXeG4DOfVSo37TJdBVsrJutTFIwcXnQclSpqwDeNYsLwBV8DBG5jDW7S2C9iyPjrQPSL5bFcOgY6Cfw97sJF/dyroSNCejc+p3bb2iME4knXJeRtx5yjYLqCF7II1zz3Uc1Ejuwtpbvi+v3RMWpPHe7YBuP5WCvd2tDlbwTdhtjJQO2TjTiNRWny39nUAIZcGdQ2PlUWQLzXQIC0WOYns5AOgddJAqVEZS0X47iOCRguk8CuyrykuV6rMXjZbyv4sm8BPvtcsB1OYzXpUSrAGBzvi4HjAVd7bvaMwvGW2+onGGBAJOgJ4CLUG5S8TSeK72e8ca2C7DfmKhBVgvIaod9yPYe1zaM+ngEkI1bJh0P+e0RVDRFjbLOdA7PW6Wk63a7gGuS4bvedjdJCbbBbNcDvE42vJZ4PVUqz/t2TQIZcLsmylxRlkCWQBkJCEyqWEdwmhoafR4B1yVDKShGlUTq488n6FoSEApiAqeM1/y6K2C3/397Z8MbtRGE4RICBykJUAQV///HUVClEEISSPno+4xvjuMaKiUQxxc/q/j8cc56/drSczM7O0t07kHAS7/uXiw+cggXeHMeAVj08+Jyxj0NtFnfSYRWw5A6meAXt21D9nM2aPcwlhbYDkFPuNCxXhlbS381ruQOiOJ82km9/EAoy5S6L1m4ZwLI6kdG2gpsmVSeoVJklAK2/MDgR4XlZhUQuDerv1dXgdkpALAAzYdYfsex+JiknsjlV4FuuZdjDearAUZNuUuq1BBiDdGoBnhi3QEexp8C2YdZ06dJfmH6PLF2+Y5+YCC9u/N1CLSiGiqhpG2AlrqxZnEdM5EAljsWLfd1mjG1wLas2AD3LCcTLIU1y1AgYN0ljITfl3Yh8//oSKEtzKrEDwqitHEhvwxwiUh2FqCSaBIfAncSj8FGqMD8FBj6N9OHGej+lUQPr1gCXYKITgIt+j7XuHQlgQARpS3eMLHA1tYgUH0YtzOwWqyBlm3c0Vi3YfDKAm3mFnDTOCzaWtJWgAp0maMW8LLNMe6jf0AAV+poa3YF8Ry7bOHesGyHHxFDEhCiswmOIiKZIVLAluhsyzQUELjTeA62QgVmpwAQBFxl6cblytAYAqnIHfwmQUXHOYbrmXOwACkA6yql4dQA7joKvNmpda6xE4t2Jzu4oftYXTofPe63/zfNGtqWDSzWr7khwFowjiXbkN+8JvdwVYt2dW0unkI9ZNxiOBTWbOWWDnAZh4xrGRe5fbaDVlP4FLhTeAq2QQVmrEBbugCWbFSvA1zG6jIt3XssxSwFsaVGV4XuusQF+xwoKC7XfN9gZ7td0bX9g4/i3hJ+m6fQTmANuFkov6LtQ00DSO8D2wSBvYg1S05pAqSeBbYESGGlW6algMCd1vOwNSowOwUKfoEWiftJcXgY0L4KcElvSCTzUQKN6AslyKitzAbYz4jVVi91bFqhXe8PWNpfF1BXOxsbDdeftWapttvXwVG4ucmgxVhjLNuXyY1MVPLTuJQJBusxxhtNcveGFRC4N/wAvLwKqMCgAFYsLmQiepkH9k0yL70miX/WRxlGQ78uY3Vx31IaaMPer/lssHVtAG7zWH/H9b+ziLN/nW2ibtzDWLV76XsmdeXz5ERm1p8/s5DUgqhro5H7CU1vLXCn90xskQrMUgE4irVLRir6dQmmIpk/KSCZYeiQft1E/pIWEegCwwbedYCuH8L/AbfPua41elC4z5qEIG7ig1iwZM8CtgRIPcv2/oMEfsXsJcjLPttBsyl+CtwpPhXbpAIzVgDGABoyM71LykOCqZgblmnrSIXIROz0656TYALoLqF0ndC9yccBRO8lmIvhS8AWwL4IbJkdiekImS2JaGvOs0xbAYE77edj61RglgrAUMarMr71lLzDgDfDhf5+/6WS/LN/HCCTqQk3M1Zo9+8i2K/o46WesUpb0X0PWLRhaCD6LWEHkzIwIQOJLJ4HtqRuXGTcbffXbts9j6XtlK4jcKf0NGyLCqjAfxQg6T8zDZEWsRL+x+LF2n2bPMRMfHBa0B2SUNAP3KUhNnXDr9tJu2krLmEs2vtxEZOY4yCBUX9khh+s2WdYtYlKPkj/LRmygGz+LFuigMDdkgdlM1VgrgoA0cpNXH27sWwDWaxdXM2HBFQFvBwjkvk89CIRRU79ztU8Rl/vZZ5Pu8H7f9YtWhJxkPWKpBWPA1b6a8kexfAfhvvwHdmwaqxwV+B6KxQQuFvxmGykCqgAkAK+ZHE6jkv5bSYDwOIlmOpt8jIfZ5+8xbiZcUV/CsU4v/7vAvnGsnzbgt28HpYpFurgOh76Ycl49ShJLADt4wRC4UZ+ynbWTCS/sK/2gie5PYcE7vY8K1uqArNXoKFbkcwB61lyFjOJ+1EAfBj4HmVhn37f00D3n5zzkfzFWMlZ1of5bAIQca9qCTdU+wF1Xyz7/R3Xo37WBdq4jRfxHy9yAKsV0BJt/CRwfRL3MTMb7ecY4207KAp3s321qLqdReBu53Oz1SowewWAKON2iVgmSxWgfRfg4l5mm5l5TrF4s3wM9T6FuKRe/BzqAe5a1lRsMHLoIhj39//33UX/2/2sWLKkjiRpBSkXgS39sI8Sfbwf63U/fbX7WLNxGx8sLVqG+jAcyHI7FBC4t+M5ehcqMDsFwszBXQx4l9YsY3Sxbt8zFV7Ay9yzJNJg/l1m7zkPnD8A31qwfDODD/Bd1tUiNlx7/0eWcVvEfR5sDE+HYKZs3E3N9LXeC1zD1ep7ZZaivYD294CVOXqrrzbbexnyQ+KKB5lGcDd0BrRAWou21d3+tcDd/mfoHaiACkSBdjdj8TKG9yTQZe7Zk8D2JPBlHxc0wVWcQypJXNPngWJPmdeWbw5XfQj7dUnVdQgPYA2mASIn5SNGa0UYA0ggu5sNIEvmJ6b7w1oFpsB2L65iUjAywQDbj7Je5Lt2HVOl5fYpIHBv3zP1jlRgtgo0dIlqZp5aLFmmxyNzFa7ls6yBLq7mMwC8hG9FN2Ml53z+txYs3+WC+5qS7uDf4hUeLNjsA9dyFbMuSzbrAJaxsQQ43Q9EcRsD1Vpnm/5aklgwbR7Df3Zj/WLN0j/LokVbUt/KD4F7Kx+rN6UCKtAKdF8vbuePcTk3fIl2xsVcWauWsGX+WqxewPslli2WL9DNoZXFS70Nx17fLXBizQ65jAEuQAW6i+Xk9oOFy/Fvlmz4apmRAgJ3Rg/bW1WBOSqAcbqyfLPzJQSm3xaYAtUat5ttIFuBVWyvvl+Cd1lHaioJ78QMvZuO3QZu9dOGnmWtLi1cLF6sX2DMeWSNYr//R0t2fm+jwJ3fM/eOVUAF1hRotzEQxg3d7uTNaOZC7cDbwaUceALNnYC3QVpQDWiJRAasFhVYV0DgrqvhtgqowCwVKOjmztfXCBFjd5Wjme0uYep3Y3bbWmUNZ3vd57tWARQQuL4HKqACKqACKjCCAgJ3BJG9hAqogAqogAoIXN8BFVABFVABFRhBAYE7gsheQgVUQAVUQCaeCvUAAADrSURBVAUEru+ACqiACqiACoyggMAdQWQvoQIqoAIqoAIC13dABVRABVRABUZQQOCOILKXUAEVUAEVUAGB6zugAiqgAiqgAiMoIHBHENlLqIAKqIAKqIDA9R1QARVQARVQgREUELgjiOwlVEAFVEAFVEDg+g6ogAqogAqowAgKCNwRRPYSKqACKqACKiBwfQdUQAVUQAVUYAQFBO4IInsJFVABFVABFRC4vgMqoAIqoAIqMIICAncEkb2ECqiACqiACghc3wEVUAEVUAEVGEEBgTuCyF5CBVRABVRABQSu74AKqIAKqIAKjKDAv5Fm+yziH8lRAAAAAElFTkSuQmCC;" parent="1" vertex="1">
                    <mxGeometry x="1017.91" y="120" width="62.09" height="60" as="geometry"/>
                </mxCell>
                <mxCell id="11" value="&lt;font color=&quot;#000000&quot;&gt;github actions&lt;/font&gt;" style="text;html=1;align=center;verticalAlign=middle;resizable=0;points=[];autosize=1;strokeColor=none;fillColor=none;" parent="1" vertex="1">
                    <mxGeometry x="1060" y="200" width="100" height="30" as="geometry"/>
                </mxCell>
                <mxCell id="17" value="VPC" style="points=[[0,0],[0.25,0],[0.5,0],[0.75,0],[1,0],[1,0.25],[1,0.5],[1,0.75],[1,1],[0.75,1],[0.5,1],[0.25,1],[0,1],[0,0.75],[0,0.5],[0,0.25]];outlineConnect=0;gradientColor=none;html=1;whiteSpace=wrap;fontSize=12;fontStyle=0;container=1;pointerEvents=0;collapsible=0;recursiveResize=0;shape=mxgraph.aws4.group;grIcon=mxgraph.aws4.group_vpc;strokeColor=#248814;fillColor=none;verticalAlign=top;align=left;spacingLeft=30;fontColor=#AAB7B8;dashed=0;" parent="1" vertex="1">
                    <mxGeometry x="200" y="200" width="720" height="480" as="geometry"/>
                </mxCell>
                <mxCell id="24" value="Public subnet" style="points=[[0,0],[0.25,0],[0.5,0],[0.75,0],[1,0],[1,0.25],[1,0.5],[1,0.75],[1,1],[0.75,1],[0.5,1],[0.25,1],[0,1],[0,0.75],[0,0.5],[0,0.25]];outlineConnect=0;gradientColor=none;html=1;whiteSpace=wrap;fontSize=12;fontStyle=0;container=1;pointerEvents=0;collapsible=0;recursiveResize=0;shape=mxgraph.aws4.group;grIcon=mxgraph.aws4.group_security_group;grStroke=0;strokeColor=#248814;fillColor=#E9F3E6;verticalAlign=top;align=left;spacingLeft=30;fontColor=#248814;dashed=0;" parent="17" vertex="1">
                    <mxGeometry x="40" y="260" width="480" height="200" as="geometry"/>
                </mxCell>
                <mxCell id="22" value="Public subnet" style="points=[[0,0],[0.25,0],[0.5,0],[0.75,0],[1,0],[1,0.25],[1,0.5],[1,0.75],[1,1],[0.75,1],[0.5,1],[0.25,1],[0,1],[0,0.75],[0,0.5],[0,0.25]];outlineConnect=0;gradientColor=none;html=1;whiteSpace=wrap;fontSize=12;fontStyle=0;container=1;pointerEvents=0;collapsible=0;recursiveResize=0;shape=mxgraph.aws4.group;grIcon=mxgraph.aws4.group_security_group;grStroke=0;strokeColor=#248814;fillColor=#E9F3E6;verticalAlign=top;align=left;spacingLeft=30;fontColor=#248814;dashed=0;" parent="17" vertex="1">
                    <mxGeometry x="40" y="40" width="480" height="200" as="geometry"/>
                </mxCell>
                <mxCell id="79" value="" style="endArrow=classic;html=1;fontColor=#000000;fillColor=#647687;strokeColor=#314354;exitX=1;exitY=0.75;exitDx=0;exitDy=0;exitPerimeter=0;" edge="1" parent="22" source="47">
                    <mxGeometry width="50" height="50" relative="1" as="geometry">
                        <mxPoint x="130" y="160" as="sourcePoint"/>
                        <mxPoint x="180" y="110" as="targetPoint"/>
                    </mxGeometry>
                </mxCell>
                <mxCell id="80" value="" style="endArrow=classic;html=1;fontColor=#000000;fillColor=#647687;strokeColor=#314354;entryX=0;entryY=0.5;entryDx=0;entryDy=0;entryPerimeter=0;" edge="1" parent="22" target="47">
                    <mxGeometry width="50" height="50" relative="1" as="geometry">
                        <mxPoint x="-10" y="210" as="sourcePoint"/>
                        <mxPoint x="40" y="160" as="targetPoint"/>
                    </mxGeometry>
                </mxCell>
                <mxCell id="28" value="Private subnet" style="points=[[0,0],[0.25,0],[0.5,0],[0.75,0],[1,0],[1,0.25],[1,0.5],[1,0.75],[1,1],[0.75,1],[0.5,1],[0.25,1],[0,1],[0,0.75],[0,0.5],[0,0.25]];outlineConnect=0;gradientColor=none;html=1;whiteSpace=wrap;fontSize=12;fontStyle=0;container=1;pointerEvents=0;collapsible=0;recursiveResize=0;shape=mxgraph.aws4.group;grIcon=mxgraph.aws4.group_security_group;grStroke=0;strokeColor=#147EBA;fillColor=#E6F2F8;verticalAlign=top;align=left;spacingLeft=30;fontColor=#147EBA;dashed=0;" parent="17" vertex="1">
                    <mxGeometry x="550" y="40" width="130" height="200" as="geometry"/>
                </mxCell>
                <mxCell id="29" value="Private subnet" style="points=[[0,0],[0.25,0],[0.5,0],[0.75,0],[1,0],[1,0.25],[1,0.5],[1,0.75],[1,1],[0.75,1],[0.5,1],[0.25,1],[0,1],[0,0.75],[0,0.5],[0,0.25]];outlineConnect=0;gradientColor=none;html=1;whiteSpace=wrap;fontSize=12;fontStyle=0;container=1;pointerEvents=0;collapsible=0;recursiveResize=0;shape=mxgraph.aws4.group;grIcon=mxgraph.aws4.group_security_group;grStroke=0;strokeColor=#147EBA;fillColor=#E6F2F8;verticalAlign=top;align=left;spacingLeft=30;fontColor=#147EBA;dashed=0;" parent="17" vertex="1">
                    <mxGeometry x="550" y="260" width="130" height="200" as="geometry"/>
                </mxCell>
                <mxCell id="36" value="" style="rounded=1;arcSize=10;dashed=1;strokeColor=#ff0000;fillColor=none;gradientColor=none;dashPattern=8 4;strokeWidth=2;" parent="29" vertex="1">
                    <mxGeometry x="10" y="-180" width="110" height="350" as="geometry"/>
                </mxCell>
                <mxCell id="71" value="" style="endArrow=classic;html=1;fillColor=#647687;strokeColor=#314354;" parent="29" source="49" edge="1">
                    <mxGeometry width="50" height="50" relative="1" as="geometry">
                        <mxPoint x="-20" y="-60" as="sourcePoint"/>
                        <mxPoint x="30" y="-110" as="targetPoint"/>
                    </mxGeometry>
                </mxCell>
                <mxCell id="73" value="" style="endArrow=classic;html=1;entryX=0;entryY=0.5;entryDx=0;entryDy=0;entryPerimeter=0;" parent="17" target="47" edge="1">
                    <mxGeometry width="50" height="50" relative="1" as="geometry">
                        <mxPoint x="20" y="260" as="sourcePoint"/>
                        <mxPoint x="70" y="210" as="targetPoint"/>
                    </mxGeometry>
                </mxCell>
                <mxCell id="30" value="" style="rounded=1;arcSize=10;dashed=1;strokeColor=#ff0000;fillColor=none;gradientColor=none;dashPattern=8 4;strokeWidth=2;" parent="1" vertex="1">
                    <mxGeometry x="270" y="280" width="100" height="350" as="geometry"/>
                </mxCell>
                <mxCell id="38" value="" style="rounded=1;arcSize=10;dashed=1;strokeColor=#ff0000;fillColor=none;gradientColor=none;dashPattern=8 4;strokeWidth=2;" parent="1" vertex="1">
                    <mxGeometry x="570" y="280" width="120" height="350" as="geometry"/>
                </mxCell>
                <mxCell id="45" value="" style="rounded=1;arcSize=10;dashed=1;strokeColor=#ff0000;fillColor=none;gradientColor=none;dashPattern=8 4;strokeWidth=2;" parent="1" vertex="1">
                    <mxGeometry x="400" y="280" width="140" height="350" as="geometry"/>
                </mxCell>
                <mxCell id="46" value="Internet&#10;gateway" style="sketch=0;outlineConnect=0;fontColor=#232F3E;gradientColor=none;strokeColor=#232F3E;fillColor=#ffffff;dashed=0;verticalLabelPosition=bottom;verticalAlign=top;align=center;html=1;fontSize=12;fontStyle=0;aspect=fixed;shape=mxgraph.aws4.resourceIcon;resIcon=mxgraph.aws4.internet_gateway;" parent="1" vertex="1">
                    <mxGeometry x="180" y="430" width="50" height="50" as="geometry"/>
                </mxCell>
                <mxCell id="47" value="" style="sketch=0;points=[[0,0,0],[0.25,0,0],[0.5,0,0],[0.75,0,0],[1,0,0],[0,1,0],[0.25,1,0],[0.5,1,0],[0.75,1,0],[1,1,0],[0,0.25,0],[0,0.5,0],[0,0.75,0],[1,0.25,0],[1,0.5,0],[1,0.75,0]];outlineConnect=0;fontColor=#232F3E;gradientColor=#945DF2;gradientDirection=north;fillColor=#5A30B5;strokeColor=#ffffff;dashed=0;verticalLabelPosition=bottom;verticalAlign=top;align=center;html=1;fontSize=12;fontStyle=0;aspect=fixed;shape=mxgraph.aws4.resourceIcon;resIcon=mxgraph.aws4.elastic_load_balancing;" parent="1" vertex="1">
                    <mxGeometry x="290" y="424" width="56" height="56" as="geometry"/>
                </mxCell>
                <mxCell id="70" value="" style="edgeStyle=none;html=1;startArrow=none;startFill=0;endArrow=classic;endFill=1;fillColor=#647687;strokeColor=#314354;" parent="1" source="48" target="49" edge="1">
                    <mxGeometry relative="1" as="geometry"/>
                </mxCell>
                <mxCell id="48" value="" style="sketch=0;outlineConnect=0;fontColor=#232F3E;gradientColor=none;fillColor=#D45B07;strokeColor=none;dashed=0;verticalLabelPosition=bottom;verticalAlign=top;align=center;html=1;fontSize=12;fontStyle=0;aspect=fixed;pointerEvents=1;shape=mxgraph.aws4.container_3;" parent="1" vertex="1">
                    <mxGeometry x="430" y="326.08" width="68" height="43.92" as="geometry"/>
                </mxCell>
                <mxCell id="49" value="" style="sketch=0;outlineConnect=0;fontColor=#232F3E;gradientColor=none;fillColor=#D45B07;strokeColor=none;dashed=0;verticalLabelPosition=bottom;verticalAlign=top;align=center;html=1;fontSize=12;fontStyle=0;aspect=fixed;pointerEvents=1;shape=mxgraph.aws4.container_3;" parent="1" vertex="1">
                    <mxGeometry x="600" y="326.08" width="68" height="43.92" as="geometry"/>
                </mxCell>
                <mxCell id="50" value="" style="sketch=0;points=[[0,0,0],[0.25,0,0],[0.5,0,0],[0.75,0,0],[1,0,0],[0,1,0],[0.25,1,0],[0.5,1,0],[0.75,1,0],[1,1,0],[0,0.25,0],[0,0.5,0],[0,0.75,0],[1,0.25,0],[1,0.5,0],[1,0.75,0]];outlineConnect=0;fontColor=#232F3E;gradientColor=#4D72F3;gradientDirection=north;fillColor=#3334B9;strokeColor=#ffffff;dashed=0;verticalLabelPosition=bottom;verticalAlign=top;align=center;html=1;fontSize=12;fontStyle=0;aspect=fixed;shape=mxgraph.aws4.resourceIcon;resIcon=mxgraph.aws4.rds;" parent="1" vertex="1">
                    <mxGeometry x="786" y="326" width="58" height="58" as="geometry"/>
                </mxCell>
                <mxCell id="56" value="" style="edgeStyle=none;orthogonalLoop=1;jettySize=auto;html=1;fillColor=#647687;strokeColor=#314354;" parent="1" edge="1">
                    <mxGeometry width="100" relative="1" as="geometry">
                        <mxPoint x="1049.33" y="537" as="sourcePoint"/>
                        <mxPoint x="1049.33" y="467" as="targetPoint"/>
                        <Array as="points"/>
                    </mxGeometry>
                </mxCell>
                <mxCell id="57" value="" style="edgeStyle=none;orthogonalLoop=1;jettySize=auto;html=1;fillColor=#647687;strokeColor=#314354;" parent="1" edge="1">
                    <mxGeometry width="100" relative="1" as="geometry">
                        <mxPoint x="1050" y="390" as="sourcePoint"/>
                        <mxPoint x="1049.33" y="340" as="targetPoint"/>
                        <Array as="points"/>
                    </mxGeometry>
                </mxCell>
                <mxCell id="58" value="" style="edgeStyle=none;orthogonalLoop=1;jettySize=auto;html=1;fillColor=#647687;strokeColor=#314354;" parent="1" edge="1">
                    <mxGeometry width="100" relative="1" as="geometry">
                        <mxPoint x="1048.29" y="270" as="sourcePoint"/>
                        <mxPoint x="1048.29" y="200" as="targetPoint"/>
                        <Array as="points"/>
                    </mxGeometry>
                </mxCell>
                <mxCell id="64" value="" style="edgeStyle=none;orthogonalLoop=1;jettySize=auto;html=1;startArrow=classic;startFill=1;endArrow=none;endFill=0;fillColor=#647687;strokeColor=#314354;" parent="1" edge="1">
                    <mxGeometry width="100" relative="1" as="geometry">
                        <mxPoint x="810" y="160" as="sourcePoint"/>
                        <mxPoint x="1000" y="160" as="targetPoint"/>
                        <Array as="points"/>
                    </mxGeometry>
                </mxCell>
                <mxCell id="74" value="" style="endArrow=classic;html=1;fillColor=#647687;strokeColor=#314354;" parent="1" target="46" edge="1">
                    <mxGeometry width="50" height="50" relative="1" as="geometry">
                        <mxPoint x="90" y="455" as="sourcePoint"/>
                        <mxPoint x="130" y="400" as="targetPoint"/>
                    </mxGeometry>
                </mxCell>
                <mxCell id="72" value="" style="endArrow=classic;html=1;fillColor=#647687;strokeColor=#314354;exitX=0;exitY=0.75;exitDx=0;exitDy=0;exitPerimeter=0;" parent="1" source="3" target="49" edge="1">
                    <mxGeometry width="50" height="50" relative="1" as="geometry">
                        <mxPoint x="720" y="160" as="sourcePoint"/>
                        <mxPoint x="420" y="350" as="targetPoint"/>
                        <Array as="points">
                            <mxPoint x="634" y="165"/>
                        </Array>
                    </mxGeometry>
                </mxCell>
                <mxCell id="77" value="" style="endArrow=classic;html=1;fillColor=#647687;strokeColor=#314354;" parent="1" source="3" edge="1">
                    <mxGeometry width="50" height="50" relative="1" as="geometry">
                        <mxPoint x="540" y="150" as="sourcePoint"/>
                        <mxPoint x="463.64" y="326.0001382572312" as="targetPoint"/>
                        <Array as="points">
                            <mxPoint x="464" y="150"/>
                        </Array>
                    </mxGeometry>
                </mxCell>
                <mxCell id="78" value="Users" style="sketch=0;outlineConnect=0;fontColor=#232F3E;gradientColor=none;strokeColor=#232F3E;fillColor=#ffffff;dashed=0;verticalLabelPosition=bottom;verticalAlign=top;align=center;html=1;fontSize=12;fontStyle=0;aspect=fixed;shape=mxgraph.aws4.resourceIcon;resIcon=mxgraph.aws4.users;" vertex="1" parent="1">
                    <mxGeometry x="40" y="414" width="60" height="60" as="geometry"/>
                </mxCell>
            </root>
        </mxGraphModel>
    </diagram>
</mxfile>
